<ttFont>
    <TTGlyph name="A" xMin="36" yMin="0" xMax="605" yMax="700">
      <contour>
        <pt x="36" y="37" on="1"/>
        <pt x="36" y="41" on="0"/>
        <pt x="38" y="47" on="1"/>
        <pt x="106" y="227" on="1"/>
        <pt x="65" y="227" on="1"/>
        <pt x="38" y="227" on="0"/>
        <pt x="38" y="265" on="1"/>
        <pt x="38" y="280" on="0"/>
        <pt x="52" y="301" on="0"/>
        <pt x="65" y="301" on="1"/>
        <pt x="134" y="301" on="1"/>
        <pt x="273" y="665" on="1"/>
        <pt x="281" y="681" on="0"/>
        <pt x="309" y="700" on="0"/>
        <pt x="331" y="700" on="0"/>
        <pt x="359" y="680" on="0"/>
        <pt x="366" y="665" on="1"/>
        <pt x="505" y="301" on="1"/>
        <pt x="570" y="301" on="1"/>
        <pt x="583" y="301" on="0"/>
        <pt x="598" y="279" on="0"/>
        <pt x="598" y="264" on="1"/>
        <pt x="598" y="227" on="0"/>
        <pt x="570" y="227" on="1"/>
        <pt x="534" y="227" on="1"/>
        <pt x="603" y="47" on="1"/>
        <pt x="605" y="41" on="0"/>
        <pt x="605" y="37" on="1"/>
        <pt x="605" y="22" on="0"/>
        <pt x="575" y="0" on="0"/>
        <pt x="560" y="0" on="1"/>
        <pt x="544" y="0" on="0"/>
        <pt x="536" y="15" on="1"/>
        <pt x="455" y="227" on="1"/>
        <pt x="186" y="227" on="1"/>
        <pt x="105" y="15" on="1"/>
        <pt x="97" y="0" on="0"/>
        <pt x="81" y="0" on="1"/>
        <pt x="66" y="0" on="0"/>
        <pt x="36" y="22" on="0"/>
      </contour>
      <contour>
        <pt x="214" y="301" on="1"/>
        <pt x="426" y="301" on="1"/>
        <pt x="320" y="580" on="1"/>
      </contour>
    </TTGlyph>
    <TTGlyph name="AE" xMin="30" yMin="0" xMax="707" yMax="699">
      <contour>
        <pt x="30" y="37" on="1"/>
        <pt x="30" y="41" on="0"/>
        <pt x="32" y="47" on="1"/>
        <pt x="118" y="227" on="1"/>
        <pt x="59" y="227" on="1"/>
        <pt x="32" y="227" on="0"/>
        <pt x="32" y="265" on="1"/>
        <pt x="32" y="280" on="0"/>
        <pt x="46" y="301" on="0"/>
        <pt x="59" y="301" on="1"/>
        <pt x="153" y="301" on="1"/>
        <pt x="327" y="665" on="1"/>
        <pt x="339" y="686" on="0"/>
        <pt x="350" y="694" on="1"/>
        <pt x="355" y="699" on="0"/>
        <pt x="365" y="699" on="1"/>
        <pt x="679" y="699" on="1"/>
        <pt x="692" y="699" on="0"/>
        <pt x="707" y="677" on="0"/>
        <pt x="707" y="662" on="1"/>
        <pt x="707" y="625" on="0"/>
        <pt x="679" y="625" on="1"/>
        <pt x="413" y="625" on="1"/>
        <pt x="413" y="429" on="1"/>
        <pt x="589" y="429" on="1"/>
        <pt x="602" y="429" on="0"/>
        <pt x="617" y="407" on="0"/>
        <pt x="617" y="392" on="1"/>
        <pt x="617" y="355" on="0"/>
        <pt x="589" y="355" on="1"/>
        <pt x="413" y="355" on="1"/>
        <pt x="413" y="74" on="1"/>
        <pt x="679" y="74" on="1"/>
        <pt x="692" y="74" on="0"/>
        <pt x="707" y="52" on="0"/>
        <pt x="707" y="37" on="1"/>
        <pt x="707" y="0" on="0"/>
        <pt x="679" y="0" on="1"/>
        <pt x="365" y="0" on="1"/>
        <pt x="348" y="0" on="0"/>
        <pt x="339" y="24" on="0"/>
        <pt x="339" y="51" on="1"/>
        <pt x="339" y="227" on="1"/>
        <pt x="202" y="227" on="1"/>
        <pt x="99" y="15" on="1"/>
        <pt x="91" y="0" on="0"/>
        <pt x="75" y="0" on="1"/>
        <pt x="60" y="0" on="0"/>
        <pt x="30" y="22" on="0"/>
      </contour>
      <contour>
        <pt x="238" y="301" on="1"/>
        <pt x="339" y="301" on="1"/>
        <pt x="339" y="508" on="1"/>
      </contour>
    </TTGlyph>
    <TTGlyph name="Aacute" xMin="36" yMin="0" xMax="605" yMax="950">
      <contour>
        <pt x="36" y="37" on="1"/>
        <pt x="36" y="41" on="0"/>
        <pt x="38" y="47" on="1"/>
        <pt x="106" y="227" on="1"/>
        <pt x="65" y="227" on="1"/>
        <pt x="38" y="227" on="0"/>
        <pt x="38" y="265" on="1"/>
        <pt x="38" y="280" on="0"/>
        <pt x="52" y="301" on="0"/>
        <pt x="65" y="301" on="1"/>
        <pt x="134" y="301" on="1"/>
        <pt x="273" y="665" on="1"/>
        <pt x="281" y="681" on="0"/>
        <pt x="309" y="700" on="0"/>
        <pt x="331" y="700" on="0"/>
        <pt x="359" y="680" on="0"/>
        <pt x="366" y="665" on="1"/>
        <pt x="505" y="301" on="1"/>
        <pt x="570" y="301" on="1"/>
        <pt x="583" y="301" on="0"/>
        <pt x="598" y="279" on="0"/>
        <pt x="598" y="264" on="1"/>
        <pt x="598" y="227" on="0"/>
        <pt x="570" y="227" on="1"/>
        <pt x="534" y="227" on="1"/>
        <pt x="603" y="47" on="1"/>
        <pt x="605" y="41" on="0"/>
        <pt x="605" y="37" on="1"/>
        <pt x="605" y="22" on="0"/>
        <pt x="575" y="0" on="0"/>
        <pt x="560" y="0" on="1"/>
        <pt x="544" y="0" on="0"/>
        <pt x="536" y="15" on="1"/>
        <pt x="455" y="227" on="1"/>
        <pt x="186" y="227" on="1"/>
        <pt x="105" y="15" on="1"/>
        <pt x="97" y="0" on="0"/>
        <pt x="81" y="0" on="1"/>
        <pt x="66" y="0" on="0"/>
        <pt x="36" y="22" on="0"/>
      </contour>
      <contour>
        <pt x="214" y="301" on="1"/>
        <pt x="426" y="301" on="1"/>
        <pt x="320" y="580" on="1"/>
      </contour>
      <contour>
        <pt x="282" y="774" on="1"/>
        <pt x="282" y="820" on="0"/>
        <pt x="352" y="950" on="0"/>
        <pt x="395" y="950" on="1"/>
        <pt x="417" y="950" on="0"/>
        <pt x="453" y="911" on="0"/>
        <pt x="453" y="891" on="1"/>
        <pt x="453" y="879" on="0"/>
        <pt x="446" y="860" on="0"/>
        <pt x="438" y="849" on="0"/>
        <pt x="420" y="836" on="0"/>
        <pt x="410" y="831" on="0"/>
        <pt x="385" y="821" on="0"/>
        <pt x="381" y="819" on="1"/>
        <pt x="361" y="810" on="0"/>
        <pt x="310" y="747" on="0"/>
        <pt x="299" y="747" on="1"/>
        <pt x="282" y="747" on="0"/>
      </contour>
    </TTGlyph>
    <TTGlyph name="Acircumflex" xMin="36" yMin="0" xMax="605" yMax="950">
      <contour>
        <pt x="36" y="37" on="1"/>
        <pt x="36" y="41" on="0"/>
        <pt x="38" y="47" on="1"/>
        <pt x="106" y="227" on="1"/>
        <pt x="65" y="227" on="1"/>
        <pt x="38" y="227" on="0"/>
        <pt x="38" y="265" on="1"/>
        <pt x="38" y="280" on="0"/>
        <pt x="52" y="301" on="0"/>
        <pt x="65" y="301" on="1"/>
        <pt x="134" y="301" on="1"/>
        <pt x="273" y="665" on="1"/>
        <pt x="281" y="681" on="0"/>
        <pt x="309" y="700" on="0"/>
        <pt x="331" y="700" on="0"/>
        <pt x="359" y="680" on="0"/>
        <pt x="366" y="665" on="1"/>
        <pt x="505" y="301" on="1"/>
        <pt x="570" y="301" on="1"/>
        <pt x="583" y="301" on="0"/>
        <pt x="598" y="279" on="0"/>
        <pt x="598" y="264" on="1"/>
        <pt x="598" y="227" on="0"/>
        <pt x="570" y="227" on="1"/>
        <pt x="534" y="227" on="1"/>
        <pt x="603" y="47" on="1"/>
        <pt x="605" y="41" on="0"/>
        <pt x="605" y="37" on="1"/>
        <pt x="605" y="22" on="0"/>
        <pt x="575" y="0" on="0"/>
        <pt x="560" y="0" on="1"/>
        <pt x="544" y="0" on="0"/>
        <pt x="536" y="15" on="1"/>
        <pt x="455" y="227" on="1"/>
        <pt x="186" y="227" on="1"/>
        <pt x="105" y="15" on="1"/>
        <pt x="97" y="0" on="0"/>
        <pt x="81" y="0" on="1"/>
        <pt x="66" y="0" on="0"/>
        <pt x="36" y="22" on="0"/>
      </contour>
      <contour>
        <pt x="154" y="786" on="1"/>
        <pt x="154" y="792" on="0"/>
        <pt x="158" y="797" on="1"/>
        <pt x="273" y="915" on="1"/>
        <pt x="276" y="918" on="0"/>
        <pt x="287" y="930" on="0"/>
        <pt x="293" y="935" on="0"/>
        <pt x="302" y="943" on="0"/>
        <pt x="308" y="947" on="0"/>
        <pt x="316" y="950" on="0"/>
        <pt x="324" y="950" on="0"/>
        <pt x="333" y="946" on="0"/>
        <pt x="344" y="938" on="0"/>
        <pt x="350" y="931" on="0"/>
        <pt x="356" y="924" on="1"/>
        <pt x="366" y="915" on="1"/>
        <pt x="483" y="797" on="1"/>
        <pt x="487" y="793" on="0"/>
        <pt x="487" y="786" on="1"/>
        <pt x="487" y="773" on="0"/>
        <pt x="458" y="751" on="0"/>
        <pt x="445" y="751" on="1"/>
        <pt x="430" y="751" on="0"/>
        <pt x="416" y="765" on="1"/>
        <pt x="320" y="850" on="1"/>
        <pt x="225" y="765" on="1"/>
        <pt x="212" y="752" on="0"/>
        <pt x="182" y="752" on="0"/>
        <pt x="154" y="773" on="0"/>
      </contour>
      <contour>
        <pt x="214" y="301" on="1"/>
        <pt x="426" y="301" on="1"/>
        <pt x="320" y="580" on="1"/>
      </contour>
    </TTGlyph>
    <TTGlyph name="Adieresis" xMin="36" yMin="0" xMax="605" yMax="896">
      <contour>
        <pt x="36" y="37" on="1"/>
        <pt x="36" y="41" on="0"/>
        <pt x="38" y="47" on="1"/>
        <pt x="106" y="227" on="1"/>
        <pt x="65" y="227" on="1"/>
        <pt x="38" y="227" on="0"/>
        <pt x="38" y="265" on="1"/>
        <pt x="38" y="280" on="0"/>
        <pt x="52" y="301" on="0"/>
        <pt x="65" y="301" on="1"/>
        <pt x="134" y="301" on="1"/>
        <pt x="273" y="665" on="1"/>
        <pt x="281" y="681" on="0"/>
        <pt x="309" y="700" on="0"/>
        <pt x="331" y="700" on="0"/>
        <pt x="359" y="680" on="0"/>
        <pt x="366" y="665" on="1"/>
        <pt x="505" y="301" on="1"/>
        <pt x="570" y="301" on="1"/>
        <pt x="583" y="301" on="0"/>
        <pt x="598" y="279" on="0"/>
        <pt x="598" y="264" on="1"/>
        <pt x="598" y="227" on="0"/>
        <pt x="570" y="227" on="1"/>
        <pt x="534" y="227" on="1"/>
        <pt x="603" y="47" on="1"/>
        <pt x="605" y="41" on="0"/>
        <pt x="605" y="37" on="1"/>
        <pt x="605" y="22" on="0"/>
        <pt x="575" y="0" on="0"/>
        <pt x="560" y="0" on="1"/>
        <pt x="544" y="0" on="0"/>
        <pt x="536" y="15" on="1"/>
        <pt x="455" y="227" on="1"/>
        <pt x="186" y="227" on="1"/>
        <pt x="105" y="15" on="1"/>
        <pt x="97" y="0" on="0"/>
        <pt x="81" y="0" on="1"/>
        <pt x="66" y="0" on="0"/>
        <pt x="36" y="22" on="0"/>
      </contour>
      <contour>
        <pt x="129" y="820" on="1"/>
        <pt x="129" y="848" on="1"/>
        <pt x="129" y="870" on="0"/>
        <pt x="166" y="896" on="0"/>
        <pt x="197" y="896" on="1"/>
        <pt x="224" y="896" on="0"/>
        <pt x="262" y="871" on="0"/>
        <pt x="262" y="848" on="1"/>
        <pt x="262" y="820" on="1"/>
        <pt x="262" y="797" on="0"/>
        <pt x="222" y="770" on="0"/>
        <pt x="196" y="770" on="1"/>
        <pt x="165" y="770" on="0"/>
        <pt x="129" y="797" on="0"/>
      </contour>
      <contour>
        <pt x="214" y="301" on="1"/>
        <pt x="426" y="301" on="1"/>
        <pt x="320" y="580" on="1"/>
      </contour>
      <contour>
        <pt x="379" y="820" on="1"/>
        <pt x="379" y="848" on="1"/>
        <pt x="379" y="870" on="0"/>
        <pt x="416" y="896" on="0"/>
        <pt x="447" y="896" on="1"/>
        <pt x="474" y="896" on="0"/>
        <pt x="512" y="871" on="0"/>
        <pt x="512" y="848" on="1"/>
        <pt x="512" y="820" on="1"/>
        <pt x="512" y="797" on="0"/>
        <pt x="472" y="770" on="0"/>
        <pt x="446" y="770" on="1"/>
        <pt x="415" y="770" on="0"/>
        <pt x="379" y="797" on="0"/>
      </contour>
    </TTGlyph>
    <TTGlyph name="Agrave" xMin="36" yMin="0" xMax="605" yMax="950">
      <contour>
        <pt x="36" y="37" on="1"/>
        <pt x="36" y="41" on="0"/>
        <pt x="38" y="47" on="1"/>
        <pt x="106" y="227" on="1"/>
        <pt x="65" y="227" on="1"/>
        <pt x="38" y="227" on="0"/>
        <pt x="38" y="265" on="1"/>
        <pt x="38" y="280" on="0"/>
        <pt x="52" y="301" on="0"/>
        <pt x="65" y="301" on="1"/>
        <pt x="134" y="301" on="1"/>
        <pt x="273" y="665" on="1"/>
        <pt x="281" y="681" on="0"/>
        <pt x="309" y="700" on="0"/>
        <pt x="331" y="700" on="0"/>
        <pt x="359" y="680" on="0"/>
        <pt x="366" y="665" on="1"/>
        <pt x="505" y="301" on="1"/>
        <pt x="570" y="301" on="1"/>
        <pt x="583" y="301" on="0"/>
        <pt x="598" y="279" on="0"/>
        <pt x="598" y="264" on="1"/>
        <pt x="598" y="227" on="0"/>
        <pt x="570" y="227" on="1"/>
        <pt x="534" y="227" on="1"/>
        <pt x="603" y="47" on="1"/>
        <pt x="605" y="41" on="0"/>
        <pt x="605" y="37" on="1"/>
        <pt x="605" y="22" on="0"/>
        <pt x="575" y="0" on="0"/>
        <pt x="560" y="0" on="1"/>
        <pt x="544" y="0" on="0"/>
        <pt x="536" y="15" on="1"/>
        <pt x="455" y="227" on="1"/>
        <pt x="186" y="227" on="1"/>
        <pt x="105" y="15" on="1"/>
        <pt x="97" y="0" on="0"/>
        <pt x="81" y="0" on="1"/>
        <pt x="66" y="0" on="0"/>
        <pt x="36" y="22" on="0"/>
      </contour>
      <contour>
        <pt x="177" y="891" on="1"/>
        <pt x="177" y="911" on="0"/>
        <pt x="213" y="950" on="0"/>
        <pt x="235" y="950" on="1"/>
        <pt x="278" y="950" on="0"/>
        <pt x="348" y="820" on="0"/>
        <pt x="348" y="774" on="1"/>
        <pt x="348" y="747" on="0"/>
        <pt x="331" y="747" on="1"/>
        <pt x="320" y="747" on="0"/>
        <pt x="269" y="810" on="0"/>
        <pt x="249" y="819" on="1"/>
        <pt x="245" y="821" on="0"/>
        <pt x="220" y="831" on="0"/>
        <pt x="210" y="836" on="0"/>
        <pt x="192" y="849" on="0"/>
        <pt x="184" y="860" on="0"/>
        <pt x="177" y="879" on="0"/>
      </contour>
      <contour>
        <pt x="214" y="301" on="1"/>
        <pt x="426" y="301" on="1"/>
        <pt x="320" y="580" on="1"/>
      </contour>
    </TTGlyph>
    <TTGlyph name="Aring" xMin="37" yMin="0" xMax="606" yMax="846">
      <contour>
        <pt x="37" y="37" on="1"/>
        <pt x="37" y="41" on="0"/>
        <pt x="39" y="47" on="1"/>
        <pt x="107" y="227" on="1"/>
        <pt x="66" y="227" on="1"/>
        <pt x="39" y="227" on="0"/>
        <pt x="39" y="265" on="1"/>
        <pt x="39" y="280" on="0"/>
        <pt x="53" y="301" on="0"/>
        <pt x="66" y="301" on="1"/>
        <pt x="135" y="301" on="1"/>
        <pt x="268" y="650" on="1"/>
        <pt x="240" y="663" on="0"/>
        <pt x="205" y="713" on="0"/>
        <pt x="205" y="742" on="1"/>
        <pt x="205" y="790" on="0"/>
        <pt x="275" y="846" on="0"/>
        <pt x="318" y="846" on="1"/>
        <pt x="358" y="846" on="0"/>
        <pt x="423" y="787" on="0"/>
        <pt x="423" y="742" on="1"/>
        <pt x="423" y="682" on="0"/>
        <pt x="371" y="653" on="1"/>
        <pt x="506" y="301" on="1"/>
        <pt x="571" y="301" on="1"/>
        <pt x="584" y="301" on="0"/>
        <pt x="599" y="279" on="0"/>
        <pt x="599" y="264" on="1"/>
        <pt x="599" y="227" on="0"/>
        <pt x="571" y="227" on="1"/>
        <pt x="535" y="227" on="1"/>
        <pt x="604" y="47" on="1"/>
        <pt x="606" y="41" on="0"/>
        <pt x="606" y="37" on="1"/>
        <pt x="606" y="22" on="0"/>
        <pt x="576" y="0" on="0"/>
        <pt x="561" y="0" on="1"/>
        <pt x="545" y="0" on="0"/>
        <pt x="537" y="15" on="1"/>
        <pt x="456" y="227" on="1"/>
        <pt x="187" y="227" on="1"/>
        <pt x="106" y="15" on="1"/>
        <pt x="98" y="0" on="0"/>
        <pt x="82" y="0" on="1"/>
        <pt x="67" y="0" on="0"/>
        <pt x="37" y="22" on="0"/>
      </contour>
      <contour>
        <pt x="215" y="301" on="1"/>
        <pt x="427" y="301" on="1"/>
        <pt x="321" y="580" on="1"/>
      </contour>
      <contour>
        <pt x="269" y="741" on="1"/>
        <pt x="269" y="727" on="0"/>
        <pt x="299" y="702" on="0"/>
        <pt x="318" y="702" on="1"/>
        <pt x="333" y="702" on="0"/>
        <pt x="358" y="728" on="0"/>
        <pt x="358" y="756" on="0"/>
        <pt x="334" y="783" on="0"/>
        <pt x="318" y="783" on="1"/>
        <pt x="295" y="783" on="0"/>
        <pt x="269" y="756" on="0"/>
      </contour>
    </TTGlyph>
    <TTGlyph name="Atilde" xMin="36" yMin="0" xMax="605" yMax="898">
      <contour>
        <pt x="36" y="37" on="1"/>
        <pt x="36" y="41" on="0"/>
        <pt x="38" y="47" on="1"/>
        <pt x="106" y="227" on="1"/>
        <pt x="65" y="227" on="1"/>
        <pt x="38" y="227" on="0"/>
        <pt x="38" y="265" on="1"/>
        <pt x="38" y="280" on="0"/>
        <pt x="52" y="301" on="0"/>
        <pt x="65" y="301" on="1"/>
        <pt x="134" y="301" on="1"/>
        <pt x="273" y="665" on="1"/>
        <pt x="281" y="681" on="0"/>
        <pt x="309" y="700" on="0"/>
        <pt x="331" y="700" on="0"/>
        <pt x="359" y="680" on="0"/>
        <pt x="366" y="665" on="1"/>
        <pt x="505" y="301" on="1"/>
        <pt x="570" y="301" on="1"/>
        <pt x="583" y="301" on="0"/>
        <pt x="598" y="279" on="0"/>
        <pt x="598" y="264" on="1"/>
        <pt x="598" y="227" on="0"/>
        <pt x="570" y="227" on="1"/>
        <pt x="534" y="227" on="1"/>
        <pt x="603" y="47" on="1"/>
        <pt x="605" y="41" on="0"/>
        <pt x="605" y="37" on="1"/>
        <pt x="605" y="22" on="0"/>
        <pt x="575" y="0" on="0"/>
        <pt x="560" y="0" on="1"/>
        <pt x="544" y="0" on="0"/>
        <pt x="536" y="15" on="1"/>
        <pt x="455" y="227" on="1"/>
        <pt x="186" y="227" on="1"/>
        <pt x="105" y="15" on="1"/>
        <pt x="97" y="0" on="0"/>
        <pt x="81" y="0" on="1"/>
        <pt x="66" y="0" on="0"/>
        <pt x="36" y="22" on="0"/>
      </contour>
      <contour>
        <pt x="116" y="798" on="1"/>
        <pt x="116" y="840" on="0"/>
        <pt x="187" y="898" on="0"/>
        <pt x="234" y="898" on="1"/>
        <pt x="257" y="898" on="0"/>
        <pt x="298" y="883" on="0"/>
        <pt x="318" y="869" on="0"/>
        <pt x="337" y="853" on="1"/>
        <pt x="374" y="825" on="0"/>
        <pt x="402" y="825" on="1"/>
        <pt x="431" y="825" on="0"/>
        <pt x="471" y="855" on="0"/>
        <pt x="471" y="876" on="1"/>
        <pt x="471" y="886" on="0"/>
        <pt x="488" y="898" on="0"/>
        <pt x="499" y="898" on="1"/>
        <pt x="524" y="898" on="0"/>
        <pt x="524" y="855" on="1"/>
        <pt x="523" y="813" on="0"/>
        <pt x="453" y="755" on="0"/>
        <pt x="406" y="755" on="1"/>
        <pt x="369" y="755" on="0"/>
        <pt x="339" y="771" on="1"/>
        <pt x="326" y="778" on="0"/>
        <pt x="288" y="810" on="0"/>
        <pt x="256" y="828" on="0"/>
        <pt x="238" y="828" on="1"/>
        <pt x="209" y="828" on="0"/>
        <pt x="169" y="798" on="0"/>
        <pt x="169" y="777" on="1"/>
        <pt x="169" y="767" on="0"/>
        <pt x="152" y="755" on="0"/>
        <pt x="141" y="755" on="1"/>
        <pt x="116" y="755" on="0"/>
      </contour>
      <contour>
        <pt x="214" y="301" on="1"/>
        <pt x="426" y="301" on="1"/>
        <pt x="320" y="580" on="1"/>
      </contour>
    </TTGlyph>
    <TTGlyph name="B" xMin="73" yMin="-17" xMax="608" yMax="701">
      <contour>
        <pt x="73" y="28" on="1"/>
        <pt x="73" y="673" on="1"/>
        <pt x="73" y="700" on="0"/>
        <pt x="111" y="700" on="1"/>
        <pt x="126" y="700" on="0"/>
        <pt x="147" y="686" on="0"/>
        <pt x="147" y="673" on="1"/>
        <pt x="147" y="620" on="1"/>
        <pt x="219" y="701" on="0"/>
        <pt x="329" y="701" on="1"/>
        <pt x="403" y="701" on="0"/>
        <pt x="509" y="621" on="0"/>
        <pt x="509" y="550" on="1"/>
        <pt x="509" y="506" on="0"/>
        <pt x="462" y="419" on="0"/>
        <pt x="412" y="403" on="1"/>
        <pt x="507" y="388" on="0"/>
        <pt x="608" y="276" on="0"/>
        <pt x="608" y="212" on="1"/>
        <pt x="608" y="113" on="0"/>
        <pt x="480" y="-17" on="0"/>
        <pt x="344" y="-17" on="1"/>
        <pt x="227" y="-17" on="0"/>
        <pt x="145" y="18" on="1"/>
        <pt x="136" y="0" on="0"/>
        <pt x="110" y="0" on="1"/>
        <pt x="73" y="0" on="0"/>
      </contour>
      <contour>
        <pt x="147" y="91" on="1"/>
        <pt x="211" y="57" on="0"/>
        <pt x="334" y="57" on="1"/>
        <pt x="436" y="57" on="0"/>
        <pt x="534" y="140" on="0"/>
        <pt x="534" y="201" on="1"/>
        <pt x="534" y="272" on="0"/>
        <pt x="412" y="343" on="0"/>
        <pt x="312" y="343" on="1"/>
        <pt x="281" y="343" on="0"/>
        <pt x="165" y="340" on="0"/>
        <pt x="147" y="340" on="1"/>
      </contour>
      <contour>
        <pt x="147" y="421" on="1"/>
        <pt x="187" y="416" on="0"/>
        <pt x="236" y="416" on="1"/>
        <pt x="330" y="416" on="0"/>
        <pt x="435" y="493" on="0"/>
        <pt x="435" y="545" on="1"/>
        <pt x="435" y="588" on="0"/>
        <pt x="377" y="630" on="0"/>
        <pt x="329" y="630" on="1"/>
        <pt x="273" y="630" on="0"/>
        <pt x="175" y="576" on="0"/>
        <pt x="147" y="519" on="1"/>
      </contour>
    </TTGlyph>
    <TTGlyph name="C" xMin="45" yMin="-9" xMax="620" yMax="711">
      <contour>
        <pt x="45" y="355" on="1"/>
        <pt x="45" y="508" on="0"/>
        <pt x="266" y="711" on="0"/>
        <pt x="416" y="711" on="1"/>
        <pt x="506" y="711" on="0"/>
        <pt x="583" y="649" on="1"/>
        <pt x="591" y="642" on="0"/>
        <pt x="591" y="631" on="1"/>
        <pt x="591" y="615" on="0"/>
        <pt x="565" y="588" on="0"/>
        <pt x="551" y="588" on="1"/>
        <pt x="541" y="588" on="0"/>
        <pt x="534" y="595" on="1"/>
        <pt x="486" y="637" on="0"/>
        <pt x="414" y="637" on="1"/>
        <pt x="283" y="637" on="0"/>
        <pt x="120" y="468" on="0"/>
        <pt x="120" y="356" on="1"/>
        <pt x="120" y="241" on="0"/>
        <pt x="280" y="65" on="0"/>
        <pt x="415" y="65" on="1"/>
        <pt x="503" y="65" on="0"/>
        <pt x="558" y="128" on="1"/>
        <pt x="569" y="139" on="0"/>
        <pt x="577" y="139" on="1"/>
        <pt x="592" y="139" on="0"/>
        <pt x="620" y="109" on="0"/>
        <pt x="620" y="95" on="1"/>
        <pt x="620" y="86" on="0"/>
        <pt x="613" y="79" on="1"/>
        <pt x="536" y="-9" on="0"/>
        <pt x="420" y="-9" on="1"/>
        <pt x="305" y="-9" on="0"/>
        <pt x="131" y="96" on="0"/>
        <pt x="45" y="259" on="0"/>
      </contour>
    </TTGlyph>
    <TTGlyph name="Ccedilla" xMin="45" yMin="-225" xMax="620" yMax="711">
      <contour>
        <pt x="45" y="355" on="1"/>
        <pt x="45" y="508" on="0"/>
        <pt x="266" y="711" on="0"/>
        <pt x="416" y="711" on="1"/>
        <pt x="506" y="711" on="0"/>
        <pt x="583" y="649" on="1"/>
        <pt x="591" y="642" on="0"/>
        <pt x="591" y="631" on="1"/>
        <pt x="591" y="615" on="0"/>
        <pt x="565" y="588" on="0"/>
        <pt x="551" y="588" on="1"/>
        <pt x="541" y="588" on="0"/>
        <pt x="534" y="595" on="1"/>
        <pt x="486" y="637" on="0"/>
        <pt x="414" y="637" on="1"/>
        <pt x="283" y="637" on="0"/>
        <pt x="120" y="468" on="0"/>
        <pt x="120" y="356" on="1"/>
        <pt x="120" y="241" on="0"/>
        <pt x="280" y="65" on="0"/>
        <pt x="415" y="65" on="1"/>
        <pt x="503" y="65" on="0"/>
        <pt x="558" y="128" on="1"/>
        <pt x="569" y="139" on="0"/>
        <pt x="577" y="139" on="1"/>
        <pt x="592" y="139" on="0"/>
        <pt x="620" y="109" on="0"/>
        <pt x="620" y="95" on="1"/>
        <pt x="620" y="86" on="0"/>
        <pt x="613" y="79" on="1"/>
        <pt x="536" y="-9" on="0"/>
        <pt x="420" y="-9" on="1"/>
        <pt x="388" y="-9" on="0"/>
        <pt x="353" y="-4" on="1"/>
        <pt x="353" y="-36" on="1"/>
        <pt x="381" y="-36" on="0"/>
        <pt x="443" y="-85" on="0"/>
        <pt x="443" y="-133" on="1"/>
        <pt x="443" y="-177" on="0"/>
        <pt x="377" y="-225" on="0"/>
        <pt x="337" y="-225" on="1"/>
        <pt x="278" y="-225" on="0"/>
        <pt x="222" y="-178" on="0"/>
        <pt x="222" y="-149" on="1"/>
        <pt x="222" y="-135" on="0"/>
        <pt x="243" y="-119" on="0"/>
        <pt x="256" y="-119" on="1"/>
        <pt x="276" y="-119" on="0"/>
        <pt x="278" y="-134" on="1"/>
        <pt x="281" y="-171" on="0"/>
        <pt x="323" y="-171" on="1"/>
        <pt x="342" y="-171" on="0"/>
        <pt x="371" y="-153" on="0"/>
        <pt x="371" y="-137" on="1"/>
        <pt x="371" y="-118" on="0"/>
        <pt x="354" y="-93" on="0"/>
        <pt x="320" y="-82" on="0"/>
        <pt x="298" y="-79" on="0"/>
        <pt x="279" y="-78" on="1"/>
        <pt x="279" y="14" on="1"/>
        <pt x="169" y="53" on="0"/>
        <pt x="45" y="241" on="0"/>
      </contour>
    </TTGlyph>
    <TTGlyph name="D" xMin="73" yMin="-9" xMax="657" yMax="711">
      <contour>
        <pt x="73" y="28" on="1"/>
        <pt x="73" y="673" on="1"/>
        <pt x="73" y="700" on="0"/>
        <pt x="111" y="700" on="1"/>
        <pt x="126" y="700" on="0"/>
        <pt x="147" y="686" on="0"/>
        <pt x="147" y="673" on="1"/>
        <pt x="147" y="665" on="1"/>
        <pt x="218" y="711" on="0"/>
        <pt x="286" y="711" on="1"/>
        <pt x="436" y="711" on="0"/>
        <pt x="657" y="508" on="0"/>
        <pt x="657" y="355" on="1"/>
        <pt x="657" y="259" on="0"/>
        <pt x="571" y="96" on="0"/>
        <pt x="397" y="-9" on="0"/>
        <pt x="282" y="-9" on="1"/>
        <pt x="205" y="-9" on="0"/>
        <pt x="147" y="28" on="1"/>
        <pt x="147" y="15" on="0"/>
        <pt x="125" y="0" on="0"/>
        <pt x="110" y="0" on="1"/>
        <pt x="73" y="0" on="0"/>
      </contour>
      <contour>
        <pt x="147" y="124" on="1"/>
        <pt x="202" y="65" on="0"/>
        <pt x="287" y="65" on="1"/>
        <pt x="422" y="65" on="0"/>
        <pt x="582" y="241" on="0"/>
        <pt x="582" y="356" on="1"/>
        <pt x="582" y="468" on="0"/>
        <pt x="419" y="637" on="0"/>
        <pt x="288" y="637" on="1"/>
        <pt x="217" y="637" on="0"/>
        <pt x="147" y="588" on="1"/>
      </contour>
    </TTGlyph>
    <TTGlyph name="E" xMin="73" yMin="0" xMax="641" yMax="699">
      <contour>
        <pt x="73" y="51" on="1"/>
        <pt x="73" y="650" on="1"/>
        <pt x="73" y="699" on="0"/>
        <pt x="99" y="699" on="1"/>
        <pt x="613" y="699" on="1"/>
        <pt x="626" y="699" on="0"/>
        <pt x="641" y="677" on="0"/>
        <pt x="641" y="662" on="1"/>
        <pt x="641" y="625" on="0"/>
        <pt x="613" y="625" on="1"/>
        <pt x="147" y="625" on="1"/>
        <pt x="147" y="429" on="1"/>
        <pt x="523" y="429" on="1"/>
        <pt x="536" y="429" on="0"/>
        <pt x="551" y="407" on="0"/>
        <pt x="551" y="392" on="1"/>
        <pt x="551" y="355" on="0"/>
        <pt x="523" y="355" on="1"/>
        <pt x="147" y="355" on="1"/>
        <pt x="147" y="74" on="1"/>
        <pt x="613" y="74" on="1"/>
        <pt x="626" y="74" on="0"/>
        <pt x="641" y="52" on="0"/>
        <pt x="641" y="37" on="1"/>
        <pt x="641" y="0" on="0"/>
        <pt x="613" y="0" on="1"/>
        <pt x="99" y="0" on="1"/>
        <pt x="82" y="0" on="0"/>
        <pt x="73" y="24" on="0"/>
      </contour>
    </TTGlyph>
    <TTGlyph name="Eacute" xMin="73" yMin="0" xMax="641" yMax="950">
      <contour>
        <pt x="73" y="51" on="1"/>
        <pt x="73" y="650" on="1"/>
        <pt x="73" y="699" on="0"/>
        <pt x="99" y="699" on="1"/>
        <pt x="613" y="699" on="1"/>
        <pt x="626" y="699" on="0"/>
        <pt x="641" y="677" on="0"/>
        <pt x="641" y="662" on="1"/>
        <pt x="641" y="625" on="0"/>
        <pt x="613" y="625" on="1"/>
        <pt x="147" y="625" on="1"/>
        <pt x="147" y="429" on="1"/>
        <pt x="523" y="429" on="1"/>
        <pt x="536" y="429" on="0"/>
        <pt x="551" y="407" on="0"/>
        <pt x="551" y="392" on="1"/>
        <pt x="551" y="355" on="0"/>
        <pt x="523" y="355" on="1"/>
        <pt x="147" y="355" on="1"/>
        <pt x="147" y="74" on="1"/>
        <pt x="613" y="74" on="1"/>
        <pt x="626" y="74" on="0"/>
        <pt x="641" y="52" on="0"/>
        <pt x="641" y="37" on="1"/>
        <pt x="641" y="0" on="0"/>
        <pt x="613" y="0" on="1"/>
        <pt x="99" y="0" on="1"/>
        <pt x="82" y="0" on="0"/>
        <pt x="73" y="24" on="0"/>
      </contour>
      <contour>
        <pt x="322" y="774" on="1"/>
        <pt x="322" y="820" on="0"/>
        <pt x="392" y="950" on="0"/>
        <pt x="435" y="950" on="1"/>
        <pt x="457" y="950" on="0"/>
        <pt x="493" y="911" on="0"/>
        <pt x="493" y="891" on="1"/>
        <pt x="493" y="879" on="0"/>
        <pt x="486" y="860" on="0"/>
        <pt x="478" y="849" on="0"/>
        <pt x="460" y="836" on="0"/>
        <pt x="450" y="831" on="0"/>
        <pt x="425" y="821" on="0"/>
        <pt x="421" y="819" on="1"/>
        <pt x="401" y="810" on="0"/>
        <pt x="350" y="747" on="0"/>
        <pt x="339" y="747" on="1"/>
        <pt x="322" y="747" on="0"/>
      </contour>
    </TTGlyph>
    <TTGlyph name="Ecircumflex" xMin="73" yMin="0" xMax="641" yMax="950">
      <contour>
        <pt x="73" y="51" on="1"/>
        <pt x="73" y="650" on="1"/>
        <pt x="73" y="699" on="0"/>
        <pt x="99" y="699" on="1"/>
        <pt x="613" y="699" on="1"/>
        <pt x="626" y="699" on="0"/>
        <pt x="641" y="677" on="0"/>
        <pt x="641" y="662" on="1"/>
        <pt x="641" y="625" on="0"/>
        <pt x="613" y="625" on="1"/>
        <pt x="147" y="625" on="1"/>
        <pt x="147" y="429" on="1"/>
        <pt x="523" y="429" on="1"/>
        <pt x="536" y="429" on="0"/>
        <pt x="551" y="407" on="0"/>
        <pt x="551" y="392" on="1"/>
        <pt x="551" y="355" on="0"/>
        <pt x="523" y="355" on="1"/>
        <pt x="147" y="355" on="1"/>
        <pt x="147" y="74" on="1"/>
        <pt x="613" y="74" on="1"/>
        <pt x="626" y="74" on="0"/>
        <pt x="641" y="52" on="0"/>
        <pt x="641" y="37" on="1"/>
        <pt x="641" y="0" on="0"/>
        <pt x="613" y="0" on="1"/>
        <pt x="99" y="0" on="1"/>
        <pt x="82" y="0" on="0"/>
        <pt x="73" y="24" on="0"/>
      </contour>
      <contour>
        <pt x="190" y="786" on="1"/>
        <pt x="190" y="792" on="0"/>
        <pt x="194" y="797" on="1"/>
        <pt x="309" y="915" on="1"/>
        <pt x="312" y="918" on="0"/>
        <pt x="323" y="930" on="0"/>
        <pt x="329" y="935" on="0"/>
        <pt x="338" y="943" on="0"/>
        <pt x="344" y="947" on="0"/>
        <pt x="352" y="950" on="0"/>
        <pt x="360" y="950" on="0"/>
        <pt x="369" y="946" on="0"/>
        <pt x="380" y="938" on="0"/>
        <pt x="386" y="931" on="0"/>
        <pt x="392" y="924" on="1"/>
        <pt x="402" y="915" on="1"/>
        <pt x="519" y="797" on="1"/>
        <pt x="523" y="793" on="0"/>
        <pt x="523" y="786" on="1"/>
        <pt x="523" y="773" on="0"/>
        <pt x="494" y="751" on="0"/>
        <pt x="481" y="751" on="1"/>
        <pt x="466" y="751" on="0"/>
        <pt x="452" y="765" on="1"/>
        <pt x="356" y="850" on="1"/>
        <pt x="261" y="765" on="1"/>
        <pt x="248" y="752" on="0"/>
        <pt x="218" y="752" on="0"/>
        <pt x="190" y="773" on="0"/>
      </contour>
    </TTGlyph>
    <TTGlyph name="Edieresis" xMin="73" yMin="0" xMax="641" yMax="896">
      <contour>
        <pt x="73" y="51" on="1"/>
        <pt x="73" y="650" on="1"/>
        <pt x="73" y="699" on="0"/>
        <pt x="99" y="699" on="1"/>
        <pt x="613" y="699" on="1"/>
        <pt x="626" y="699" on="0"/>
        <pt x="641" y="677" on="0"/>
        <pt x="641" y="662" on="1"/>
        <pt x="641" y="625" on="0"/>
        <pt x="613" y="625" on="1"/>
        <pt x="147" y="625" on="1"/>
        <pt x="147" y="429" on="1"/>
        <pt x="523" y="429" on="1"/>
        <pt x="536" y="429" on="0"/>
        <pt x="551" y="407" on="0"/>
        <pt x="551" y="392" on="1"/>
        <pt x="551" y="355" on="0"/>
        <pt x="523" y="355" on="1"/>
        <pt x="147" y="355" on="1"/>
        <pt x="147" y="74" on="1"/>
        <pt x="613" y="74" on="1"/>
        <pt x="626" y="74" on="0"/>
        <pt x="641" y="52" on="0"/>
        <pt x="641" y="37" on="1"/>
        <pt x="641" y="0" on="0"/>
        <pt x="613" y="0" on="1"/>
        <pt x="99" y="0" on="1"/>
        <pt x="82" y="0" on="0"/>
        <pt x="73" y="24" on="0"/>
      </contour>
      <contour>
        <pt x="166" y="820" on="1"/>
        <pt x="166" y="848" on="1"/>
        <pt x="166" y="870" on="0"/>
        <pt x="203" y="896" on="0"/>
        <pt x="234" y="896" on="1"/>
        <pt x="261" y="896" on="0"/>
        <pt x="299" y="871" on="0"/>
        <pt x="299" y="848" on="1"/>
        <pt x="299" y="820" on="1"/>
        <pt x="299" y="797" on="0"/>
        <pt x="259" y="770" on="0"/>
        <pt x="233" y="770" on="1"/>
        <pt x="202" y="770" on="0"/>
        <pt x="166" y="797" on="0"/>
      </contour>
      <contour>
        <pt x="416" y="820" on="1"/>
        <pt x="416" y="848" on="1"/>
        <pt x="416" y="870" on="0"/>
        <pt x="453" y="896" on="0"/>
        <pt x="484" y="896" on="1"/>
        <pt x="511" y="896" on="0"/>
        <pt x="549" y="871" on="0"/>
        <pt x="549" y="848" on="1"/>
        <pt x="549" y="820" on="1"/>
        <pt x="549" y="797" on="0"/>
        <pt x="509" y="770" on="0"/>
        <pt x="483" y="770" on="1"/>
        <pt x="452" y="770" on="0"/>
        <pt x="416" y="797" on="0"/>
      </contour>
    </TTGlyph>
    <TTGlyph name="Egrave" xMin="73" yMin="0" xMax="641" yMax="950">
      <contour>
        <pt x="73" y="51" on="1"/>
        <pt x="73" y="650" on="1"/>
        <pt x="73" y="699" on="0"/>
        <pt x="99" y="699" on="1"/>
        <pt x="613" y="699" on="1"/>
        <pt x="626" y="699" on="0"/>
        <pt x="641" y="677" on="0"/>
        <pt x="641" y="662" on="1"/>
        <pt x="641" y="625" on="0"/>
        <pt x="613" y="625" on="1"/>
        <pt x="147" y="625" on="1"/>
        <pt x="147" y="429" on="1"/>
        <pt x="523" y="429" on="1"/>
        <pt x="536" y="429" on="0"/>
        <pt x="551" y="407" on="0"/>
        <pt x="551" y="392" on="1"/>
        <pt x="551" y="355" on="0"/>
        <pt x="523" y="355" on="1"/>
        <pt x="147" y="355" on="1"/>
        <pt x="147" y="74" on="1"/>
        <pt x="613" y="74" on="1"/>
        <pt x="626" y="74" on="0"/>
        <pt x="641" y="52" on="0"/>
        <pt x="641" y="37" on="1"/>
        <pt x="641" y="0" on="0"/>
        <pt x="613" y="0" on="1"/>
        <pt x="99" y="0" on="1"/>
        <pt x="82" y="0" on="0"/>
        <pt x="73" y="24" on="0"/>
      </contour>
      <contour>
        <pt x="203" y="891" on="1"/>
        <pt x="203" y="911" on="0"/>
        <pt x="239" y="950" on="0"/>
        <pt x="261" y="950" on="1"/>
        <pt x="304" y="950" on="0"/>
        <pt x="374" y="820" on="0"/>
        <pt x="374" y="774" on="1"/>
        <pt x="374" y="747" on="0"/>
        <pt x="357" y="747" on="1"/>
        <pt x="346" y="747" on="0"/>
        <pt x="295" y="810" on="0"/>
        <pt x="275" y="819" on="1"/>
        <pt x="271" y="821" on="0"/>
        <pt x="246" y="831" on="0"/>
        <pt x="236" y="836" on="0"/>
        <pt x="218" y="849" on="0"/>
        <pt x="210" y="860" on="0"/>
        <pt x="203" y="879" on="0"/>
      </contour>
    </TTGlyph>
    <TTGlyph name="Eth" xMin="17" yMin="-9" xMax="694" yMax="711">
      <contour>
        <pt x="17" y="336" on="1"/>
        <pt x="17" y="351" on="0"/>
        <pt x="31" y="372" on="0"/>
        <pt x="44" y="372" on="1"/>
        <pt x="110" y="372" on="1"/>
        <pt x="110" y="673" on="1"/>
        <pt x="110" y="700" on="0"/>
        <pt x="148" y="700" on="1"/>
        <pt x="163" y="700" on="0"/>
        <pt x="184" y="686" on="0"/>
        <pt x="184" y="673" on="1"/>
        <pt x="184" y="669" on="1"/>
        <pt x="249" y="711" on="0"/>
        <pt x="323" y="711" on="1"/>
        <pt x="473" y="711" on="0"/>
        <pt x="694" y="508" on="0"/>
        <pt x="694" y="355" on="1"/>
        <pt x="694" y="259" on="0"/>
        <pt x="608" y="96" on="0"/>
        <pt x="434" y="-9" on="0"/>
        <pt x="319" y="-9" on="1"/>
        <pt x="242" y="-9" on="0"/>
        <pt x="184" y="28" on="1"/>
        <pt x="184" y="15" on="0"/>
        <pt x="162" y="0" on="0"/>
        <pt x="147" y="0" on="1"/>
        <pt x="110" y="0" on="0"/>
        <pt x="110" y="28" on="1"/>
        <pt x="110" y="298" on="1"/>
        <pt x="44" y="298" on="1"/>
        <pt x="17" y="298" on="0"/>
      </contour>
      <contour>
        <pt x="184" y="124" on="1"/>
        <pt x="239" y="65" on="0"/>
        <pt x="324" y="65" on="1"/>
        <pt x="459" y="65" on="0"/>
        <pt x="619" y="241" on="0"/>
        <pt x="619" y="356" on="1"/>
        <pt x="619" y="468" on="0"/>
        <pt x="456" y="637" on="0"/>
        <pt x="325" y="637" on="1"/>
        <pt x="260" y="637" on="0"/>
        <pt x="184" y="588" on="1"/>
        <pt x="184" y="372" on="1"/>
        <pt x="339" y="372" on="1"/>
        <pt x="352" y="372" on="0"/>
        <pt x="367" y="350" on="0"/>
        <pt x="367" y="335" on="1"/>
        <pt x="367" y="298" on="0"/>
        <pt x="339" y="298" on="1"/>
        <pt x="184" y="298" on="1"/>
      </contour>
    </TTGlyph>
    <TTGlyph name="Euro" xMin="43" yMin="-9" xMax="653" yMax="711">
      <contour>
        <pt x="43" y="266" on="1"/>
        <pt x="43" y="281" on="0"/>
        <pt x="57" y="302" on="0"/>
        <pt x="70" y="302" on="1"/>
        <pt x="81" y="302" on="1"/>
        <pt x="78" y="328" on="0"/>
        <pt x="78" y="355" on="1"/>
        <pt x="78" y="376" on="0"/>
        <pt x="79" y="386" on="1"/>
        <pt x="70" y="386" on="1"/>
        <pt x="43" y="386" on="0"/>
        <pt x="43" y="424" on="1"/>
        <pt x="43" y="439" on="0"/>
        <pt x="57" y="460" on="0"/>
        <pt x="70" y="460" on="1"/>
        <pt x="94" y="460" on="1"/>
        <pt x="129" y="572" on="0"/>
        <pt x="328" y="711" on="0"/>
        <pt x="449" y="711" on="1"/>
        <pt x="539" y="711" on="0"/>
        <pt x="616" y="649" on="1"/>
        <pt x="624" y="642" on="0"/>
        <pt x="624" y="631" on="1"/>
        <pt x="624" y="615" on="0"/>
        <pt x="598" y="588" on="0"/>
        <pt x="584" y="588" on="1"/>
        <pt x="574" y="588" on="0"/>
        <pt x="567" y="595" on="1"/>
        <pt x="519" y="637" on="0"/>
        <pt x="447" y="637" on="1"/>
        <pt x="348" y="637" on="0"/>
        <pt x="205" y="538" on="0"/>
        <pt x="173" y="460" on="1"/>
        <pt x="525" y="460" on="1"/>
        <pt x="538" y="460" on="0"/>
        <pt x="553" y="438" on="0"/>
        <pt x="553" y="423" on="1"/>
        <pt x="553" y="386" on="0"/>
        <pt x="525" y="386" on="1"/>
        <pt x="155" y="386" on="1"/>
        <pt x="153" y="366" on="0"/>
        <pt x="153" y="356" on="1"/>
        <pt x="153" y="324" on="0"/>
        <pt x="158" y="302" on="1"/>
        <pt x="525" y="302" on="1"/>
        <pt x="538" y="302" on="0"/>
        <pt x="553" y="280" on="0"/>
        <pt x="553" y="265" on="1"/>
        <pt x="553" y="228" on="0"/>
        <pt x="525" y="228" on="1"/>
        <pt x="182" y="228" on="1"/>
        <pt x="216" y="155" on="0"/>
        <pt x="353" y="65" on="0"/>
        <pt x="448" y="65" on="1"/>
        <pt x="536" y="65" on="0"/>
        <pt x="591" y="128" on="1"/>
        <pt x="602" y="139" on="0"/>
        <pt x="610" y="139" on="1"/>
        <pt x="625" y="139" on="0"/>
        <pt x="653" y="109" on="0"/>
        <pt x="653" y="95" on="1"/>
        <pt x="653" y="86" on="0"/>
        <pt x="646" y="79" on="1"/>
        <pt x="569" y="-9" on="0"/>
        <pt x="453" y="-9" on="1"/>
        <pt x="321" y="-9" on="0"/>
        <pt x="137" y="123" on="0"/>
        <pt x="100" y="228" on="1"/>
        <pt x="70" y="228" on="1"/>
        <pt x="43" y="228" on="0"/>
      </contour>
    </TTGlyph>
    <TTGlyph name="F" xMin="73" yMin="0" xMax="641" yMax="699">
      <contour>
        <pt x="73" y="28" on="1"/>
        <pt x="73" y="650" on="1"/>
        <pt x="73" y="699" on="0"/>
        <pt x="99" y="699" on="1"/>
        <pt x="613" y="699" on="1"/>
        <pt x="626" y="699" on="0"/>
        <pt x="641" y="677" on="0"/>
        <pt x="641" y="662" on="1"/>
        <pt x="641" y="625" on="0"/>
        <pt x="613" y="625" on="1"/>
        <pt x="147" y="625" on="1"/>
        <pt x="147" y="429" on="1"/>
        <pt x="523" y="429" on="1"/>
        <pt x="536" y="429" on="0"/>
        <pt x="551" y="407" on="0"/>
        <pt x="551" y="392" on="1"/>
        <pt x="551" y="355" on="0"/>
        <pt x="523" y="355" on="1"/>
        <pt x="147" y="355" on="1"/>
        <pt x="147" y="28" on="1"/>
        <pt x="147" y="15" on="0"/>
        <pt x="124" y="0" on="0"/>
        <pt x="109" y="0" on="1"/>
        <pt x="73" y="0" on="0"/>
      </contour>
    </TTGlyph>
    <TTGlyph name="G" xMin="46" yMin="-9" xMax="630" yMax="711">
      <contour>
        <pt x="46" y="355" on="1"/>
        <pt x="46" y="456" on="0"/>
        <pt x="156" y="622" on="0"/>
        <pt x="330" y="711" on="0"/>
        <pt x="427" y="711" on="1"/>
        <pt x="517" y="711" on="0"/>
        <pt x="594" y="649" on="1"/>
        <pt x="602" y="642" on="0"/>
        <pt x="602" y="631" on="1"/>
        <pt x="602" y="615" on="0"/>
        <pt x="576" y="588" on="0"/>
        <pt x="562" y="588" on="1"/>
        <pt x="552" y="588" on="0"/>
        <pt x="545" y="595" on="1"/>
        <pt x="497" y="637" on="0"/>
        <pt x="425" y="637" on="1"/>
        <pt x="293" y="637" on="0"/>
        <pt x="121" y="467" on="0"/>
        <pt x="121" y="356" on="1"/>
        <pt x="121" y="299" on="0"/>
        <pt x="146" y="200" on="0"/>
        <pt x="201" y="115" on="0"/>
        <pt x="302" y="65" on="0"/>
        <pt x="370" y="65" on="1"/>
        <pt x="461" y="65" on="0"/>
        <pt x="558" y="195" on="0"/>
        <pt x="560" y="297" on="1"/>
        <pt x="359" y="297" on="1"/>
        <pt x="332" y="297" on="0"/>
        <pt x="332" y="335" on="1"/>
        <pt x="332" y="350" on="0"/>
        <pt x="346" y="371" on="0"/>
        <pt x="359" y="371" on="1"/>
        <pt x="604" y="371" on="1"/>
        <pt x="620" y="371" on="0"/>
        <pt x="630" y="348" on="0"/>
        <pt x="630" y="322" on="1"/>
        <pt x="630" y="173" on="0"/>
        <pt x="499" y="-9" on="0"/>
        <pt x="385" y="-9" on="1"/>
        <pt x="299" y="-9" on="0"/>
        <pt x="165" y="51" on="0"/>
        <pt x="86" y="155" on="0"/>
        <pt x="46" y="282" on="0"/>
      </contour>
    </TTGlyph>
    <TTGlyph name="H" xMin="73" yMin="0" xMax="645" yMax="700">
      <contour>
        <pt x="73" y="28" on="1"/>
        <pt x="73" y="673" on="1"/>
        <pt x="73" y="700" on="0"/>
        <pt x="111" y="700" on="1"/>
        <pt x="126" y="700" on="0"/>
        <pt x="147" y="686" on="0"/>
        <pt x="147" y="673" on="1"/>
        <pt x="147" y="429" on="1"/>
        <pt x="571" y="429" on="1"/>
        <pt x="571" y="673" on="1"/>
        <pt x="571" y="700" on="0"/>
        <pt x="609" y="700" on="1"/>
        <pt x="624" y="700" on="0"/>
        <pt x="645" y="686" on="0"/>
        <pt x="645" y="673" on="1"/>
        <pt x="645" y="28" on="1"/>
        <pt x="645" y="15" on="0"/>
        <pt x="623" y="0" on="0"/>
        <pt x="608" y="0" on="1"/>
        <pt x="571" y="0" on="0"/>
        <pt x="571" y="28" on="1"/>
        <pt x="571" y="355" on="1"/>
        <pt x="147" y="355" on="1"/>
        <pt x="147" y="28" on="1"/>
        <pt x="147" y="15" on="0"/>
        <pt x="125" y="0" on="0"/>
        <pt x="110" y="0" on="1"/>
        <pt x="73" y="0" on="0"/>
      </contour>
    </TTGlyph>
    <TTGlyph name="I" xMin="73" yMin="0" xMax="147" yMax="700">
      <contour>
        <pt x="73" y="28" on="1"/>
        <pt x="73" y="673" on="1"/>
        <pt x="73" y="700" on="0"/>
        <pt x="111" y="700" on="1"/>
        <pt x="126" y="700" on="0"/>
        <pt x="147" y="686" on="0"/>
        <pt x="147" y="673" on="1"/>
        <pt x="147" y="28" on="1"/>
        <pt x="147" y="15" on="0"/>
        <pt x="125" y="0" on="0"/>
        <pt x="110" y="0" on="1"/>
        <pt x="73" y="0" on="0"/>
      </contour>
    </TTGlyph>
    <TTGlyph name="Iacute" xMin="73" yMin="0" xMax="252" yMax="950">
      <contour>
        <pt x="73" y="28" on="1"/>
        <pt x="73" y="673" on="1"/>
        <pt x="73" y="700" on="0"/>
        <pt x="111" y="700" on="1"/>
        <pt x="126" y="700" on="0"/>
        <pt x="147" y="686" on="0"/>
        <pt x="147" y="673" on="1"/>
        <pt x="147" y="28" on="1"/>
        <pt x="147" y="15" on="0"/>
        <pt x="125" y="0" on="0"/>
        <pt x="110" y="0" on="1"/>
        <pt x="73" y="0" on="0"/>
      </contour>
      <contour>
        <pt x="81" y="774" on="1"/>
        <pt x="81" y="820" on="0"/>
        <pt x="151" y="950" on="0"/>
        <pt x="194" y="950" on="1"/>
        <pt x="216" y="950" on="0"/>
        <pt x="252" y="911" on="0"/>
        <pt x="252" y="891" on="1"/>
        <pt x="252" y="879" on="0"/>
        <pt x="245" y="860" on="0"/>
        <pt x="237" y="849" on="0"/>
        <pt x="219" y="836" on="0"/>
        <pt x="209" y="831" on="0"/>
        <pt x="184" y="821" on="0"/>
        <pt x="180" y="819" on="1"/>
        <pt x="160" y="810" on="0"/>
        <pt x="109" y="747" on="0"/>
        <pt x="98" y="747" on="1"/>
        <pt x="81" y="747" on="0"/>
      </contour>
    </TTGlyph>
    <TTGlyph name="Icircumflex" xMin="-56" yMin="0" xMax="277" yMax="950">
      <contour>
        <pt x="-56" y="786" on="1"/>
        <pt x="-56" y="792" on="0"/>
        <pt x="-52" y="797" on="1"/>
        <pt x="63" y="915" on="1"/>
        <pt x="66" y="918" on="0"/>
        <pt x="77" y="930" on="0"/>
        <pt x="83" y="935" on="0"/>
        <pt x="92" y="943" on="0"/>
        <pt x="98" y="947" on="0"/>
        <pt x="106" y="950" on="0"/>
        <pt x="114" y="950" on="0"/>
        <pt x="123" y="946" on="0"/>
        <pt x="134" y="938" on="0"/>
        <pt x="140" y="931" on="0"/>
        <pt x="146" y="924" on="1"/>
        <pt x="156" y="915" on="1"/>
        <pt x="273" y="797" on="1"/>
        <pt x="277" y="793" on="0"/>
        <pt x="277" y="786" on="1"/>
        <pt x="277" y="773" on="0"/>
        <pt x="248" y="751" on="0"/>
        <pt x="235" y="751" on="1"/>
        <pt x="220" y="751" on="0"/>
        <pt x="206" y="765" on="1"/>
        <pt x="110" y="850" on="1"/>
        <pt x="15" y="765" on="1"/>
        <pt x="2" y="752" on="0"/>
        <pt x="-28" y="752" on="0"/>
        <pt x="-56" y="773" on="0"/>
      </contour>
      <contour>
        <pt x="73" y="28" on="1"/>
        <pt x="73" y="673" on="1"/>
        <pt x="73" y="700" on="0"/>
        <pt x="111" y="700" on="1"/>
        <pt x="126" y="700" on="0"/>
        <pt x="147" y="686" on="0"/>
        <pt x="147" y="673" on="1"/>
        <pt x="147" y="28" on="1"/>
        <pt x="147" y="15" on="0"/>
        <pt x="125" y="0" on="0"/>
        <pt x="110" y="0" on="1"/>
        <pt x="73" y="0" on="0"/>
      </contour>
    </TTGlyph>
    <TTGlyph name="Idieresis" xMin="-81" yMin="0" xMax="302" yMax="896">
      <contour>
        <pt x="-81" y="820" on="1"/>
        <pt x="-81" y="848" on="1"/>
        <pt x="-81" y="870" on="0"/>
        <pt x="-44" y="896" on="0"/>
        <pt x="-13" y="896" on="1"/>
        <pt x="14" y="896" on="0"/>
        <pt x="52" y="871" on="0"/>
        <pt x="52" y="848" on="1"/>
        <pt x="52" y="820" on="1"/>
        <pt x="52" y="797" on="0"/>
        <pt x="12" y="770" on="0"/>
        <pt x="-14" y="770" on="1"/>
        <pt x="-45" y="770" on="0"/>
        <pt x="-81" y="797" on="0"/>
      </contour>
      <contour>
        <pt x="73" y="28" on="1"/>
        <pt x="73" y="673" on="1"/>
        <pt x="73" y="700" on="0"/>
        <pt x="111" y="700" on="1"/>
        <pt x="126" y="700" on="0"/>
        <pt x="147" y="686" on="0"/>
        <pt x="147" y="673" on="1"/>
        <pt x="147" y="28" on="1"/>
        <pt x="147" y="15" on="0"/>
        <pt x="125" y="0" on="0"/>
        <pt x="110" y="0" on="1"/>
        <pt x="73" y="0" on="0"/>
      </contour>
      <contour>
        <pt x="169" y="820" on="1"/>
        <pt x="169" y="848" on="1"/>
        <pt x="169" y="870" on="0"/>
        <pt x="206" y="896" on="0"/>
        <pt x="237" y="896" on="1"/>
        <pt x="264" y="896" on="0"/>
        <pt x="302" y="871" on="0"/>
        <pt x="302" y="848" on="1"/>
        <pt x="302" y="820" on="1"/>
        <pt x="302" y="797" on="0"/>
        <pt x="262" y="770" on="0"/>
        <pt x="236" y="770" on="1"/>
        <pt x="205" y="770" on="0"/>
        <pt x="169" y="797" on="0"/>
      </contour>
    </TTGlyph>
    <TTGlyph name="Igrave" xMin="-24" yMin="0" xMax="147" yMax="950">
      <contour>
        <pt x="-24" y="891" on="1"/>
        <pt x="-24" y="911" on="0"/>
        <pt x="12" y="950" on="0"/>
        <pt x="34" y="950" on="1"/>
        <pt x="77" y="950" on="0"/>
        <pt x="147" y="820" on="0"/>
        <pt x="147" y="774" on="1"/>
        <pt x="147" y="747" on="0"/>
        <pt x="130" y="747" on="1"/>
        <pt x="119" y="747" on="0"/>
        <pt x="68" y="810" on="0"/>
        <pt x="48" y="819" on="1"/>
        <pt x="44" y="821" on="0"/>
        <pt x="19" y="831" on="0"/>
        <pt x="9" y="836" on="0"/>
        <pt x="-9" y="849" on="0"/>
        <pt x="-17" y="860" on="0"/>
        <pt x="-24" y="879" on="0"/>
      </contour>
      <contour>
        <pt x="73" y="28" on="1"/>
        <pt x="73" y="673" on="1"/>
        <pt x="73" y="700" on="0"/>
        <pt x="111" y="700" on="1"/>
        <pt x="126" y="700" on="0"/>
        <pt x="147" y="686" on="0"/>
        <pt x="147" y="673" on="1"/>
        <pt x="147" y="28" on="1"/>
        <pt x="147" y="15" on="0"/>
        <pt x="125" y="0" on="0"/>
        <pt x="110" y="0" on="1"/>
        <pt x="73" y="0" on="0"/>
      </contour>
    </TTGlyph>
    <TTGlyph name="J" xMin="13" yMin="-3" xMax="436" yMax="700">
      <contour>
        <pt x="13" y="137" on="1"/>
        <pt x="13" y="153" on="0"/>
        <pt x="34" y="170" on="0"/>
        <pt x="49" y="170" on="1"/>
        <pt x="65" y="170" on="0"/>
        <pt x="89" y="152" on="0"/>
        <pt x="89" y="138" on="1"/>
        <pt x="89" y="106" on="0"/>
        <pt x="169" y="71" on="0"/>
        <pt x="208" y="71" on="1"/>
        <pt x="263" y="71" on="0"/>
        <pt x="362" y="159" on="0"/>
        <pt x="362" y="240" on="1"/>
        <pt x="362" y="673" on="1"/>
        <pt x="362" y="700" on="0"/>
        <pt x="400" y="700" on="1"/>
        <pt x="415" y="700" on="0"/>
        <pt x="436" y="686" on="0"/>
        <pt x="436" y="673" on="1"/>
        <pt x="436" y="247" on="1"/>
        <pt x="436" y="131" on="0"/>
        <pt x="290" y="-3" on="0"/>
        <pt x="203" y="-3" on="1"/>
        <pt x="139" y="-3" on="0"/>
        <pt x="14" y="73" on="0"/>
      </contour>
    </TTGlyph>
    <TTGlyph name="K" xMin="73" yMin="0" xMax="635" yMax="700">
      <contour>
        <pt x="73" y="28" on="1"/>
        <pt x="73" y="673" on="1"/>
        <pt x="73" y="700" on="0"/>
        <pt x="111" y="700" on="1"/>
        <pt x="126" y="700" on="0"/>
        <pt x="147" y="686" on="0"/>
        <pt x="147" y="673" on="1"/>
        <pt x="147" y="342" on="1"/>
        <pt x="507" y="691" on="1"/>
        <pt x="516" y="700" on="0"/>
        <pt x="527" y="700" on="1"/>
        <pt x="542" y="700" on="0"/>
        <pt x="569" y="673" on="0"/>
        <pt x="569" y="658" on="1"/>
        <pt x="569" y="648" on="0"/>
        <pt x="562" y="641" on="1"/>
        <pt x="301" y="389" on="1"/>
        <pt x="631" y="51" on="1"/>
        <pt x="635" y="47" on="0"/>
        <pt x="635" y="37" on="1"/>
        <pt x="635" y="23" on="0"/>
        <pt x="605" y="0" on="0"/>
        <pt x="589" y="0" on="1"/>
        <pt x="579" y="0" on="0"/>
        <pt x="567" y="12" on="1"/>
        <pt x="246" y="336" on="1"/>
        <pt x="147" y="240" on="1"/>
        <pt x="147" y="28" on="1"/>
        <pt x="147" y="15" on="0"/>
        <pt x="125" y="0" on="0"/>
        <pt x="110" y="0" on="1"/>
        <pt x="73" y="0" on="0"/>
      </contour>
    </TTGlyph>
    <TTGlyph name="L" xMin="73" yMin="0" xMax="503" yMax="700">
      <contour>
        <pt x="73" y="28" on="1"/>
        <pt x="73" y="673" on="1"/>
        <pt x="73" y="700" on="0"/>
        <pt x="111" y="700" on="1"/>
        <pt x="126" y="700" on="0"/>
        <pt x="147" y="686" on="0"/>
        <pt x="147" y="673" on="1"/>
        <pt x="147" y="73" on="1"/>
        <pt x="475" y="73" on="1"/>
        <pt x="488" y="73" on="0"/>
        <pt x="503" y="51" on="0"/>
        <pt x="503" y="36" on="1"/>
        <pt x="503" y="0" on="0"/>
        <pt x="475" y="0" on="1"/>
        <pt x="131" y="0" on="1"/>
        <pt x="73" y="0" on="0"/>
      </contour>
    </TTGlyph>
    <TTGlyph name="M" xMin="73" yMin="0" xMax="701" yMax="703">
      <contour>
        <pt x="73" y="28" on="1"/>
        <pt x="73" y="673" on="1"/>
        <pt x="73" y="686" on="0"/>
        <pt x="104" y="703" on="0"/>
        <pt x="123" y="703" on="1"/>
        <pt x="144" y="703" on="0"/>
        <pt x="151" y="691" on="1"/>
        <pt x="387" y="342" on="1"/>
        <pt x="624" y="691" on="1"/>
        <pt x="631" y="703" on="0"/>
        <pt x="667" y="703" on="0"/>
        <pt x="701" y="685" on="0"/>
        <pt x="701" y="673" on="1"/>
        <pt x="701" y="28" on="1"/>
        <pt x="701" y="15" on="0"/>
        <pt x="679" y="0" on="0"/>
        <pt x="664" y="0" on="1"/>
        <pt x="627" y="0" on="0"/>
        <pt x="627" y="28" on="1"/>
        <pt x="627" y="565" on="1"/>
        <pt x="445" y="301" on="1"/>
        <pt x="421" y="266" on="0"/>
        <pt x="386" y="266" on="1"/>
        <pt x="354" y="266" on="0"/>
        <pt x="329" y="301" on="1"/>
        <pt x="147" y="565" on="1"/>
        <pt x="147" y="28" on="1"/>
        <pt x="147" y="15" on="0"/>
        <pt x="125" y="0" on="0"/>
        <pt x="110" y="0" on="1"/>
        <pt x="73" y="0" on="0"/>
      </contour>
    </TTGlyph>
    <TTGlyph name="N" xMin="73" yMin="0" xMax="645" yMax="700">
      <contour>
        <pt x="73" y="28" on="1"/>
        <pt x="73" y="673" on="1"/>
        <pt x="73" y="700" on="0"/>
        <pt x="103" y="700" on="1"/>
        <pt x="125" y="700" on="0"/>
        <pt x="146" y="681" on="1"/>
        <pt x="571" y="307" on="1"/>
        <pt x="571" y="673" on="1"/>
        <pt x="571" y="700" on="0"/>
        <pt x="609" y="700" on="1"/>
        <pt x="624" y="700" on="0"/>
        <pt x="645" y="686" on="0"/>
        <pt x="645" y="673" on="1"/>
        <pt x="645" y="28" on="1"/>
        <pt x="645" y="15" on="0"/>
        <pt x="623" y="0" on="0"/>
        <pt x="608" y="0" on="1"/>
        <pt x="571" y="0" on="0"/>
        <pt x="571" y="28" on="1"/>
        <pt x="571" y="210" on="1"/>
        <pt x="147" y="583" on="1"/>
        <pt x="147" y="28" on="1"/>
        <pt x="147" y="15" on="0"/>
        <pt x="125" y="0" on="0"/>
        <pt x="110" y="0" on="1"/>
        <pt x="73" y="0" on="0"/>
      </contour>
    </TTGlyph>
    <TTGlyph name="Ntilde" xMin="73" yMin="0" xMax="645" yMax="898">
      <contour>
        <pt x="73" y="28" on="1"/>
        <pt x="73" y="673" on="1"/>
        <pt x="73" y="700" on="0"/>
        <pt x="103" y="700" on="1"/>
        <pt x="125" y="700" on="0"/>
        <pt x="146" y="681" on="1"/>
        <pt x="571" y="307" on="1"/>
        <pt x="571" y="673" on="1"/>
        <pt x="571" y="700" on="0"/>
        <pt x="609" y="700" on="1"/>
        <pt x="624" y="700" on="0"/>
        <pt x="645" y="686" on="0"/>
        <pt x="645" y="673" on="1"/>
        <pt x="645" y="28" on="1"/>
        <pt x="645" y="15" on="0"/>
        <pt x="623" y="0" on="0"/>
        <pt x="608" y="0" on="1"/>
        <pt x="571" y="0" on="0"/>
        <pt x="571" y="28" on="1"/>
        <pt x="571" y="210" on="1"/>
        <pt x="147" y="583" on="1"/>
        <pt x="147" y="28" on="1"/>
        <pt x="147" y="15" on="0"/>
        <pt x="125" y="0" on="0"/>
        <pt x="110" y="0" on="1"/>
        <pt x="73" y="0" on="0"/>
      </contour>
      <contour>
        <pt x="155" y="798" on="1"/>
        <pt x="155" y="840" on="0"/>
        <pt x="226" y="898" on="0"/>
        <pt x="273" y="898" on="1"/>
        <pt x="296" y="898" on="0"/>
        <pt x="337" y="883" on="0"/>
        <pt x="357" y="869" on="0"/>
        <pt x="376" y="853" on="1"/>
        <pt x="413" y="825" on="0"/>
        <pt x="441" y="825" on="1"/>
        <pt x="470" y="825" on="0"/>
        <pt x="510" y="855" on="0"/>
        <pt x="510" y="876" on="1"/>
        <pt x="510" y="886" on="0"/>
        <pt x="527" y="898" on="0"/>
        <pt x="538" y="898" on="1"/>
        <pt x="563" y="898" on="0"/>
        <pt x="563" y="855" on="1"/>
        <pt x="562" y="813" on="0"/>
        <pt x="492" y="755" on="0"/>
        <pt x="445" y="755" on="1"/>
        <pt x="408" y="755" on="0"/>
        <pt x="378" y="771" on="1"/>
        <pt x="365" y="778" on="0"/>
        <pt x="327" y="810" on="0"/>
        <pt x="295" y="828" on="0"/>
        <pt x="277" y="828" on="1"/>
        <pt x="248" y="828" on="0"/>
        <pt x="208" y="798" on="0"/>
        <pt x="208" y="777" on="1"/>
        <pt x="208" y="767" on="0"/>
        <pt x="191" y="755" on="0"/>
        <pt x="180" y="755" on="1"/>
        <pt x="155" y="755" on="0"/>
      </contour>
    </TTGlyph>
    <TTGlyph name="O" xMin="48" yMin="-5" xMax="618" yMax="705">
      <contour>
        <pt x="48" y="348" on="1"/>
        <pt x="48" y="501" on="0"/>
        <pt x="219" y="705" on="0"/>
        <pt x="455" y="705" on="0"/>
        <pt x="618" y="496" on="0"/>
        <pt x="618" y="351" on="1"/>
        <pt x="618" y="191" on="0"/>
        <pt x="459" y="-4" on="0"/>
        <pt x="337" y="-5" on="1"/>
        <pt x="219" y="-5" on="0"/>
        <pt x="48" y="193" on="0"/>
      </contour>
      <contour>
        <pt x="122" y="347" on="1"/>
        <pt x="122" y="233" on="0"/>
        <pt x="249" y="69" on="0"/>
        <pt x="337" y="69" on="1"/>
        <pt x="424" y="69" on="0"/>
        <pt x="544" y="234" on="0"/>
        <pt x="544" y="349" on="1"/>
        <pt x="544" y="459" on="0"/>
        <pt x="423" y="631" on="0"/>
        <pt x="337" y="631" on="1"/>
        <pt x="249" y="631" on="0"/>
        <pt x="122" y="457" on="0"/>
      </contour>
    </TTGlyph>
    <TTGlyph name="OE" xMin="46" yMin="0" xMax="684" yMax="699">
      <contour>
        <pt x="46" y="348" on="1"/>
        <pt x="46" y="424" on="0"/>
        <pt x="103" y="558" on="0"/>
        <pt x="193" y="647" on="0"/>
        <pt x="306" y="699" on="0"/>
        <pt x="362" y="699" on="1"/>
        <pt x="656" y="699" on="1"/>
        <pt x="669" y="699" on="0"/>
        <pt x="684" y="677" on="0"/>
        <pt x="684" y="662" on="1"/>
        <pt x="684" y="625" on="0"/>
        <pt x="656" y="625" on="1"/>
        <pt x="410" y="625" on="1"/>
        <pt x="410" y="429" on="1"/>
        <pt x="566" y="429" on="1"/>
        <pt x="579" y="429" on="0"/>
        <pt x="594" y="407" on="0"/>
        <pt x="594" y="392" on="1"/>
        <pt x="594" y="355" on="0"/>
        <pt x="566" y="355" on="1"/>
        <pt x="410" y="355" on="1"/>
        <pt x="410" y="74" on="1"/>
        <pt x="656" y="74" on="1"/>
        <pt x="669" y="74" on="0"/>
        <pt x="684" y="52" on="0"/>
        <pt x="684" y="37" on="1"/>
        <pt x="684" y="0" on="0"/>
        <pt x="656" y="0" on="1"/>
        <pt x="362" y="0" on="1"/>
        <pt x="355" y="1" on="1"/>
        <pt x="298" y="9" on="0"/>
        <pt x="190" y="62" on="0"/>
        <pt x="100" y="146" on="0"/>
        <pt x="46" y="273" on="0"/>
      </contour>
      <contour>
        <pt x="120" y="347" on="1"/>
        <pt x="120" y="246" on="0"/>
        <pt x="251" y="90" on="0"/>
        <pt x="336" y="76" on="1"/>
        <pt x="336" y="622" on="1"/>
        <pt x="252" y="607" on="0"/>
        <pt x="120" y="444" on="0"/>
      </contour>
    </TTGlyph>
    <TTGlyph name="Oacute" xMin="48" yMin="-5" xMax="618" yMax="950">
      <contour>
        <pt x="48" y="348" on="1"/>
        <pt x="48" y="501" on="0"/>
        <pt x="219" y="705" on="0"/>
        <pt x="455" y="705" on="0"/>
        <pt x="618" y="496" on="0"/>
        <pt x="618" y="351" on="1"/>
        <pt x="618" y="191" on="0"/>
        <pt x="459" y="-4" on="0"/>
        <pt x="337" y="-5" on="1"/>
        <pt x="219" y="-5" on="0"/>
        <pt x="48" y="193" on="0"/>
      </contour>
      <contour>
        <pt x="122" y="347" on="1"/>
        <pt x="122" y="233" on="0"/>
        <pt x="249" y="69" on="0"/>
        <pt x="337" y="69" on="1"/>
        <pt x="424" y="69" on="0"/>
        <pt x="544" y="234" on="0"/>
        <pt x="544" y="349" on="1"/>
        <pt x="544" y="459" on="0"/>
        <pt x="423" y="631" on="0"/>
        <pt x="337" y="631" on="1"/>
        <pt x="249" y="631" on="0"/>
        <pt x="122" y="457" on="0"/>
      </contour>
      <contour>
        <pt x="305" y="774" on="1"/>
        <pt x="305" y="820" on="0"/>
        <pt x="375" y="950" on="0"/>
        <pt x="418" y="950" on="1"/>
        <pt x="440" y="950" on="0"/>
        <pt x="476" y="911" on="0"/>
        <pt x="476" y="891" on="1"/>
        <pt x="476" y="879" on="0"/>
        <pt x="469" y="860" on="0"/>
        <pt x="461" y="849" on="0"/>
        <pt x="443" y="836" on="0"/>
        <pt x="433" y="831" on="0"/>
        <pt x="408" y="821" on="0"/>
        <pt x="404" y="819" on="1"/>
        <pt x="384" y="810" on="0"/>
        <pt x="333" y="747" on="0"/>
        <pt x="322" y="747" on="1"/>
        <pt x="305" y="747" on="0"/>
      </contour>
    </TTGlyph>
    <TTGlyph name="Ocircumflex" xMin="48" yMin="-5" xMax="618" yMax="950">
      <contour>
        <pt x="48" y="348" on="1"/>
        <pt x="48" y="501" on="0"/>
        <pt x="219" y="705" on="0"/>
        <pt x="455" y="705" on="0"/>
        <pt x="618" y="496" on="0"/>
        <pt x="618" y="351" on="1"/>
        <pt x="618" y="191" on="0"/>
        <pt x="459" y="-4" on="0"/>
        <pt x="337" y="-5" on="1"/>
        <pt x="219" y="-5" on="0"/>
        <pt x="48" y="193" on="0"/>
      </contour>
      <contour>
        <pt x="122" y="347" on="1"/>
        <pt x="122" y="233" on="0"/>
        <pt x="249" y="69" on="0"/>
        <pt x="337" y="69" on="1"/>
        <pt x="424" y="69" on="0"/>
        <pt x="544" y="234" on="0"/>
        <pt x="544" y="349" on="1"/>
        <pt x="544" y="459" on="0"/>
        <pt x="423" y="631" on="0"/>
        <pt x="337" y="631" on="1"/>
        <pt x="249" y="631" on="0"/>
        <pt x="122" y="457" on="0"/>
      </contour>
      <contour>
        <pt x="166" y="786" on="1"/>
        <pt x="166" y="792" on="0"/>
        <pt x="170" y="797" on="1"/>
        <pt x="285" y="915" on="1"/>
        <pt x="288" y="918" on="0"/>
        <pt x="299" y="930" on="0"/>
        <pt x="305" y="935" on="0"/>
        <pt x="314" y="943" on="0"/>
        <pt x="320" y="947" on="0"/>
        <pt x="328" y="950" on="0"/>
        <pt x="336" y="950" on="0"/>
        <pt x="345" y="946" on="0"/>
        <pt x="356" y="938" on="0"/>
        <pt x="362" y="931" on="0"/>
        <pt x="368" y="924" on="1"/>
        <pt x="378" y="915" on="1"/>
        <pt x="495" y="797" on="1"/>
        <pt x="499" y="793" on="0"/>
        <pt x="499" y="786" on="1"/>
        <pt x="499" y="773" on="0"/>
        <pt x="470" y="751" on="0"/>
        <pt x="457" y="751" on="1"/>
        <pt x="442" y="751" on="0"/>
        <pt x="428" y="765" on="1"/>
        <pt x="332" y="850" on="1"/>
        <pt x="237" y="765" on="1"/>
        <pt x="224" y="752" on="0"/>
        <pt x="194" y="752" on="0"/>
        <pt x="166" y="773" on="0"/>
      </contour>
    </TTGlyph>
    <TTGlyph name="Odieresis" xMin="48" yMin="-5" xMax="618" yMax="896">
      <contour>
        <pt x="48" y="348" on="1"/>
        <pt x="48" y="501" on="0"/>
        <pt x="219" y="705" on="0"/>
        <pt x="455" y="705" on="0"/>
        <pt x="618" y="496" on="0"/>
        <pt x="618" y="351" on="1"/>
        <pt x="618" y="191" on="0"/>
        <pt x="459" y="-4" on="0"/>
        <pt x="337" y="-5" on="1"/>
        <pt x="219" y="-5" on="0"/>
        <pt x="48" y="193" on="0"/>
      </contour>
      <contour>
        <pt x="122" y="347" on="1"/>
        <pt x="122" y="233" on="0"/>
        <pt x="249" y="69" on="0"/>
        <pt x="337" y="69" on="1"/>
        <pt x="424" y="69" on="0"/>
        <pt x="544" y="234" on="0"/>
        <pt x="544" y="349" on="1"/>
        <pt x="544" y="459" on="0"/>
        <pt x="423" y="631" on="0"/>
        <pt x="337" y="631" on="1"/>
        <pt x="249" y="631" on="0"/>
        <pt x="122" y="457" on="0"/>
      </contour>
      <contour>
        <pt x="142" y="820" on="1"/>
        <pt x="142" y="848" on="1"/>
        <pt x="142" y="870" on="0"/>
        <pt x="179" y="896" on="0"/>
        <pt x="210" y="896" on="1"/>
        <pt x="237" y="896" on="0"/>
        <pt x="275" y="871" on="0"/>
        <pt x="275" y="848" on="1"/>
        <pt x="275" y="820" on="1"/>
        <pt x="275" y="797" on="0"/>
        <pt x="235" y="770" on="0"/>
        <pt x="209" y="770" on="1"/>
        <pt x="178" y="770" on="0"/>
        <pt x="142" y="797" on="0"/>
      </contour>
      <contour>
        <pt x="392" y="820" on="1"/>
        <pt x="392" y="848" on="1"/>
        <pt x="392" y="870" on="0"/>
        <pt x="429" y="896" on="0"/>
        <pt x="460" y="896" on="1"/>
        <pt x="487" y="896" on="0"/>
        <pt x="525" y="871" on="0"/>
        <pt x="525" y="848" on="1"/>
        <pt x="525" y="820" on="1"/>
        <pt x="525" y="797" on="0"/>
        <pt x="485" y="770" on="0"/>
        <pt x="459" y="770" on="1"/>
        <pt x="428" y="770" on="0"/>
        <pt x="392" y="797" on="0"/>
      </contour>
    </TTGlyph>
    <TTGlyph name="Ograve" xMin="48" yMin="-5" xMax="618" yMax="950">
      <contour>
        <pt x="48" y="348" on="1"/>
        <pt x="48" y="501" on="0"/>
        <pt x="219" y="705" on="0"/>
        <pt x="455" y="705" on="0"/>
        <pt x="618" y="496" on="0"/>
        <pt x="618" y="351" on="1"/>
        <pt x="618" y="191" on="0"/>
        <pt x="459" y="-4" on="0"/>
        <pt x="337" y="-5" on="1"/>
        <pt x="219" y="-5" on="0"/>
        <pt x="48" y="193" on="0"/>
      </contour>
      <contour>
        <pt x="122" y="347" on="1"/>
        <pt x="122" y="233" on="0"/>
        <pt x="249" y="69" on="0"/>
        <pt x="337" y="69" on="1"/>
        <pt x="424" y="69" on="0"/>
        <pt x="544" y="234" on="0"/>
        <pt x="544" y="349" on="1"/>
        <pt x="544" y="459" on="0"/>
        <pt x="423" y="631" on="0"/>
        <pt x="337" y="631" on="1"/>
        <pt x="249" y="631" on="0"/>
        <pt x="122" y="457" on="0"/>
      </contour>
      <contour>
        <pt x="191" y="891" on="1"/>
        <pt x="191" y="911" on="0"/>
        <pt x="227" y="950" on="0"/>
        <pt x="249" y="950" on="1"/>
        <pt x="292" y="950" on="0"/>
        <pt x="362" y="820" on="0"/>
        <pt x="362" y="774" on="1"/>
        <pt x="362" y="747" on="0"/>
        <pt x="345" y="747" on="1"/>
        <pt x="334" y="747" on="0"/>
        <pt x="283" y="810" on="0"/>
        <pt x="263" y="819" on="1"/>
        <pt x="259" y="821" on="0"/>
        <pt x="234" y="831" on="0"/>
        <pt x="224" y="836" on="0"/>
        <pt x="206" y="849" on="0"/>
        <pt x="198" y="860" on="0"/>
        <pt x="191" y="879" on="0"/>
      </contour>
    </TTGlyph>
    <TTGlyph name="Oslash" xMin="15" yMin="-5" xMax="666" yMax="705">
      <contour>
        <pt x="15" y="35" on="1"/>
        <pt x="15" y="52" on="0"/>
        <pt x="31" y="72" on="1"/>
        <pt x="103" y="150" on="1"/>
        <pt x="56" y="236" on="0"/>
        <pt x="56" y="348" on="1"/>
        <pt x="56" y="501" on="0"/>
        <pt x="227" y="705" on="0"/>
        <pt x="345" y="705" on="1"/>
        <pt x="450" y="705" on="0"/>
        <pt x="530" y="617" on="1"/>
        <pt x="602" y="695" on="1"/>
        <pt x="610" y="704" on="0"/>
        <pt x="622" y="704" on="1"/>
        <pt x="638" y="704" on="0"/>
        <pt x="666" y="680" on="0"/>
        <pt x="666" y="668" on="1"/>
        <pt x="666" y="657" on="0"/>
        <pt x="655" y="643" on="1"/>
        <pt x="574" y="555" on="1"/>
        <pt x="626" y="462" on="0"/>
        <pt x="626" y="351" on="1"/>
        <pt x="626" y="191" on="0"/>
        <pt x="467" y="-4" on="0"/>
        <pt x="345" y="-5" on="1"/>
        <pt x="230" y="-5" on="0"/>
        <pt x="147" y="87" on="1"/>
        <pt x="77" y="10" on="1"/>
        <pt x="68" y="0" on="0"/>
        <pt x="54" y="0" on="1"/>
        <pt x="39" y="0" on="0"/>
        <pt x="15" y="20" on="0"/>
      </contour>
      <contour>
        <pt x="130" y="347" on="1"/>
        <pt x="130" y="274" on="0"/>
        <pt x="158" y="210" on="1"/>
        <pt x="479" y="561" on="1"/>
        <pt x="419" y="631" on="0"/>
        <pt x="345" y="631" on="1"/>
        <pt x="257" y="631" on="0"/>
        <pt x="130" y="457" on="0"/>
      </contour>
      <contour>
        <pt x="199" y="143" on="1"/>
        <pt x="260" y="69" on="0"/>
        <pt x="345" y="69" on="1"/>
        <pt x="432" y="69" on="0"/>
        <pt x="552" y="234" on="0"/>
        <pt x="552" y="349" on="1"/>
        <pt x="552" y="425" on="0"/>
        <pt x="520" y="495" on="1"/>
      </contour>
    </TTGlyph>
    <TTGlyph name="Otilde" xMin="48" yMin="-5" xMax="618" yMax="898">
      <contour>
        <pt x="48" y="348" on="1"/>
        <pt x="48" y="501" on="0"/>
        <pt x="219" y="705" on="0"/>
        <pt x="455" y="705" on="0"/>
        <pt x="618" y="496" on="0"/>
        <pt x="618" y="351" on="1"/>
        <pt x="618" y="191" on="0"/>
        <pt x="459" y="-4" on="0"/>
        <pt x="337" y="-5" on="1"/>
        <pt x="219" y="-5" on="0"/>
        <pt x="48" y="193" on="0"/>
      </contour>
      <contour>
        <pt x="122" y="347" on="1"/>
        <pt x="122" y="233" on="0"/>
        <pt x="249" y="69" on="0"/>
        <pt x="337" y="69" on="1"/>
        <pt x="424" y="69" on="0"/>
        <pt x="544" y="234" on="0"/>
        <pt x="544" y="349" on="1"/>
        <pt x="544" y="459" on="0"/>
        <pt x="423" y="631" on="0"/>
        <pt x="337" y="631" on="1"/>
        <pt x="249" y="631" on="0"/>
        <pt x="122" y="457" on="0"/>
      </contour>
      <contour>
        <pt x="129" y="798" on="1"/>
        <pt x="129" y="840" on="0"/>
        <pt x="200" y="898" on="0"/>
        <pt x="247" y="898" on="1"/>
        <pt x="270" y="898" on="0"/>
        <pt x="311" y="883" on="0"/>
        <pt x="331" y="869" on="0"/>
        <pt x="350" y="853" on="1"/>
        <pt x="387" y="825" on="0"/>
        <pt x="415" y="825" on="1"/>
        <pt x="444" y="825" on="0"/>
        <pt x="484" y="855" on="0"/>
        <pt x="484" y="876" on="1"/>
        <pt x="484" y="886" on="0"/>
        <pt x="501" y="898" on="0"/>
        <pt x="512" y="898" on="1"/>
        <pt x="537" y="898" on="0"/>
        <pt x="537" y="855" on="1"/>
        <pt x="536" y="813" on="0"/>
        <pt x="466" y="755" on="0"/>
        <pt x="419" y="755" on="1"/>
        <pt x="382" y="755" on="0"/>
        <pt x="352" y="771" on="1"/>
        <pt x="339" y="778" on="0"/>
        <pt x="301" y="810" on="0"/>
        <pt x="269" y="828" on="0"/>
        <pt x="251" y="828" on="1"/>
        <pt x="222" y="828" on="0"/>
        <pt x="182" y="798" on="0"/>
        <pt x="182" y="777" on="1"/>
        <pt x="182" y="767" on="0"/>
        <pt x="165" y="755" on="0"/>
        <pt x="154" y="755" on="1"/>
        <pt x="129" y="755" on="0"/>
      </contour>
    </TTGlyph>
    <TTGlyph name="P" xMin="73" yMin="0" xMax="608" yMax="701">
      <contour>
        <pt x="73" y="27" on="1"/>
        <pt x="73" y="672" on="1"/>
        <pt x="73" y="700" on="0"/>
        <pt x="110" y="700" on="1"/>
        <pt x="145" y="700" on="0"/>
        <pt x="145" y="657" on="1"/>
        <pt x="248" y="701" on="0"/>
        <pt x="344" y="701" on="1"/>
        <pt x="480" y="701" on="0"/>
        <pt x="608" y="571" on="0"/>
        <pt x="608" y="472" on="1"/>
        <pt x="608" y="360" on="0"/>
        <pt x="434" y="262" on="0"/>
        <pt x="268" y="262" on="1"/>
        <pt x="248" y="262" on="0"/>
        <pt x="167" y="268" on="0"/>
        <pt x="147" y="268" on="1"/>
        <pt x="147" y="27" on="1"/>
        <pt x="147" y="14" on="0"/>
        <pt x="126" y="0" on="0"/>
        <pt x="111" y="0" on="1"/>
        <pt x="73" y="0" on="0"/>
      </contour>
      <contour>
        <pt x="147" y="354" on="1"/>
        <pt x="188" y="341" on="0"/>
        <pt x="312" y="341" on="1"/>
        <pt x="412" y="341" on="0"/>
        <pt x="534" y="412" on="0"/>
        <pt x="534" y="483" on="1"/>
        <pt x="534" y="544" on="0"/>
        <pt x="436" y="627" on="0"/>
        <pt x="334" y="627" on="1"/>
        <pt x="246" y="627" on="0"/>
        <pt x="147" y="574" on="1"/>
      </contour>
    </TTGlyph>
    <TTGlyph name="Q" xMin="47" yMin="-160" xMax="635" yMax="705">
      <contour>
        <pt x="47" y="348" on="1"/>
        <pt x="47" y="501" on="0"/>
        <pt x="218" y="705" on="0"/>
        <pt x="454" y="705" on="0"/>
        <pt x="617" y="496" on="0"/>
        <pt x="617" y="351" on="1"/>
        <pt x="617" y="210" on="0"/>
        <pt x="490" y="23" on="0"/>
        <pt x="389" y="1" on="1"/>
        <pt x="397" y="-41" on="0"/>
        <pt x="442" y="-86" on="0"/>
        <pt x="471" y="-86" on="1"/>
        <pt x="496" y="-86" on="0"/>
        <pt x="529" y="-79" on="0"/>
        <pt x="561" y="-41" on="0"/>
        <pt x="561" y="-6" on="1"/>
        <pt x="561" y="8" on="0"/>
        <pt x="583" y="26" on="0"/>
        <pt x="599" y="26" on="1"/>
        <pt x="614" y="26" on="0"/>
        <pt x="635" y="9" on="0"/>
        <pt x="635" y="-7" on="1"/>
        <pt x="634" y="-85" on="0"/>
        <pt x="542" y="-160" on="0"/>
        <pt x="471" y="-160" on="1"/>
        <pt x="406" y="-160" on="0"/>
        <pt x="329" y="-78" on="0"/>
        <pt x="317" y="-4" on="1"/>
        <pt x="205" y="5" on="0"/>
        <pt x="47" y="200" on="0"/>
      </contour>
      <contour>
        <pt x="121" y="347" on="1"/>
        <pt x="121" y="233" on="0"/>
        <pt x="248" y="69" on="0"/>
        <pt x="336" y="69" on="1"/>
        <pt x="423" y="69" on="0"/>
        <pt x="543" y="234" on="0"/>
        <pt x="543" y="349" on="1"/>
        <pt x="543" y="459" on="0"/>
        <pt x="422" y="631" on="0"/>
        <pt x="336" y="631" on="1"/>
        <pt x="248" y="631" on="0"/>
        <pt x="121" y="457" on="0"/>
      </contour>
    </TTGlyph>
    <TTGlyph name="R" xMin="73" yMin="0" xMax="636" yMax="701">
      <contour>
        <pt x="73" y="27" on="1"/>
        <pt x="73" y="672" on="1"/>
        <pt x="73" y="700" on="0"/>
        <pt x="110" y="700" on="1"/>
        <pt x="145" y="700" on="0"/>
        <pt x="145" y="657" on="1"/>
        <pt x="248" y="701" on="0"/>
        <pt x="344" y="701" on="1"/>
        <pt x="480" y="701" on="0"/>
        <pt x="608" y="571" on="0"/>
        <pt x="608" y="472" on="1"/>
        <pt x="608" y="332" on="0"/>
        <pt x="463" y="286" on="1"/>
        <pt x="630" y="45" on="1"/>
        <pt x="636" y="34" on="0"/>
        <pt x="636" y="26" on="1"/>
        <pt x="636" y="14" on="0"/>
        <pt x="617" y="0" on="0"/>
        <pt x="602" y="0" on="1"/>
        <pt x="571" y="0" on="0"/>
        <pt x="553" y="25" on="1"/>
        <pt x="387" y="269" on="1"/>
        <pt x="337" y="262" on="0"/>
        <pt x="268" y="262" on="1"/>
        <pt x="248" y="262" on="0"/>
        <pt x="167" y="268" on="0"/>
        <pt x="147" y="268" on="1"/>
        <pt x="147" y="27" on="1"/>
        <pt x="147" y="14" on="0"/>
        <pt x="126" y="0" on="0"/>
        <pt x="111" y="0" on="1"/>
        <pt x="73" y="0" on="0"/>
      </contour>
      <contour>
        <pt x="147" y="354" on="1"/>
        <pt x="188" y="341" on="0"/>
        <pt x="312" y="341" on="1"/>
        <pt x="412" y="341" on="0"/>
        <pt x="534" y="412" on="0"/>
        <pt x="534" y="483" on="1"/>
        <pt x="534" y="544" on="0"/>
        <pt x="436" y="627" on="0"/>
        <pt x="334" y="627" on="1"/>
        <pt x="246" y="627" on="0"/>
        <pt x="147" y="574" on="1"/>
      </contour>
    </TTGlyph>
    <TTGlyph name="S" xMin="43" yMin="1" xMax="579" yMax="700">
      <contour>
        <pt x="43" y="127" on="1"/>
        <pt x="43" y="142" on="0"/>
        <pt x="66" y="174" on="0"/>
        <pt x="81" y="174" on="1"/>
        <pt x="86" y="174" on="0"/>
        <pt x="88" y="172" on="1"/>
        <pt x="123" y="135" on="0"/>
        <pt x="264" y="74" on="0"/>
        <pt x="326" y="74" on="1"/>
        <pt x="505" y="74" on="0"/>
        <pt x="505" y="193" on="1"/>
        <pt x="505" y="233" on="0"/>
        <pt x="456" y="284" on="0"/>
        <pt x="377" y="310" on="0"/>
        <pt x="282" y="328" on="0"/>
        <pt x="186" y="353" on="0"/>
        <pt x="107" y="391" on="0"/>
        <pt x="58" y="469" on="0"/>
        <pt x="58" y="525" on="1"/>
        <pt x="58" y="609" on="0"/>
        <pt x="206" y="700" on="0"/>
        <pt x="309" y="700" on="1"/>
        <pt x="389" y="700" on="0"/>
        <pt x="530" y="647" on="0"/>
        <pt x="563" y="599" on="1"/>
        <pt x="564" y="597" on="0"/>
        <pt x="564" y="594" on="1"/>
        <pt x="564" y="582" on="0"/>
        <pt x="531" y="557" on="0"/>
        <pt x="518" y="557" on="1"/>
        <pt x="516" y="557" on="0"/>
        <pt x="506" y="562" on="1"/>
        <pt x="427" y="627" on="0"/>
        <pt x="310" y="627" on="1"/>
        <pt x="239" y="627" on="0"/>
        <pt x="131" y="574" on="0"/>
        <pt x="131" y="520" on="1"/>
        <pt x="131" y="483" on="0"/>
        <pt x="180" y="435" on="0"/>
        <pt x="259" y="412" on="0"/>
        <pt x="355" y="395" on="0"/>
        <pt x="451" y="369" on="0"/>
        <pt x="530" y="328" on="0"/>
        <pt x="579" y="246" on="0"/>
        <pt x="579" y="187" on="1"/>
        <pt x="579" y="1" on="0"/>
        <pt x="333" y="1" on="1"/>
        <pt x="253" y="1" on="0"/>
        <pt x="99" y="58" on="0"/>
        <pt x="50" y="108" on="1"/>
        <pt x="43" y="115" on="0"/>
      </contour>
    </TTGlyph>
    <TTGlyph name="Scaron" xMin="45" yMin="1" xMax="595" yMax="870">
      <contour>
        <pt x="45" y="127" on="1"/>
        <pt x="45" y="141" on="0"/>
        <pt x="69" y="174" on="0"/>
        <pt x="84" y="174" on="1"/>
        <pt x="89" y="174" on="0"/>
        <pt x="91" y="172" on="1"/>
        <pt x="128" y="135" on="0"/>
        <pt x="273" y="74" on="0"/>
        <pt x="336" y="74" on="1"/>
        <pt x="519" y="74" on="0"/>
        <pt x="519" y="193" on="1"/>
        <pt x="519" y="239" on="0"/>
        <pt x="451" y="286" on="0"/>
        <pt x="349" y="293" on="0"/>
        <pt x="231" y="305" on="0"/>
        <pt x="129" y="325" on="0"/>
        <pt x="61" y="400" on="0"/>
        <pt x="61" y="465" on="1"/>
        <pt x="61" y="521" on="0"/>
        <pt x="137" y="603" on="0"/>
        <pt x="250" y="640" on="0"/>
        <pt x="318" y="640" on="1"/>
        <pt x="401" y="640" on="0"/>
        <pt x="545" y="587" on="0"/>
        <pt x="579" y="539" on="1"/>
        <pt x="580" y="537" on="0"/>
        <pt x="580" y="534" on="1"/>
        <pt x="580" y="522" on="0"/>
        <pt x="546" y="497" on="0"/>
        <pt x="533" y="497" on="1"/>
        <pt x="532" y="497" on="0"/>
        <pt x="520" y="502" on="1"/>
        <pt x="440" y="567" on="0"/>
        <pt x="319" y="567" on="1"/>
        <pt x="273" y="567" on="0"/>
        <pt x="194" y="547" on="0"/>
        <pt x="136" y="497" on="0"/>
        <pt x="136" y="423" on="0"/>
        <pt x="187" y="381" on="0"/>
        <pt x="268" y="369" on="0"/>
        <pt x="366" y="365" on="0"/>
        <pt x="463" y="352" on="0"/>
        <pt x="544" y="322" on="0"/>
        <pt x="595" y="246" on="0"/>
        <pt x="595" y="187" on="1"/>
        <pt x="595" y="87" on="0"/>
        <pt x="455" y="1" on="0"/>
        <pt x="343" y="1" on="1"/>
        <pt x="261" y="1" on="0"/>
        <pt x="103" y="58" on="0"/>
        <pt x="52" y="108" on="1"/>
        <pt x="45" y="115" on="0"/>
      </contour>
      <contour>
        <pt x="163" y="835" on="1"/>
        <pt x="163" y="848" on="0"/>
        <pt x="191" y="869" on="0"/>
        <pt x="221" y="869" on="0"/>
        <pt x="234" y="856" on="1"/>
        <pt x="329" y="771" on="1"/>
        <pt x="425" y="856" on="1"/>
        <pt x="439" y="870" on="0"/>
        <pt x="454" y="870" on="1"/>
        <pt x="467" y="870" on="0"/>
        <pt x="496" y="848" on="0"/>
        <pt x="496" y="835" on="1"/>
        <pt x="496" y="828" on="0"/>
        <pt x="492" y="824" on="1"/>
        <pt x="375" y="706" on="1"/>
        <pt x="366" y="696" on="1"/>
        <pt x="359" y="690" on="0"/>
        <pt x="353" y="683" on="0"/>
        <pt x="342" y="675" on="0"/>
        <pt x="333" y="671" on="0"/>
        <pt x="325" y="671" on="0"/>
        <pt x="317" y="674" on="0"/>
        <pt x="311" y="678" on="0"/>
        <pt x="302" y="686" on="0"/>
        <pt x="296" y="691" on="0"/>
        <pt x="285" y="703" on="0"/>
        <pt x="282" y="706" on="1"/>
        <pt x="167" y="824" on="1"/>
        <pt x="163" y="829" on="0"/>
      </contour>
    </TTGlyph>
    <TTGlyph name="T" xMin="10" yMin="0" xMax="559" yMax="700">
      <contour>
        <pt x="10" y="664" on="1"/>
        <pt x="10" y="679" on="0"/>
        <pt x="24" y="700" on="0"/>
        <pt x="37" y="700" on="1"/>
        <pt x="531" y="700" on="1"/>
        <pt x="544" y="700" on="0"/>
        <pt x="559" y="678" on="0"/>
        <pt x="559" y="663" on="1"/>
        <pt x="559" y="626" on="0"/>
        <pt x="531" y="626" on="1"/>
        <pt x="315" y="626" on="1"/>
        <pt x="315" y="28" on="1"/>
        <pt x="315" y="15" on="0"/>
        <pt x="293" y="0" on="0"/>
        <pt x="278" y="0" on="1"/>
        <pt x="241" y="0" on="0"/>
        <pt x="241" y="28" on="1"/>
        <pt x="241" y="626" on="1"/>
        <pt x="37" y="626" on="1"/>
        <pt x="10" y="626" on="0"/>
      </contour>
    </TTGlyph>
    <TTGlyph name="Thorn" xMin="73" yMin="0" xMax="608" yMax="700">
      <contour>
        <pt x="73" y="27" on="1"/>
        <pt x="73" y="672" on="1"/>
        <pt x="73" y="700" on="0"/>
        <pt x="110" y="700" on="1"/>
        <pt x="145" y="700" on="0"/>
        <pt x="145" y="669" on="1"/>
        <pt x="145" y="547" on="1"/>
        <pt x="248" y="591" on="0"/>
        <pt x="344" y="591" on="1"/>
        <pt x="480" y="591" on="0"/>
        <pt x="608" y="461" on="0"/>
        <pt x="608" y="362" on="1"/>
        <pt x="608" y="250" on="0"/>
        <pt x="434" y="152" on="0"/>
        <pt x="268" y="152" on="1"/>
        <pt x="248" y="152" on="0"/>
        <pt x="167" y="158" on="0"/>
        <pt x="147" y="158" on="1"/>
        <pt x="147" y="27" on="1"/>
        <pt x="147" y="14" on="0"/>
        <pt x="126" y="0" on="0"/>
        <pt x="111" y="0" on="1"/>
        <pt x="73" y="0" on="0"/>
      </contour>
      <contour>
        <pt x="147" y="244" on="1"/>
        <pt x="188" y="231" on="0"/>
        <pt x="312" y="231" on="1"/>
        <pt x="412" y="231" on="0"/>
        <pt x="534" y="302" on="0"/>
        <pt x="534" y="373" on="1"/>
        <pt x="534" y="434" on="0"/>
        <pt x="436" y="517" on="0"/>
        <pt x="334" y="517" on="1"/>
        <pt x="246" y="517" on="0"/>
        <pt x="147" y="464" on="1"/>
      </contour>
    </TTGlyph>
    <TTGlyph name="U" xMin="68" yMin="0" xMax="632" yMax="700">
      <contour>
        <pt x="68" y="214" on="1"/>
        <pt x="68" y="672" on="1"/>
        <pt x="69" y="685" on="0"/>
        <pt x="90" y="700" on="0"/>
        <pt x="104" y="700" on="1"/>
        <pt x="141" y="700" on="0"/>
        <pt x="141" y="672" on="1"/>
        <pt x="141" y="223" on="1"/>
        <pt x="141" y="176" on="0"/>
        <pt x="220" y="104" on="0"/>
        <pt x="311" y="74" on="0"/>
        <pt x="346" y="74" on="1"/>
        <pt x="388" y="74" on="0"/>
        <pt x="482" y="104" on="0"/>
        <pt x="559" y="175" on="0"/>
        <pt x="559" y="223" on="1"/>
        <pt x="559" y="672" on="1"/>
        <pt x="559" y="700" on="0"/>
        <pt x="596" y="700" on="1"/>
        <pt x="610" y="700" on="0"/>
        <pt x="631" y="685" on="0"/>
        <pt x="632" y="672" on="1"/>
        <pt x="632" y="214" on="1"/>
        <pt x="632" y="154" on="0"/>
        <pt x="544" y="53" on="0"/>
        <pt x="417" y="0" on="0"/>
        <pt x="354" y="0" on="1"/>
        <pt x="251" y="0" on="0"/>
        <pt x="68" y="124" on="0"/>
      </contour>
    </TTGlyph>
    <TTGlyph name="Uacute" xMin="68" yMin="0" xMax="632" yMax="950">
      <contour>
        <pt x="68" y="214" on="1"/>
        <pt x="68" y="672" on="1"/>
        <pt x="69" y="685" on="0"/>
        <pt x="90" y="700" on="0"/>
        <pt x="104" y="700" on="1"/>
        <pt x="141" y="700" on="0"/>
        <pt x="141" y="672" on="1"/>
        <pt x="141" y="223" on="1"/>
        <pt x="141" y="176" on="0"/>
        <pt x="220" y="104" on="0"/>
        <pt x="311" y="74" on="0"/>
        <pt x="346" y="74" on="1"/>
        <pt x="388" y="74" on="0"/>
        <pt x="482" y="104" on="0"/>
        <pt x="559" y="175" on="0"/>
        <pt x="559" y="223" on="1"/>
        <pt x="559" y="672" on="1"/>
        <pt x="559" y="700" on="0"/>
        <pt x="596" y="700" on="1"/>
        <pt x="610" y="700" on="0"/>
        <pt x="631" y="685" on="0"/>
        <pt x="632" y="672" on="1"/>
        <pt x="632" y="214" on="1"/>
        <pt x="632" y="154" on="0"/>
        <pt x="544" y="53" on="0"/>
        <pt x="417" y="0" on="0"/>
        <pt x="354" y="0" on="1"/>
        <pt x="251" y="0" on="0"/>
        <pt x="68" y="124" on="0"/>
      </contour>
      <contour>
        <pt x="312" y="774" on="1"/>
        <pt x="312" y="820" on="0"/>
        <pt x="382" y="950" on="0"/>
        <pt x="425" y="950" on="1"/>
        <pt x="447" y="950" on="0"/>
        <pt x="483" y="911" on="0"/>
        <pt x="483" y="891" on="1"/>
        <pt x="483" y="879" on="0"/>
        <pt x="476" y="860" on="0"/>
        <pt x="468" y="849" on="0"/>
        <pt x="450" y="836" on="0"/>
        <pt x="440" y="831" on="0"/>
        <pt x="415" y="821" on="0"/>
        <pt x="411" y="819" on="1"/>
        <pt x="391" y="810" on="0"/>
        <pt x="340" y="747" on="0"/>
        <pt x="329" y="747" on="1"/>
        <pt x="312" y="747" on="0"/>
      </contour>
    </TTGlyph>
    <TTGlyph name="Ucircumflex" xMin="68" yMin="0" xMax="632" yMax="950">
      <contour>
        <pt x="68" y="214" on="1"/>
        <pt x="68" y="672" on="1"/>
        <pt x="69" y="685" on="0"/>
        <pt x="90" y="700" on="0"/>
        <pt x="104" y="700" on="1"/>
        <pt x="141" y="700" on="0"/>
        <pt x="141" y="672" on="1"/>
        <pt x="141" y="223" on="1"/>
        <pt x="141" y="176" on="0"/>
        <pt x="220" y="104" on="0"/>
        <pt x="311" y="74" on="0"/>
        <pt x="346" y="74" on="1"/>
        <pt x="388" y="74" on="0"/>
        <pt x="482" y="104" on="0"/>
        <pt x="559" y="175" on="0"/>
        <pt x="559" y="223" on="1"/>
        <pt x="559" y="672" on="1"/>
        <pt x="559" y="700" on="0"/>
        <pt x="596" y="700" on="1"/>
        <pt x="610" y="700" on="0"/>
        <pt x="631" y="685" on="0"/>
        <pt x="632" y="672" on="1"/>
        <pt x="632" y="214" on="1"/>
        <pt x="632" y="154" on="0"/>
        <pt x="544" y="53" on="0"/>
        <pt x="417" y="0" on="0"/>
        <pt x="354" y="0" on="1"/>
        <pt x="251" y="0" on="0"/>
        <pt x="68" y="124" on="0"/>
      </contour>
      <contour>
        <pt x="183" y="786" on="1"/>
        <pt x="183" y="792" on="0"/>
        <pt x="187" y="797" on="1"/>
        <pt x="302" y="915" on="1"/>
        <pt x="305" y="918" on="0"/>
        <pt x="316" y="930" on="0"/>
        <pt x="322" y="935" on="0"/>
        <pt x="331" y="943" on="0"/>
        <pt x="337" y="947" on="0"/>
        <pt x="345" y="950" on="0"/>
        <pt x="353" y="950" on="0"/>
        <pt x="362" y="946" on="0"/>
        <pt x="373" y="938" on="0"/>
        <pt x="379" y="931" on="0"/>
        <pt x="386" y="924" on="1"/>
        <pt x="395" y="915" on="1"/>
        <pt x="512" y="797" on="1"/>
        <pt x="516" y="793" on="0"/>
        <pt x="516" y="786" on="1"/>
        <pt x="516" y="773" on="0"/>
        <pt x="487" y="751" on="0"/>
        <pt x="474" y="751" on="1"/>
        <pt x="459" y="751" on="0"/>
        <pt x="445" y="765" on="1"/>
        <pt x="349" y="850" on="1"/>
        <pt x="254" y="765" on="1"/>
        <pt x="241" y="752" on="0"/>
        <pt x="211" y="752" on="0"/>
        <pt x="183" y="773" on="0"/>
      </contour>
    </TTGlyph>
    <TTGlyph name="Udieresis" xMin="68" yMin="0" xMax="632" yMax="896">
      <contour>
        <pt x="68" y="214" on="1"/>
        <pt x="68" y="672" on="1"/>
        <pt x="69" y="685" on="0"/>
        <pt x="90" y="700" on="0"/>
        <pt x="104" y="700" on="1"/>
        <pt x="141" y="700" on="0"/>
        <pt x="141" y="672" on="1"/>
        <pt x="141" y="223" on="1"/>
        <pt x="141" y="176" on="0"/>
        <pt x="220" y="104" on="0"/>
        <pt x="311" y="74" on="0"/>
        <pt x="346" y="74" on="1"/>
        <pt x="388" y="74" on="0"/>
        <pt x="482" y="104" on="0"/>
        <pt x="559" y="175" on="0"/>
        <pt x="559" y="223" on="1"/>
        <pt x="559" y="672" on="1"/>
        <pt x="559" y="700" on="0"/>
        <pt x="596" y="700" on="1"/>
        <pt x="610" y="700" on="0"/>
        <pt x="631" y="685" on="0"/>
        <pt x="632" y="672" on="1"/>
        <pt x="632" y="214" on="1"/>
        <pt x="632" y="154" on="0"/>
        <pt x="544" y="53" on="0"/>
        <pt x="417" y="0" on="0"/>
        <pt x="354" y="0" on="1"/>
        <pt x="251" y="0" on="0"/>
        <pt x="68" y="124" on="0"/>
      </contour>
      <contour>
        <pt x="159" y="820" on="1"/>
        <pt x="159" y="848" on="1"/>
        <pt x="159" y="870" on="0"/>
        <pt x="196" y="896" on="0"/>
        <pt x="227" y="896" on="1"/>
        <pt x="254" y="896" on="0"/>
        <pt x="292" y="871" on="0"/>
        <pt x="292" y="848" on="1"/>
        <pt x="292" y="820" on="1"/>
        <pt x="292" y="797" on="0"/>
        <pt x="252" y="770" on="0"/>
        <pt x="226" y="770" on="1"/>
        <pt x="195" y="770" on="0"/>
        <pt x="159" y="797" on="0"/>
      </contour>
      <contour>
        <pt x="409" y="820" on="1"/>
        <pt x="409" y="848" on="1"/>
        <pt x="409" y="870" on="0"/>
        <pt x="446" y="896" on="0"/>
        <pt x="477" y="896" on="1"/>
        <pt x="504" y="896" on="0"/>
        <pt x="542" y="871" on="0"/>
        <pt x="542" y="848" on="1"/>
        <pt x="542" y="820" on="1"/>
        <pt x="542" y="797" on="0"/>
        <pt x="502" y="770" on="0"/>
        <pt x="476" y="770" on="1"/>
        <pt x="445" y="770" on="0"/>
        <pt x="409" y="797" on="0"/>
      </contour>
    </TTGlyph>
    <TTGlyph name="Ugrave" xMin="68" yMin="0" xMax="632" yMax="950">
      <contour>
        <pt x="68" y="214" on="1"/>
        <pt x="68" y="672" on="1"/>
        <pt x="69" y="685" on="0"/>
        <pt x="90" y="700" on="0"/>
        <pt x="104" y="700" on="1"/>
        <pt x="141" y="700" on="0"/>
        <pt x="141" y="672" on="1"/>
        <pt x="141" y="223" on="1"/>
        <pt x="141" y="176" on="0"/>
        <pt x="220" y="104" on="0"/>
        <pt x="311" y="74" on="0"/>
        <pt x="346" y="74" on="1"/>
        <pt x="388" y="74" on="0"/>
        <pt x="482" y="104" on="0"/>
        <pt x="559" y="175" on="0"/>
        <pt x="559" y="223" on="1"/>
        <pt x="559" y="672" on="1"/>
        <pt x="559" y="700" on="0"/>
        <pt x="596" y="700" on="1"/>
        <pt x="610" y="700" on="0"/>
        <pt x="631" y="685" on="0"/>
        <pt x="632" y="672" on="1"/>
        <pt x="632" y="214" on="1"/>
        <pt x="632" y="154" on="0"/>
        <pt x="544" y="53" on="0"/>
        <pt x="417" y="0" on="0"/>
        <pt x="354" y="0" on="1"/>
        <pt x="251" y="0" on="0"/>
        <pt x="68" y="124" on="0"/>
      </contour>
      <contour>
        <pt x="216" y="891" on="1"/>
        <pt x="216" y="911" on="0"/>
        <pt x="252" y="950" on="0"/>
        <pt x="274" y="950" on="1"/>
        <pt x="317" y="950" on="0"/>
        <pt x="387" y="820" on="0"/>
        <pt x="387" y="774" on="1"/>
        <pt x="387" y="747" on="0"/>
        <pt x="370" y="747" on="1"/>
        <pt x="359" y="747" on="0"/>
        <pt x="308" y="810" on="0"/>
        <pt x="288" y="819" on="1"/>
        <pt x="284" y="821" on="0"/>
        <pt x="259" y="831" on="0"/>
        <pt x="249" y="836" on="0"/>
        <pt x="231" y="849" on="0"/>
        <pt x="223" y="860" on="0"/>
        <pt x="216" y="879" on="0"/>
      </contour>
    </TTGlyph>
    <TTGlyph name="V" xMin="23" yMin="0" xMax="592" yMax="700">
      <contour>
        <pt x="23" y="663" on="1"/>
        <pt x="23" y="678" on="0"/>
        <pt x="53" y="700" on="0"/>
        <pt x="68" y="700" on="1"/>
        <pt x="84" y="700" on="0"/>
        <pt x="92" y="685" on="1"/>
        <pt x="307" y="120" on="1"/>
        <pt x="523" y="685" on="1"/>
        <pt x="531" y="700" on="0"/>
        <pt x="547" y="700" on="1"/>
        <pt x="562" y="700" on="0"/>
        <pt x="592" y="678" on="0"/>
        <pt x="592" y="663" on="1"/>
        <pt x="592" y="659" on="0"/>
        <pt x="590" y="653" on="1"/>
        <pt x="353" y="35" on="1"/>
        <pt x="346" y="20" on="0"/>
        <pt x="318" y="0" on="0"/>
        <pt x="296" y="0" on="0"/>
        <pt x="268" y="19" on="0"/>
        <pt x="260" y="35" on="1"/>
        <pt x="25" y="653" on="1"/>
        <pt x="23" y="659" on="0"/>
      </contour>
    </TTGlyph>
    <TTGlyph name="W" xMin="33" yMin="0" xMax="802" yMax="700">
      <contour>
        <pt x="33" y="663" on="1"/>
        <pt x="33" y="678" on="0"/>
        <pt x="63" y="700" on="0"/>
        <pt x="78" y="700" on="1"/>
        <pt x="98" y="700" on="0"/>
        <pt x="102" y="685" on="1"/>
        <pt x="257" y="120" on="1"/>
        <pt x="376" y="646" on="1"/>
        <pt x="381" y="667" on="0"/>
        <pt x="402" y="695" on="0"/>
        <pt x="415" y="695" on="1"/>
        <pt x="438" y="695" on="0"/>
        <pt x="449" y="647" on="1"/>
        <pt x="577" y="120" on="1"/>
        <pt x="733" y="685" on="1"/>
        <pt x="738" y="700" on="0"/>
        <pt x="757" y="700" on="1"/>
        <pt x="772" y="700" on="0"/>
        <pt x="802" y="678" on="0"/>
        <pt x="802" y="663" on="1"/>
        <pt x="802" y="659" on="0"/>
        <pt x="800" y="653" on="1"/>
        <pt x="623" y="35" on="1"/>
        <pt x="616" y="20" on="0"/>
        <pt x="588" y="0" on="0"/>
        <pt x="566" y="0" on="0"/>
        <pt x="538" y="19" on="0"/>
        <pt x="530" y="35" on="1"/>
        <pt x="414" y="461" on="1"/>
        <pt x="303" y="35" on="1"/>
        <pt x="296" y="20" on="0"/>
        <pt x="268" y="0" on="0"/>
        <pt x="246" y="0" on="0"/>
        <pt x="218" y="19" on="0"/>
        <pt x="210" y="35" on="1"/>
        <pt x="35" y="653" on="1"/>
        <pt x="33" y="659" on="0"/>
      </contour>
    </TTGlyph>
    <TTGlyph name="X" xMin="25" yMin="0" xMax="618" yMax="700">
      <contour>
        <pt x="25" y="38" on="1"/>
        <pt x="25" y="45" on="0"/>
        <pt x="31" y="51" on="1"/>
        <pt x="273" y="348" on="1"/>
        <pt x="29" y="647" on="1"/>
        <pt x="25" y="650" on="0"/>
        <pt x="25" y="660" on="1"/>
        <pt x="25" y="676" on="0"/>
        <pt x="57" y="700" on="0"/>
        <pt x="72" y="700" on="1"/>
        <pt x="79" y="700" on="0"/>
        <pt x="93" y="688" on="1"/>
        <pt x="321" y="407" on="1"/>
        <pt x="550" y="688" on="1"/>
        <pt x="564" y="700" on="0"/>
        <pt x="571" y="700" on="1"/>
        <pt x="586" y="700" on="0"/>
        <pt x="618" y="676" on="0"/>
        <pt x="618" y="660" on="1"/>
        <pt x="618" y="650" on="0"/>
        <pt x="614" y="647" on="1"/>
        <pt x="370" y="348" on="1"/>
        <pt x="612" y="51" on="1"/>
        <pt x="618" y="45" on="0"/>
        <pt x="618" y="38" on="1"/>
        <pt x="618" y="25" on="0"/>
        <pt x="586" y="0" on="0"/>
        <pt x="560" y="0" on="0"/>
        <pt x="548" y="11" on="1"/>
        <pt x="321" y="288" on="1"/>
        <pt x="95" y="11" on="1"/>
        <pt x="83" y="0" on="0"/>
        <pt x="57" y="0" on="0"/>
        <pt x="25" y="25" on="0"/>
      </contour>
    </TTGlyph>
    <TTGlyph name="Y" xMin="47" yMin="0" xMax="611" yMax="700">
      <contour>
        <pt x="47" y="444" on="1"/>
        <pt x="47" y="672" on="1"/>
        <pt x="48" y="685" on="0"/>
        <pt x="69" y="700" on="0"/>
        <pt x="83" y="700" on="1"/>
        <pt x="120" y="700" on="0"/>
        <pt x="120" y="672" on="1"/>
        <pt x="120" y="453" on="1"/>
        <pt x="120" y="406" on="0"/>
        <pt x="199" y="334" on="0"/>
        <pt x="290" y="304" on="0"/>
        <pt x="325" y="304" on="1"/>
        <pt x="367" y="304" on="0"/>
        <pt x="461" y="334" on="0"/>
        <pt x="538" y="405" on="0"/>
        <pt x="538" y="453" on="1"/>
        <pt x="538" y="672" on="1"/>
        <pt x="538" y="700" on="0"/>
        <pt x="575" y="700" on="1"/>
        <pt x="589" y="700" on="0"/>
        <pt x="610" y="685" on="0"/>
        <pt x="611" y="672" on="1"/>
        <pt x="611" y="444" on="1"/>
        <pt x="611" y="362" on="0"/>
        <pt x="459" y="243" on="0"/>
        <pt x="365" y="232" on="1"/>
        <pt x="365" y="28" on="1"/>
        <pt x="365" y="15" on="0"/>
        <pt x="343" y="0" on="0"/>
        <pt x="328" y="0" on="1"/>
        <pt x="291" y="0" on="0"/>
        <pt x="291" y="28" on="1"/>
        <pt x="291" y="233" on="1"/>
        <pt x="195" y="246" on="0"/>
        <pt x="47" y="363" on="0"/>
      </contour>
    </TTGlyph>
    <TTGlyph name="Yacute" xMin="47" yMin="0" xMax="611" yMax="950">
      <contour>
        <pt x="47" y="444" on="1"/>
        <pt x="47" y="672" on="1"/>
        <pt x="48" y="685" on="0"/>
        <pt x="69" y="700" on="0"/>
        <pt x="83" y="700" on="1"/>
        <pt x="120" y="700" on="0"/>
        <pt x="120" y="672" on="1"/>
        <pt x="120" y="453" on="1"/>
        <pt x="120" y="406" on="0"/>
        <pt x="199" y="334" on="0"/>
        <pt x="290" y="304" on="0"/>
        <pt x="325" y="304" on="1"/>
        <pt x="367" y="304" on="0"/>
        <pt x="461" y="334" on="0"/>
        <pt x="538" y="405" on="0"/>
        <pt x="538" y="453" on="1"/>
        <pt x="538" y="672" on="1"/>
        <pt x="538" y="700" on="0"/>
        <pt x="575" y="700" on="1"/>
        <pt x="589" y="700" on="0"/>
        <pt x="610" y="685" on="0"/>
        <pt x="611" y="672" on="1"/>
        <pt x="611" y="444" on="1"/>
        <pt x="611" y="362" on="0"/>
        <pt x="459" y="243" on="0"/>
        <pt x="365" y="232" on="1"/>
        <pt x="365" y="28" on="1"/>
        <pt x="365" y="15" on="0"/>
        <pt x="343" y="0" on="0"/>
        <pt x="328" y="0" on="1"/>
        <pt x="291" y="0" on="0"/>
        <pt x="291" y="28" on="1"/>
        <pt x="291" y="233" on="1"/>
        <pt x="195" y="246" on="0"/>
        <pt x="47" y="363" on="0"/>
      </contour>
      <contour>
        <pt x="287" y="774" on="1"/>
        <pt x="287" y="820" on="0"/>
        <pt x="357" y="950" on="0"/>
        <pt x="400" y="950" on="1"/>
        <pt x="422" y="950" on="0"/>
        <pt x="458" y="911" on="0"/>
        <pt x="458" y="891" on="1"/>
        <pt x="458" y="879" on="0"/>
        <pt x="451" y="860" on="0"/>
        <pt x="443" y="849" on="0"/>
        <pt x="425" y="836" on="0"/>
        <pt x="415" y="831" on="0"/>
        <pt x="390" y="821" on="0"/>
        <pt x="386" y="819" on="1"/>
        <pt x="366" y="810" on="0"/>
        <pt x="315" y="747" on="0"/>
        <pt x="304" y="747" on="1"/>
        <pt x="287" y="747" on="0"/>
      </contour>
    </TTGlyph>
    <TTGlyph name="Ydieresis" xMin="47" yMin="0" xMax="611" yMax="896">
      <contour>
        <pt x="47" y="444" on="1"/>
        <pt x="47" y="672" on="1"/>
        <pt x="48" y="685" on="0"/>
        <pt x="69" y="700" on="0"/>
        <pt x="83" y="700" on="1"/>
        <pt x="120" y="700" on="0"/>
        <pt x="120" y="672" on="1"/>
        <pt x="120" y="453" on="1"/>
        <pt x="120" y="406" on="0"/>
        <pt x="199" y="334" on="0"/>
        <pt x="290" y="304" on="0"/>
        <pt x="325" y="304" on="1"/>
        <pt x="367" y="304" on="0"/>
        <pt x="461" y="334" on="0"/>
        <pt x="538" y="405" on="0"/>
        <pt x="538" y="453" on="1"/>
        <pt x="538" y="672" on="1"/>
        <pt x="538" y="700" on="0"/>
        <pt x="575" y="700" on="1"/>
        <pt x="589" y="700" on="0"/>
        <pt x="610" y="685" on="0"/>
        <pt x="611" y="672" on="1"/>
        <pt x="611" y="444" on="1"/>
        <pt x="611" y="362" on="0"/>
        <pt x="459" y="243" on="0"/>
        <pt x="365" y="232" on="1"/>
        <pt x="365" y="28" on="1"/>
        <pt x="365" y="15" on="0"/>
        <pt x="343" y="0" on="0"/>
        <pt x="328" y="0" on="1"/>
        <pt x="291" y="0" on="0"/>
        <pt x="291" y="28" on="1"/>
        <pt x="291" y="233" on="1"/>
        <pt x="195" y="246" on="0"/>
        <pt x="47" y="363" on="0"/>
      </contour>
      <contour>
        <pt x="138" y="820" on="1"/>
        <pt x="138" y="848" on="1"/>
        <pt x="138" y="870" on="0"/>
        <pt x="175" y="896" on="0"/>
        <pt x="206" y="896" on="1"/>
        <pt x="233" y="896" on="0"/>
        <pt x="271" y="871" on="0"/>
        <pt x="271" y="848" on="1"/>
        <pt x="271" y="820" on="1"/>
        <pt x="271" y="797" on="0"/>
        <pt x="231" y="770" on="0"/>
        <pt x="205" y="770" on="1"/>
        <pt x="174" y="770" on="0"/>
        <pt x="138" y="797" on="0"/>
      </contour>
      <contour>
        <pt x="388" y="820" on="1"/>
        <pt x="388" y="848" on="1"/>
        <pt x="388" y="870" on="0"/>
        <pt x="425" y="896" on="0"/>
        <pt x="456" y="896" on="1"/>
        <pt x="483" y="896" on="0"/>
        <pt x="521" y="871" on="0"/>
        <pt x="521" y="848" on="1"/>
        <pt x="521" y="820" on="1"/>
        <pt x="521" y="797" on="0"/>
        <pt x="481" y="770" on="0"/>
        <pt x="455" y="770" on="1"/>
        <pt x="424" y="770" on="0"/>
        <pt x="388" y="797" on="0"/>
      </contour>
    </TTGlyph>
    <TTGlyph name="Z" xMin="20" yMin="1" xMax="617" yMax="700">
      <contour>
        <pt x="20" y="33" on="1"/>
        <pt x="20" y="43" on="0"/>
        <pt x="27" y="51" on="1"/>
        <pt x="477" y="626" on="1"/>
        <pt x="68" y="626" on="1"/>
        <pt x="41" y="626" on="0"/>
        <pt x="41" y="664" on="1"/>
        <pt x="41" y="679" on="0"/>
        <pt x="55" y="700" on="0"/>
        <pt x="68" y="700" on="1"/>
        <pt x="549" y="700" on="1"/>
        <pt x="603" y="700" on="0"/>
        <pt x="603" y="672" on="1"/>
        <pt x="603" y="661" on="0"/>
        <pt x="592" y="647" on="1"/>
        <pt x="143" y="75" on="1"/>
        <pt x="589" y="75" on="1"/>
        <pt x="602" y="75" on="0"/>
        <pt x="617" y="53" on="0"/>
        <pt x="617" y="38" on="1"/>
        <pt x="617" y="1" on="0"/>
        <pt x="589" y="1" on="1"/>
        <pt x="74" y="1" on="1"/>
        <pt x="50" y="1" on="0"/>
        <pt x="20" y="19" on="0"/>
      </contour>
    </TTGlyph>
    <TTGlyph name="Zcaron" xMin="30" yMin="1" xMax="627" yMax="850">
      <contour>
        <pt x="30" y="33" on="1"/>
        <pt x="30" y="43" on="0"/>
        <pt x="37" y="51" on="1"/>
        <pt x="477" y="536" on="1"/>
        <pt x="78" y="536" on="1"/>
        <pt x="51" y="536" on="0"/>
        <pt x="51" y="574" on="1"/>
        <pt x="51" y="589" on="0"/>
        <pt x="65" y="610" on="0"/>
        <pt x="78" y="610" on="1"/>
        <pt x="559" y="610" on="1"/>
        <pt x="613" y="610" on="0"/>
        <pt x="613" y="582" on="1"/>
        <pt x="613" y="568" on="0"/>
        <pt x="602" y="557" on="1"/>
        <pt x="163" y="75" on="1"/>
        <pt x="599" y="75" on="1"/>
        <pt x="612" y="75" on="0"/>
        <pt x="627" y="53" on="0"/>
        <pt x="627" y="38" on="1"/>
        <pt x="627" y="1" on="0"/>
        <pt x="599" y="1" on="1"/>
        <pt x="84" y="1" on="1"/>
        <pt x="60" y="1" on="0"/>
        <pt x="30" y="19" on="0"/>
      </contour>
      <contour>
        <pt x="148" y="815" on="1"/>
        <pt x="148" y="828" on="0"/>
        <pt x="176" y="849" on="0"/>
        <pt x="206" y="849" on="0"/>
        <pt x="219" y="836" on="1"/>
        <pt x="314" y="751" on="1"/>
        <pt x="410" y="836" on="1"/>
        <pt x="424" y="850" on="0"/>
        <pt x="439" y="850" on="1"/>
        <pt x="452" y="850" on="0"/>
        <pt x="481" y="828" on="0"/>
        <pt x="481" y="815" on="1"/>
        <pt x="481" y="808" on="0"/>
        <pt x="477" y="804" on="1"/>
        <pt x="360" y="686" on="1"/>
        <pt x="350" y="676" on="1"/>
        <pt x="344" y="670" on="0"/>
        <pt x="338" y="663" on="0"/>
        <pt x="327" y="655" on="0"/>
        <pt x="318" y="651" on="0"/>
        <pt x="310" y="651" on="0"/>
        <pt x="302" y="654" on="0"/>
        <pt x="296" y="658" on="0"/>
        <pt x="287" y="666" on="0"/>
        <pt x="281" y="671" on="0"/>
        <pt x="270" y="683" on="0"/>
        <pt x="267" y="686" on="1"/>
        <pt x="152" y="804" on="1"/>
        <pt x="148" y="809" on="0"/>
      </contour>
    </TTGlyph>
    <TTGlyph name="a" xMin="38" yMin="-8" xMax="600" yMax="510">
      <contour>
        <pt x="38" y="182" on="1"/>
        <pt x="38" y="316" on="0"/>
        <pt x="248" y="510" on="0"/>
        <pt x="381" y="510" on="1"/>
        <pt x="472" y="510" on="0"/>
        <pt x="600" y="372" on="0"/>
        <pt x="600" y="284" on="1"/>
        <pt x="599" y="22" on="1"/>
        <pt x="599" y="9" on="0"/>
        <pt x="574" y="-6" on="0"/>
        <pt x="559" y="-6" on="1"/>
        <pt x="526" y="-6" on="0"/>
        <pt x="526" y="22" on="1"/>
        <pt x="526" y="191" on="1"/>
        <pt x="445" y="86" on="0"/>
        <pt x="298" y="-8" on="0"/>
        <pt x="220" y="-8" on="1"/>
        <pt x="148" y="-8" on="0"/>
        <pt x="38" y="109" on="0"/>
      </contour>
      <contour>
        <pt x="110" y="180" on="1"/>
        <pt x="110" y="123" on="0"/>
        <pt x="190" y="64" on="0"/>
        <pt x="235" y="64" on="1"/>
        <pt x="287" y="64" on="0"/>
        <pt x="421" y="167" on="0"/>
        <pt x="510" y="294" on="0"/>
        <pt x="510" y="330" on="1"/>
        <pt x="510" y="360" on="0"/>
        <pt x="475" y="407" on="0"/>
        <pt x="424" y="429" on="0"/>
        <pt x="382" y="440" on="0"/>
        <pt x="368" y="440" on="1"/>
        <pt x="270" y="440" on="0"/>
        <pt x="110" y="283" on="0"/>
      </contour>
    </TTGlyph>
    <TTGlyph name="aacute" xMin="38" yMin="-8" xMax="600" yMax="750">
      <contour>
        <pt x="38" y="182" on="1"/>
        <pt x="38" y="316" on="0"/>
        <pt x="248" y="510" on="0"/>
        <pt x="381" y="510" on="1"/>
        <pt x="472" y="510" on="0"/>
        <pt x="600" y="372" on="0"/>
        <pt x="600" y="284" on="1"/>
        <pt x="599" y="22" on="1"/>
        <pt x="599" y="9" on="0"/>
        <pt x="574" y="-6" on="0"/>
        <pt x="559" y="-6" on="1"/>
        <pt x="526" y="-6" on="0"/>
        <pt x="526" y="22" on="1"/>
        <pt x="526" y="191" on="1"/>
        <pt x="445" y="86" on="0"/>
        <pt x="298" y="-8" on="0"/>
        <pt x="220" y="-8" on="1"/>
        <pt x="148" y="-8" on="0"/>
        <pt x="38" y="109" on="0"/>
      </contour>
      <contour>
        <pt x="110" y="180" on="1"/>
        <pt x="110" y="123" on="0"/>
        <pt x="190" y="64" on="0"/>
        <pt x="235" y="64" on="1"/>
        <pt x="287" y="64" on="0"/>
        <pt x="421" y="167" on="0"/>
        <pt x="510" y="294" on="0"/>
        <pt x="510" y="330" on="1"/>
        <pt x="510" y="360" on="0"/>
        <pt x="475" y="407" on="0"/>
        <pt x="424" y="429" on="0"/>
        <pt x="382" y="440" on="0"/>
        <pt x="368" y="440" on="1"/>
        <pt x="270" y="440" on="0"/>
        <pt x="110" y="283" on="0"/>
      </contour>
      <contour>
        <pt x="264" y="574" on="1"/>
        <pt x="264" y="620" on="0"/>
        <pt x="334" y="750" on="0"/>
        <pt x="377" y="750" on="1"/>
        <pt x="399" y="750" on="0"/>
        <pt x="435" y="711" on="0"/>
        <pt x="435" y="691" on="1"/>
        <pt x="435" y="679" on="0"/>
        <pt x="428" y="660" on="0"/>
        <pt x="420" y="649" on="0"/>
        <pt x="402" y="636" on="0"/>
        <pt x="392" y="631" on="0"/>
        <pt x="367" y="621" on="0"/>
        <pt x="363" y="619" on="1"/>
        <pt x="343" y="610" on="0"/>
        <pt x="292" y="547" on="0"/>
        <pt x="281" y="547" on="1"/>
        <pt x="264" y="547" on="0"/>
      </contour>
    </TTGlyph>
    <TTGlyph name="acircumflex" xMin="38" yMin="-8" xMax="600" yMax="750">
      <contour>
        <pt x="38" y="182" on="1"/>
        <pt x="38" y="316" on="0"/>
        <pt x="248" y="510" on="0"/>
        <pt x="381" y="510" on="1"/>
        <pt x="472" y="510" on="0"/>
        <pt x="600" y="372" on="0"/>
        <pt x="600" y="284" on="1"/>
        <pt x="599" y="22" on="1"/>
        <pt x="599" y="9" on="0"/>
        <pt x="574" y="-6" on="0"/>
        <pt x="559" y="-6" on="1"/>
        <pt x="526" y="-6" on="0"/>
        <pt x="526" y="22" on="1"/>
        <pt x="526" y="191" on="1"/>
        <pt x="445" y="86" on="0"/>
        <pt x="298" y="-8" on="0"/>
        <pt x="220" y="-8" on="1"/>
        <pt x="148" y="-8" on="0"/>
        <pt x="38" y="109" on="0"/>
      </contour>
      <contour>
        <pt x="110" y="180" on="1"/>
        <pt x="110" y="123" on="0"/>
        <pt x="190" y="64" on="0"/>
        <pt x="235" y="64" on="1"/>
        <pt x="287" y="64" on="0"/>
        <pt x="421" y="167" on="0"/>
        <pt x="510" y="294" on="0"/>
        <pt x="510" y="330" on="1"/>
        <pt x="510" y="360" on="0"/>
        <pt x="475" y="407" on="0"/>
        <pt x="424" y="429" on="0"/>
        <pt x="382" y="440" on="0"/>
        <pt x="368" y="440" on="1"/>
        <pt x="270" y="440" on="0"/>
        <pt x="110" y="283" on="0"/>
      </contour>
      <contour>
        <pt x="152" y="586" on="1"/>
        <pt x="152" y="592" on="0"/>
        <pt x="156" y="597" on="1"/>
        <pt x="271" y="715" on="1"/>
        <pt x="274" y="718" on="0"/>
        <pt x="285" y="730" on="0"/>
        <pt x="291" y="735" on="0"/>
        <pt x="300" y="743" on="0"/>
        <pt x="306" y="747" on="0"/>
        <pt x="314" y="750" on="0"/>
        <pt x="322" y="750" on="0"/>
        <pt x="331" y="746" on="0"/>
        <pt x="342" y="738" on="0"/>
        <pt x="348" y="731" on="0"/>
        <pt x="354" y="724" on="1"/>
        <pt x="364" y="715" on="1"/>
        <pt x="481" y="597" on="1"/>
        <pt x="485" y="593" on="0"/>
        <pt x="485" y="586" on="1"/>
        <pt x="485" y="573" on="0"/>
        <pt x="456" y="551" on="0"/>
        <pt x="443" y="551" on="1"/>
        <pt x="428" y="551" on="0"/>
        <pt x="414" y="565" on="1"/>
        <pt x="318" y="650" on="1"/>
        <pt x="223" y="565" on="1"/>
        <pt x="210" y="552" on="0"/>
        <pt x="180" y="552" on="0"/>
        <pt x="152" y="573" on="0"/>
      </contour>
    </TTGlyph>
    <TTGlyph name="acute" xMin="40" yMin="547" xMax="211" yMax="750">
      <contour>
        <pt x="40" y="574" on="1"/>
        <pt x="40" y="620" on="0"/>
        <pt x="110" y="750" on="0"/>
        <pt x="153" y="750" on="1"/>
        <pt x="175" y="750" on="0"/>
        <pt x="211" y="711" on="0"/>
        <pt x="211" y="691" on="1"/>
        <pt x="211" y="679" on="0"/>
        <pt x="204" y="660" on="0"/>
        <pt x="196" y="649" on="0"/>
        <pt x="178" y="636" on="0"/>
        <pt x="168" y="631" on="0"/>
        <pt x="143" y="621" on="0"/>
        <pt x="139" y="619" on="1"/>
        <pt x="119" y="610" on="0"/>
        <pt x="68" y="547" on="0"/>
        <pt x="57" y="547" on="1"/>
        <pt x="40" y="547" on="0"/>
      </contour>
    </TTGlyph>
    <TTGlyph name="adieresis" xMin="38" yMin="-8" xMax="600" yMax="696">
      <contour>
        <pt x="38" y="182" on="1"/>
        <pt x="38" y="316" on="0"/>
        <pt x="248" y="510" on="0"/>
        <pt x="381" y="510" on="1"/>
        <pt x="472" y="510" on="0"/>
        <pt x="600" y="372" on="0"/>
        <pt x="600" y="284" on="1"/>
        <pt x="599" y="22" on="1"/>
        <pt x="599" y="9" on="0"/>
        <pt x="574" y="-6" on="0"/>
        <pt x="559" y="-6" on="1"/>
        <pt x="526" y="-6" on="0"/>
        <pt x="526" y="22" on="1"/>
        <pt x="526" y="191" on="1"/>
        <pt x="445" y="86" on="0"/>
        <pt x="298" y="-8" on="0"/>
        <pt x="220" y="-8" on="1"/>
        <pt x="148" y="-8" on="0"/>
        <pt x="38" y="109" on="0"/>
      </contour>
      <contour>
        <pt x="110" y="180" on="1"/>
        <pt x="110" y="123" on="0"/>
        <pt x="190" y="64" on="0"/>
        <pt x="235" y="64" on="1"/>
        <pt x="287" y="64" on="0"/>
        <pt x="421" y="167" on="0"/>
        <pt x="510" y="294" on="0"/>
        <pt x="510" y="330" on="1"/>
        <pt x="510" y="360" on="0"/>
        <pt x="475" y="407" on="0"/>
        <pt x="424" y="429" on="0"/>
        <pt x="382" y="440" on="0"/>
        <pt x="368" y="440" on="1"/>
        <pt x="270" y="440" on="0"/>
        <pt x="110" y="283" on="0"/>
      </contour>
      <contour>
        <pt x="128" y="620" on="1"/>
        <pt x="128" y="648" on="1"/>
        <pt x="128" y="670" on="0"/>
        <pt x="165" y="696" on="0"/>
        <pt x="196" y="696" on="1"/>
        <pt x="223" y="696" on="0"/>
        <pt x="261" y="671" on="0"/>
        <pt x="261" y="648" on="1"/>
        <pt x="261" y="620" on="1"/>
        <pt x="261" y="597" on="0"/>
        <pt x="221" y="570" on="0"/>
        <pt x="195" y="570" on="1"/>
        <pt x="164" y="570" on="0"/>
        <pt x="128" y="597" on="0"/>
      </contour>
      <contour>
        <pt x="378" y="620" on="1"/>
        <pt x="378" y="648" on="1"/>
        <pt x="378" y="670" on="0"/>
        <pt x="415" y="696" on="0"/>
        <pt x="446" y="696" on="1"/>
        <pt x="473" y="696" on="0"/>
        <pt x="511" y="671" on="0"/>
        <pt x="511" y="648" on="1"/>
        <pt x="511" y="620" on="1"/>
        <pt x="511" y="597" on="0"/>
        <pt x="471" y="570" on="0"/>
        <pt x="445" y="570" on="1"/>
        <pt x="414" y="570" on="0"/>
        <pt x="378" y="597" on="0"/>
      </contour>
    </TTGlyph>
    <TTGlyph name="ae" xMin="38" yMin="-11" xMax="1039" yMax="515">
      <contour>
        <pt x="38" y="182" on="1"/>
        <pt x="38" y="316" on="0"/>
        <pt x="248" y="510" on="0"/>
        <pt x="381" y="510" on="1"/>
        <pt x="438" y="510" on="0"/>
        <pt x="535" y="451" on="0"/>
        <pt x="565" y="403" on="1"/>
        <pt x="607" y="458" on="0"/>
        <pt x="751" y="515" on="0"/>
        <pt x="829" y="515" on="1"/>
        <pt x="927" y="515" on="0"/>
        <pt x="1035" y="430" on="0"/>
        <pt x="1035" y="368" on="1"/>
        <pt x="1035" y="301" on="0"/>
        <pt x="909" y="207" on="0"/>
        <pt x="793" y="207" on="1"/>
        <pt x="690" y="207" on="0"/>
        <pt x="595" y="235" on="1"/>
        <pt x="598" y="156" on="0"/>
        <pt x="722" y="63" on="0"/>
        <pt x="807" y="63" on="1"/>
        <pt x="852" y="63" on="0"/>
        <pt x="949" y="91" on="0"/>
        <pt x="977" y="117" on="1"/>
        <pt x="981" y="125" on="0"/>
        <pt x="993" y="125" on="1"/>
        <pt x="1007" y="125" on="0"/>
        <pt x="1039" y="100" on="0"/>
        <pt x="1039" y="87" on="1"/>
        <pt x="1014" y="36" on="0"/>
        <pt x="869" y="-11" on="0"/>
        <pt x="801" y="-11" on="1"/>
        <pt x="678" y="-11" on="0"/>
        <pt x="599" y="70" on="1"/>
        <pt x="599" y="22" on="1"/>
        <pt x="599" y="9" on="0"/>
        <pt x="574" y="-6" on="0"/>
        <pt x="559" y="-6" on="1"/>
        <pt x="526" y="-6" on="0"/>
        <pt x="526" y="22" on="1"/>
        <pt x="526" y="191" on="1"/>
        <pt x="445" y="86" on="0"/>
        <pt x="298" y="-8" on="0"/>
        <pt x="220" y="-8" on="1"/>
        <pt x="148" y="-8" on="0"/>
        <pt x="38" y="109" on="0"/>
      </contour>
      <contour>
        <pt x="110" y="180" on="1"/>
        <pt x="110" y="123" on="0"/>
        <pt x="190" y="64" on="0"/>
        <pt x="235" y="64" on="1"/>
        <pt x="287" y="64" on="0"/>
        <pt x="421" y="167" on="0"/>
        <pt x="510" y="294" on="0"/>
        <pt x="510" y="330" on="1"/>
        <pt x="510" y="360" on="0"/>
        <pt x="475" y="407" on="0"/>
        <pt x="424" y="429" on="0"/>
        <pt x="382" y="440" on="0"/>
        <pt x="368" y="440" on="1"/>
        <pt x="270" y="440" on="0"/>
        <pt x="110" y="283" on="0"/>
      </contour>
      <contour>
        <pt x="599" y="314" on="1"/>
        <pt x="674" y="281" on="0"/>
        <pt x="785" y="281" on="1"/>
        <pt x="872" y="281" on="0"/>
        <pt x="962" y="336" on="0"/>
        <pt x="962" y="370" on="1"/>
        <pt x="962" y="400" on="0"/>
        <pt x="887" y="441" on="0"/>
        <pt x="813" y="441" on="1"/>
        <pt x="717" y="441" on="0"/>
        <pt x="613" y="369" on="0"/>
      </contour>
    </TTGlyph>
    <TTGlyph name="agrave" xMin="38" yMin="-8" xMax="600" yMax="750">
      <contour>
        <pt x="38" y="182" on="1"/>
        <pt x="38" y="316" on="0"/>
        <pt x="248" y="510" on="0"/>
        <pt x="381" y="510" on="1"/>
        <pt x="472" y="510" on="0"/>
        <pt x="600" y="372" on="0"/>
        <pt x="600" y="284" on="1"/>
        <pt x="599" y="22" on="1"/>
        <pt x="599" y="9" on="0"/>
        <pt x="574" y="-6" on="0"/>
        <pt x="559" y="-6" on="1"/>
        <pt x="526" y="-6" on="0"/>
        <pt x="526" y="22" on="1"/>
        <pt x="526" y="191" on="1"/>
        <pt x="445" y="86" on="0"/>
        <pt x="298" y="-8" on="0"/>
        <pt x="220" y="-8" on="1"/>
        <pt x="148" y="-8" on="0"/>
        <pt x="38" y="109" on="0"/>
      </contour>
      <contour>
        <pt x="110" y="180" on="1"/>
        <pt x="110" y="123" on="0"/>
        <pt x="190" y="64" on="0"/>
        <pt x="235" y="64" on="1"/>
        <pt x="287" y="64" on="0"/>
        <pt x="421" y="167" on="0"/>
        <pt x="510" y="294" on="0"/>
        <pt x="510" y="330" on="1"/>
        <pt x="510" y="360" on="0"/>
        <pt x="475" y="407" on="0"/>
        <pt x="424" y="429" on="0"/>
        <pt x="382" y="440" on="0"/>
        <pt x="368" y="440" on="1"/>
        <pt x="270" y="440" on="0"/>
        <pt x="110" y="283" on="0"/>
      </contour>
      <contour>
        <pt x="189" y="691" on="1"/>
        <pt x="189" y="711" on="0"/>
        <pt x="225" y="750" on="0"/>
        <pt x="247" y="750" on="1"/>
        <pt x="290" y="750" on="0"/>
        <pt x="360" y="620" on="0"/>
        <pt x="360" y="574" on="1"/>
        <pt x="360" y="547" on="0"/>
        <pt x="343" y="547" on="1"/>
        <pt x="332" y="547" on="0"/>
        <pt x="281" y="610" on="0"/>
        <pt x="261" y="619" on="1"/>
        <pt x="257" y="621" on="0"/>
        <pt x="232" y="631" on="0"/>
        <pt x="222" y="636" on="0"/>
        <pt x="204" y="649" on="0"/>
        <pt x="196" y="660" on="0"/>
        <pt x="189" y="679" on="0"/>
      </contour>
    </TTGlyph>
    <TTGlyph name="ampersand" xMin="44" yMin="7" xMax="550" yMax="700">
      <contour>
        <pt x="44" y="198" on="1"/>
        <pt x="44" y="264" on="0"/>
        <pt x="112" y="348" on="0"/>
        <pt x="172" y="383" on="1"/>
        <pt x="169" y="387" on="1"/>
        <pt x="103" y="463" on="0"/>
        <pt x="103" y="553" on="1"/>
        <pt x="103" y="619" on="0"/>
        <pt x="203" y="700" on="0"/>
        <pt x="269" y="700" on="1"/>
        <pt x="336" y="700" on="0"/>
        <pt x="435" y="616" on="0"/>
        <pt x="435" y="543" on="1"/>
        <pt x="435" y="476" on="0"/>
        <pt x="360" y="392" on="0"/>
        <pt x="293" y="356" on="1"/>
        <pt x="419" y="209" on="1"/>
        <pt x="456" y="270" on="1"/>
        <pt x="460" y="274" on="0"/>
        <pt x="468" y="274" on="1"/>
        <pt x="485" y="274" on="0"/>
        <pt x="510" y="241" on="0"/>
        <pt x="510" y="228" on="1"/>
        <pt x="510" y="220" on="0"/>
        <pt x="506" y="215" on="1"/>
        <pt x="466" y="155" on="1"/>
        <pt x="544" y="65" on="1"/>
        <pt x="550" y="58" on="0"/>
        <pt x="550" y="49" on="1"/>
        <pt x="550" y="37" on="0"/>
        <pt x="520" y="9" on="0"/>
        <pt x="505" y="9" on="1"/>
        <pt x="494" y="9" on="0"/>
        <pt x="488" y="16" on="1"/>
        <pt x="419" y="96" on="1"/>
        <pt x="337" y="7" on="0"/>
        <pt x="237" y="7" on="1"/>
        <pt x="154" y="7" on="0"/>
        <pt x="44" y="97" on="0"/>
      </contour>
      <contour>
        <pt x="118" y="193" on="1"/>
        <pt x="118" y="135" on="0"/>
        <pt x="190" y="81" on="0"/>
        <pt x="243" y="81" on="1"/>
        <pt x="317" y="81" on="0"/>
        <pt x="375" y="148" on="1"/>
        <pt x="226" y="321" on="1"/>
        <pt x="174" y="293" on="0"/>
        <pt x="118" y="235" on="0"/>
      </contour>
      <contour>
        <pt x="175" y="543" on="1"/>
        <pt x="175" y="494" on="0"/>
        <pt x="220" y="441" on="1"/>
        <pt x="239" y="418" on="1"/>
        <pt x="269" y="433" on="0"/>
        <pt x="304" y="454" on="0"/>
        <pt x="343" y="486" on="0"/>
        <pt x="361" y="523" on="0"/>
        <pt x="361" y="546" on="1"/>
        <pt x="361" y="584" on="0"/>
        <pt x="308" y="627" on="0"/>
        <pt x="271" y="627" on="1"/>
        <pt x="233" y="627" on="0"/>
        <pt x="175" y="582" on="0"/>
      </contour>
    </TTGlyph>
    <TTGlyph name="aring" xMin="38" yMin="-8" xMax="600" yMax="756">
      <contour>
        <pt x="38" y="182" on="1"/>
        <pt x="38" y="316" on="0"/>
        <pt x="248" y="510" on="0"/>
        <pt x="381" y="510" on="1"/>
        <pt x="472" y="510" on="0"/>
        <pt x="600" y="372" on="0"/>
        <pt x="600" y="284" on="1"/>
        <pt x="599" y="22" on="1"/>
        <pt x="599" y="9" on="0"/>
        <pt x="574" y="-6" on="0"/>
        <pt x="559" y="-6" on="1"/>
        <pt x="526" y="-6" on="0"/>
        <pt x="526" y="22" on="1"/>
        <pt x="526" y="191" on="1"/>
        <pt x="445" y="86" on="0"/>
        <pt x="298" y="-8" on="0"/>
        <pt x="220" y="-8" on="1"/>
        <pt x="148" y="-8" on="0"/>
        <pt x="38" y="109" on="0"/>
      </contour>
      <contour>
        <pt x="110" y="180" on="1"/>
        <pt x="110" y="123" on="0"/>
        <pt x="190" y="64" on="0"/>
        <pt x="235" y="64" on="1"/>
        <pt x="287" y="64" on="0"/>
        <pt x="421" y="167" on="0"/>
        <pt x="510" y="294" on="0"/>
        <pt x="510" y="330" on="1"/>
        <pt x="510" y="360" on="0"/>
        <pt x="475" y="407" on="0"/>
        <pt x="424" y="429" on="0"/>
        <pt x="382" y="440" on="0"/>
        <pt x="368" y="440" on="1"/>
        <pt x="270" y="440" on="0"/>
        <pt x="110" y="283" on="0"/>
      </contour>
      <contour>
        <pt x="199" y="652" on="1"/>
        <pt x="199" y="700" on="0"/>
        <pt x="269" y="756" on="0"/>
        <pt x="312" y="756" on="1"/>
        <pt x="352" y="756" on="0"/>
        <pt x="417" y="697" on="0"/>
        <pt x="417" y="652" on="1"/>
        <pt x="417" y="610" on="0"/>
        <pt x="358" y="550" on="0"/>
        <pt x="266" y="550" on="0"/>
        <pt x="199" y="611" on="0"/>
      </contour>
      <contour>
        <pt x="263" y="651" on="1"/>
        <pt x="263" y="637" on="0"/>
        <pt x="293" y="612" on="0"/>
        <pt x="312" y="612" on="1"/>
        <pt x="327" y="612" on="0"/>
        <pt x="352" y="638" on="0"/>
        <pt x="352" y="666" on="0"/>
        <pt x="328" y="693" on="0"/>
        <pt x="312" y="693" on="1"/>
        <pt x="289" y="693" on="0"/>
        <pt x="263" y="666" on="0"/>
      </contour>
    </TTGlyph>
    <TTGlyph name="asciicircum" xMin="118" yMin="380" xMax="551" yMax="700">
      <contour>
        <pt x="118" y="416" on="1"/>
        <pt x="118" y="422" on="0"/>
        <pt x="122" y="427" on="1"/>
        <pt x="287" y="665" on="1"/>
        <pt x="312" y="700" on="0"/>
        <pt x="356" y="700" on="0"/>
        <pt x="380" y="665" on="1"/>
        <pt x="547" y="427" on="1"/>
        <pt x="551" y="422" on="0"/>
        <pt x="551" y="416" on="1"/>
        <pt x="551" y="403" on="0"/>
        <pt x="517" y="380" on="0"/>
        <pt x="491" y="380" on="0"/>
        <pt x="480" y="395" on="1"/>
        <pt x="334" y="590" on="1"/>
        <pt x="189" y="395" on="1"/>
        <pt x="178" y="380" on="0"/>
        <pt x="165" y="380" on="1"/>
        <pt x="151" y="380" on="0"/>
        <pt x="118" y="403" on="0"/>
      </contour>
    </TTGlyph>
    <TTGlyph name="asciitilde" xMin="54" yMin="208" xMax="666" yMax="385">
      <contour>
        <pt x="54" y="241" on="1"/>
        <pt x="55" y="301" on="0"/>
        <pt x="168" y="385" on="0"/>
        <pt x="237" y="385" on="1"/>
        <pt x="270" y="385" on="0"/>
        <pt x="328" y="363" on="0"/>
        <pt x="358" y="342" on="0"/>
        <pt x="385" y="320" on="1"/>
        <pt x="436" y="280" on="0"/>
        <pt x="477" y="280" on="1"/>
        <pt x="520" y="280" on="0"/>
        <pt x="590" y="324" on="0"/>
        <pt x="590" y="353" on="1"/>
        <pt x="590" y="367" on="0"/>
        <pt x="614" y="385" on="0"/>
        <pt x="630" y="385" on="1"/>
        <pt x="645" y="385" on="0"/>
        <pt x="666" y="368" on="0"/>
        <pt x="666" y="352" on="1"/>
        <pt x="665" y="292" on="0"/>
        <pt x="552" y="208" on="0"/>
        <pt x="483" y="208" on="1"/>
        <pt x="430" y="208" on="0"/>
        <pt x="387" y="232" on="1"/>
        <pt x="368" y="242" on="0"/>
        <pt x="315" y="287" on="0"/>
        <pt x="269" y="313" on="0"/>
        <pt x="243" y="313" on="1"/>
        <pt x="200" y="313" on="0"/>
        <pt x="130" y="269" on="0"/>
        <pt x="130" y="240" on="1"/>
        <pt x="130" y="226" on="0"/>
        <pt x="106" y="208" on="0"/>
        <pt x="90" y="208" on="1"/>
        <pt x="75" y="208" on="0"/>
        <pt x="54" y="225" on="0"/>
      </contour>
    </TTGlyph>
    <TTGlyph name="asterisk" xMin="60" yMin="300" xMax="376" yMax="650">
      <contour>
        <pt x="60" y="401" on="1"/>
        <pt x="60" y="412" on="0"/>
        <pt x="67" y="417" on="1"/>
        <pt x="153" y="475" on="1"/>
        <pt x="68" y="533" on="1"/>
        <pt x="61" y="540" on="0"/>
        <pt x="61" y="550" on="1"/>
        <pt x="61" y="565" on="0"/>
        <pt x="87" y="593" on="0"/>
        <pt x="102" y="593" on="1"/>
        <pt x="108" y="593" on="0"/>
        <pt x="120" y="585" on="1"/>
        <pt x="181" y="544" on="1"/>
        <pt x="181" y="622" on="1"/>
        <pt x="181" y="635" on="0"/>
        <pt x="203" y="650" on="0"/>
        <pt x="218" y="650" on="1"/>
        <pt x="255" y="650" on="0"/>
        <pt x="255" y="622" on="1"/>
        <pt x="255" y="544" on="1"/>
        <pt x="316" y="585" on="1"/>
        <pt x="323" y="592" on="0"/>
        <pt x="333" y="592" on="1"/>
        <pt x="348" y="592" on="0"/>
        <pt x="376" y="566" on="0"/>
        <pt x="376" y="551" on="1"/>
        <pt x="376" y="538" on="0"/>
        <pt x="368" y="533" on="1"/>
        <pt x="283" y="475" on="1"/>
        <pt x="369" y="417" on="1"/>
        <pt x="376" y="410" on="0"/>
        <pt x="376" y="400" on="1"/>
        <pt x="376" y="386" on="0"/>
        <pt x="347" y="357" on="0"/>
        <pt x="332" y="357" on="1"/>
        <pt x="323" y="357" on="0"/>
        <pt x="316" y="364" on="1"/>
        <pt x="255" y="405" on="1"/>
        <pt x="255" y="327" on="1"/>
        <pt x="255" y="300" on="0"/>
        <pt x="217" y="300" on="1"/>
        <pt x="202" y="300" on="0"/>
        <pt x="181" y="314" on="0"/>
        <pt x="181" y="327" on="1"/>
        <pt x="181" y="405" on="1"/>
        <pt x="120" y="364" on="1"/>
        <pt x="110" y="357" on="0"/>
        <pt x="103" y="357" on="1"/>
        <pt x="89" y="357" on="0"/>
        <pt x="60" y="386" on="0"/>
      </contour>
    </TTGlyph>
    <TTGlyph name="at" xMin="51" yMin="-84" xMax="752" yMax="608">
      <contour>
        <pt x="51" y="240" on="1"/>
        <pt x="51" y="321" on="0"/>
        <pt x="121" y="462" on="0"/>
        <pt x="232" y="555" on="0"/>
        <pt x="366" y="608" on="0"/>
        <pt x="432" y="608" on="1"/>
        <pt x="577" y="608" on="0"/>
        <pt x="752" y="445" on="0"/>
        <pt x="752" y="310" on="1"/>
        <pt x="752" y="227" on="0"/>
        <pt x="641" y="76" on="0"/>
        <pt x="560" y="76" on="1"/>
        <pt x="527" y="76" on="0"/>
        <pt x="527" y="105" on="1"/>
        <pt x="527" y="182" on="1"/>
        <pt x="454" y="69" on="0"/>
        <pt x="332" y="69" on="1"/>
        <pt x="277" y="69" on="0"/>
        <pt x="195" y="143" on="0"/>
        <pt x="195" y="212" on="1"/>
        <pt x="195" y="308" on="0"/>
        <pt x="347" y="457" on="0"/>
        <pt x="445" y="457" on="1"/>
        <pt x="523" y="457" on="0"/>
        <pt x="598" y="364" on="0"/>
        <pt x="598" y="283" on="1"/>
        <pt x="598" y="156" on="1"/>
        <pt x="635" y="175" on="0"/>
        <pt x="679" y="268" on="0"/>
        <pt x="679" y="317" on="1"/>
        <pt x="679" y="407" on="0"/>
        <pt x="560" y="534" on="0"/>
        <pt x="450" y="534" on="1"/>
        <pt x="320" y="534" on="0"/>
        <pt x="123" y="359" on="0"/>
        <pt x="123" y="238" on="1"/>
        <pt x="123" y="119" on="0"/>
        <pt x="244" y="-13" on="0"/>
        <pt x="345" y="-13" on="1"/>
        <pt x="388" y="-13" on="0"/>
        <pt x="465" y="11" on="0"/>
        <pt x="479" y="27" on="1"/>
        <pt x="486" y="35" on="0"/>
        <pt x="499" y="35" on="1"/>
        <pt x="509" y="35" on="0"/>
        <pt x="536" y="11" on="0"/>
        <pt x="536" y="0" on="1"/>
        <pt x="536" y="-28" on="0"/>
        <pt x="415" y="-84" on="0"/>
        <pt x="345" y="-84" on="1"/>
        <pt x="215" y="-84" on="0"/>
        <pt x="51" y="96" on="0"/>
      </contour>
      <contour>
        <pt x="269" y="212" on="1"/>
        <pt x="269" y="143" on="0"/>
        <pt x="343" y="143" on="1"/>
        <pt x="398" y="143" on="0"/>
        <pt x="525" y="275" on="0"/>
        <pt x="525" y="317" on="1"/>
        <pt x="525" y="338" on="0"/>
        <pt x="504" y="367" on="0"/>
        <pt x="471" y="379" on="0"/>
        <pt x="447" y="384" on="0"/>
        <pt x="436" y="384" on="1"/>
        <pt x="368" y="384" on="0"/>
        <pt x="269" y="284" on="0"/>
      </contour>
    </TTGlyph>
    <TTGlyph name="atilde" xMin="38" yMin="-8" xMax="600" yMax="698">
      <contour>
        <pt x="38" y="182" on="1"/>
        <pt x="38" y="316" on="0"/>
        <pt x="248" y="510" on="0"/>
        <pt x="381" y="510" on="1"/>
        <pt x="472" y="510" on="0"/>
        <pt x="600" y="372" on="0"/>
        <pt x="600" y="284" on="1"/>
        <pt x="599" y="22" on="1"/>
        <pt x="599" y="9" on="0"/>
        <pt x="574" y="-6" on="0"/>
        <pt x="559" y="-6" on="1"/>
        <pt x="526" y="-6" on="0"/>
        <pt x="526" y="22" on="1"/>
        <pt x="526" y="191" on="1"/>
        <pt x="445" y="86" on="0"/>
        <pt x="298" y="-8" on="0"/>
        <pt x="220" y="-8" on="1"/>
        <pt x="148" y="-8" on="0"/>
        <pt x="38" y="109" on="0"/>
      </contour>
      <contour>
        <pt x="110" y="180" on="1"/>
        <pt x="110" y="123" on="0"/>
        <pt x="190" y="64" on="0"/>
        <pt x="235" y="64" on="1"/>
        <pt x="287" y="64" on="0"/>
        <pt x="421" y="167" on="0"/>
        <pt x="510" y="294" on="0"/>
        <pt x="510" y="330" on="1"/>
        <pt x="510" y="360" on="0"/>
        <pt x="475" y="407" on="0"/>
        <pt x="424" y="429" on="0"/>
        <pt x="382" y="440" on="0"/>
        <pt x="368" y="440" on="1"/>
        <pt x="270" y="440" on="0"/>
        <pt x="110" y="283" on="0"/>
      </contour>
      <contour>
        <pt x="115" y="598" on="1"/>
        <pt x="115" y="640" on="0"/>
        <pt x="186" y="698" on="0"/>
        <pt x="233" y="698" on="1"/>
        <pt x="256" y="698" on="0"/>
        <pt x="297" y="683" on="0"/>
        <pt x="317" y="669" on="0"/>
        <pt x="336" y="653" on="1"/>
        <pt x="373" y="625" on="0"/>
        <pt x="401" y="625" on="1"/>
        <pt x="430" y="625" on="0"/>
        <pt x="470" y="655" on="0"/>
        <pt x="470" y="676" on="1"/>
        <pt x="470" y="686" on="0"/>
        <pt x="487" y="698" on="0"/>
        <pt x="498" y="698" on="1"/>
        <pt x="523" y="698" on="0"/>
        <pt x="523" y="655" on="1"/>
        <pt x="522" y="613" on="0"/>
        <pt x="452" y="555" on="0"/>
        <pt x="405" y="555" on="1"/>
        <pt x="368" y="555" on="0"/>
        <pt x="338" y="571" on="1"/>
        <pt x="325" y="578" on="0"/>
        <pt x="287" y="610" on="0"/>
        <pt x="255" y="628" on="0"/>
        <pt x="237" y="628" on="1"/>
        <pt x="208" y="628" on="0"/>
        <pt x="168" y="598" on="0"/>
        <pt x="168" y="577" on="1"/>
        <pt x="168" y="567" on="0"/>
        <pt x="151" y="555" on="0"/>
        <pt x="140" y="555" on="1"/>
        <pt x="115" y="555" on="0"/>
      </contour>
    </TTGlyph>
    <TTGlyph name="b" xMin="60" yMin="-8" xMax="622" yMax="750">
      <contour>
        <pt x="60" y="28" on="1"/>
        <pt x="60" y="724" on="1"/>
        <pt x="60" y="750" on="0"/>
        <pt x="98" y="750" on="1"/>
        <pt x="134" y="750" on="0"/>
        <pt x="134" y="724" on="1"/>
        <pt x="134" y="451" on="1"/>
        <pt x="196" y="510" on="0"/>
        <pt x="279" y="510" on="1"/>
        <pt x="412" y="510" on="0"/>
        <pt x="622" y="316" on="0"/>
        <pt x="622" y="182" on="1"/>
        <pt x="622" y="109" on="0"/>
        <pt x="512" y="-8" on="0"/>
        <pt x="440" y="-8" on="1"/>
        <pt x="362" y="-8" on="0"/>
        <pt x="215" y="86" on="0"/>
        <pt x="134" y="191" on="1"/>
        <pt x="134" y="28" on="1"/>
        <pt x="134" y="15" on="0"/>
        <pt x="112" y="0" on="0"/>
        <pt x="97" y="0" on="1"/>
        <pt x="60" y="0" on="0"/>
      </contour>
      <contour>
        <pt x="150" y="330" on="1"/>
        <pt x="150" y="294" on="0"/>
        <pt x="239" y="167" on="0"/>
        <pt x="373" y="64" on="0"/>
        <pt x="425" y="64" on="1"/>
        <pt x="470" y="64" on="0"/>
        <pt x="550" y="123" on="0"/>
        <pt x="550" y="180" on="1"/>
        <pt x="550" y="283" on="0"/>
        <pt x="390" y="440" on="0"/>
        <pt x="292" y="440" on="1"/>
        <pt x="278" y="440" on="0"/>
        <pt x="236" y="429" on="0"/>
        <pt x="185" y="407" on="0"/>
        <pt x="150" y="360" on="0"/>
      </contour>
    </TTGlyph>
    <TTGlyph name="backslash" xMin="30" yMin="-120" xMax="716" yMax="708">
      <contour>
        <pt x="30" y="672" on="1"/>
        <pt x="30" y="684" on="0"/>
        <pt x="58" y="708" on="0"/>
        <pt x="74" y="708" on="1"/>
        <pt x="86" y="708" on="0"/>
        <pt x="94" y="699" on="1"/>
        <pt x="700" y="-48" on="1"/>
        <pt x="716" y="-68" on="0"/>
        <pt x="716" y="-85" on="1"/>
        <pt x="716" y="-100" on="0"/>
        <pt x="692" y="-120" on="0"/>
        <pt x="677" y="-120" on="1"/>
        <pt x="663" y="-120" on="0"/>
        <pt x="654" y="-110" on="1"/>
        <pt x="41" y="647" on="1"/>
        <pt x="30" y="661" on="0"/>
      </contour>
    </TTGlyph>
    <TTGlyph name="bar" xMin="71" yMin="-170" xMax="145" yMax="750">
      <contour>
        <pt x="71" y="-142" on="1"/>
        <pt x="71" y="723" on="1"/>
        <pt x="71" y="750" on="0"/>
        <pt x="109" y="750" on="1"/>
        <pt x="124" y="750" on="0"/>
        <pt x="145" y="736" on="0"/>
        <pt x="145" y="723" on="1"/>
        <pt x="145" y="-142" on="1"/>
        <pt x="145" y="-155" on="0"/>
        <pt x="123" y="-170" on="0"/>
        <pt x="108" y="-170" on="1"/>
        <pt x="71" y="-170" on="0"/>
      </contour>
    </TTGlyph>
    <TTGlyph name="braceleft" xMin="49" yMin="-158" xMax="286" yMax="712">
      <contour>
        <pt x="49" y="-15" on="1"/>
        <pt x="49" y="18" on="0"/>
        <pt x="82" y="78" on="0"/>
        <pt x="121" y="117" on="0"/>
        <pt x="154" y="169" on="0"/>
        <pt x="154" y="195" on="1"/>
        <pt x="154" y="222" on="0"/>
        <pt x="135" y="239" on="0"/>
        <pt x="115" y="239" on="1"/>
        <pt x="49" y="239" on="0"/>
        <pt x="49" y="278" on="1"/>
        <pt x="49" y="315" on="0"/>
        <pt x="106" y="315" on="1"/>
        <pt x="123" y="315" on="0"/>
        <pt x="139" y="318" on="0"/>
        <pt x="154" y="338" on="0"/>
        <pt x="154" y="359" on="1"/>
        <pt x="154" y="385" on="0"/>
        <pt x="121" y="437" on="0"/>
        <pt x="82" y="476" on="0"/>
        <pt x="49" y="536" on="0"/>
        <pt x="49" y="569" on="1"/>
        <pt x="49" y="630" on="0"/>
        <pt x="183" y="711" on="0"/>
        <pt x="253" y="712" on="1"/>
        <pt x="269" y="712" on="0"/>
        <pt x="286" y="691" on="0"/>
        <pt x="286" y="676" on="1"/>
        <pt x="286" y="660" on="0"/>
        <pt x="268" y="636" on="0"/>
        <pt x="254" y="636" on="1"/>
        <pt x="237" y="636" on="0"/>
        <pt x="196" y="629" on="0"/>
        <pt x="151" y="613" on="0"/>
        <pt x="121" y="583" on="0"/>
        <pt x="121" y="563" on="1"/>
        <pt x="121" y="536" on="0"/>
        <pt x="154" y="484" on="0"/>
        <pt x="193" y="446" on="0"/>
        <pt x="226" y="386" on="0"/>
        <pt x="226" y="353" on="1"/>
        <pt x="226" y="304" on="0"/>
        <pt x="201" y="277" on="1"/>
        <pt x="226" y="249" on="0"/>
        <pt x="226" y="201" on="1"/>
        <pt x="226" y="167" on="0"/>
        <pt x="193" y="107" on="0"/>
        <pt x="154" y="69" on="0"/>
        <pt x="121" y="17" on="0"/>
        <pt x="121" y="-9" on="1"/>
        <pt x="121" y="-29" on="0"/>
        <pt x="151" y="-59" on="0"/>
        <pt x="196" y="-75" on="0"/>
        <pt x="237" y="-82" on="0"/>
        <pt x="254" y="-82" on="1"/>
        <pt x="268" y="-82" on="0"/>
        <pt x="286" y="-106" on="0"/>
        <pt x="286" y="-122" on="1"/>
        <pt x="286" y="-137" on="0"/>
        <pt x="269" y="-158" on="0"/>
        <pt x="253" y="-158" on="1"/>
        <pt x="183" y="-157" on="0"/>
        <pt x="49" y="-76" on="0"/>
      </contour>
    </TTGlyph>
    <TTGlyph name="braceright" xMin="38" yMin="-158" xMax="275" yMax="712">
      <contour>
        <pt x="38" y="-122" on="1"/>
        <pt x="38" y="-106" on="0"/>
        <pt x="56" y="-82" on="0"/>
        <pt x="70" y="-82" on="1"/>
        <pt x="87" y="-82" on="0"/>
        <pt x="128" y="-75" on="0"/>
        <pt x="173" y="-59" on="0"/>
        <pt x="203" y="-29" on="0"/>
        <pt x="203" y="-9" on="1"/>
        <pt x="203" y="17" on="0"/>
        <pt x="170" y="69" on="0"/>
        <pt x="131" y="107" on="0"/>
        <pt x="98" y="167" on="0"/>
        <pt x="98" y="201" on="1"/>
        <pt x="98" y="249" on="0"/>
        <pt x="123" y="277" on="1"/>
        <pt x="98" y="304" on="0"/>
        <pt x="98" y="353" on="1"/>
        <pt x="98" y="386" on="0"/>
        <pt x="131" y="446" on="0"/>
        <pt x="170" y="484" on="0"/>
        <pt x="203" y="536" on="0"/>
        <pt x="203" y="563" on="1"/>
        <pt x="203" y="583" on="0"/>
        <pt x="173" y="613" on="0"/>
        <pt x="128" y="629" on="0"/>
        <pt x="87" y="636" on="0"/>
        <pt x="70" y="636" on="1"/>
        <pt x="56" y="636" on="0"/>
        <pt x="38" y="660" on="0"/>
        <pt x="38" y="676" on="1"/>
        <pt x="38" y="691" on="0"/>
        <pt x="55" y="712" on="0"/>
        <pt x="71" y="712" on="1"/>
        <pt x="141" y="711" on="0"/>
        <pt x="275" y="630" on="0"/>
        <pt x="275" y="569" on="1"/>
        <pt x="275" y="536" on="0"/>
        <pt x="242" y="476" on="0"/>
        <pt x="203" y="437" on="0"/>
        <pt x="170" y="385" on="0"/>
        <pt x="170" y="359" on="1"/>
        <pt x="170" y="338" on="0"/>
        <pt x="185" y="318" on="0"/>
        <pt x="201" y="315" on="0"/>
        <pt x="218" y="315" on="1"/>
        <pt x="275" y="315" on="0"/>
        <pt x="275" y="278" on="1"/>
        <pt x="275" y="239" on="0"/>
        <pt x="209" y="239" on="1"/>
        <pt x="189" y="239" on="0"/>
        <pt x="170" y="222" on="0"/>
        <pt x="170" y="195" on="1"/>
        <pt x="170" y="169" on="0"/>
        <pt x="203" y="117" on="0"/>
        <pt x="242" y="78" on="0"/>
        <pt x="275" y="18" on="0"/>
        <pt x="275" y="-15" on="1"/>
        <pt x="275" y="-76" on="0"/>
        <pt x="141" y="-157" on="0"/>
        <pt x="71" y="-158" on="1"/>
        <pt x="55" y="-158" on="0"/>
        <pt x="38" y="-137" on="0"/>
      </contour>
    </TTGlyph>
    <TTGlyph name="bracketleft" xMin="71" yMin="-171" xMax="269" yMax="750">
      <contour>
        <pt x="71" y="-142" on="1"/>
        <pt x="71" y="723" on="1"/>
        <pt x="71" y="739" on="0"/>
        <pt x="89" y="750" on="0"/>
        <pt x="113" y="750" on="1"/>
        <pt x="241" y="750" on="1"/>
        <pt x="254" y="750" on="0"/>
        <pt x="269" y="728" on="0"/>
        <pt x="269" y="713" on="1"/>
        <pt x="269" y="676" on="0"/>
        <pt x="241" y="676" on="1"/>
        <pt x="145" y="676" on="1"/>
        <pt x="145" y="-97" on="1"/>
        <pt x="241" y="-97" on="1"/>
        <pt x="254" y="-97" on="0"/>
        <pt x="269" y="-119" on="0"/>
        <pt x="269" y="-134" on="1"/>
        <pt x="269" y="-171" on="0"/>
        <pt x="241" y="-171" on="1"/>
        <pt x="106" y="-171" on="1"/>
        <pt x="94" y="-171" on="0"/>
        <pt x="71" y="-154" on="0"/>
      </contour>
    </TTGlyph>
    <TTGlyph name="bracketright" xMin="32" yMin="-171" xMax="230" yMax="750">
      <contour>
        <pt x="32" y="-134" on="1"/>
        <pt x="32" y="-119" on="0"/>
        <pt x="47" y="-97" on="0"/>
        <pt x="60" y="-97" on="1"/>
        <pt x="156" y="-97" on="1"/>
        <pt x="156" y="676" on="1"/>
        <pt x="60" y="676" on="1"/>
        <pt x="32" y="676" on="0"/>
        <pt x="32" y="713" on="1"/>
        <pt x="32" y="728" on="0"/>
        <pt x="47" y="750" on="0"/>
        <pt x="60" y="750" on="1"/>
        <pt x="188" y="750" on="1"/>
        <pt x="212" y="750" on="0"/>
        <pt x="230" y="739" on="0"/>
        <pt x="230" y="723" on="1"/>
        <pt x="230" y="-142" on="1"/>
        <pt x="230" y="-154" on="0"/>
        <pt x="207" y="-171" on="0"/>
        <pt x="195" y="-171" on="1"/>
        <pt x="60" y="-171" on="1"/>
        <pt x="32" y="-171" on="0"/>
      </contour>
    </TTGlyph>
    <TTGlyph name="brokenbar" xMin="72" yMin="-170" xMax="146" yMax="750">
      <contour>
        <pt x="72" y="-142" on="1"/>
        <pt x="72" y="153" on="1"/>
        <pt x="72" y="180" on="0"/>
        <pt x="110" y="180" on="1"/>
        <pt x="125" y="180" on="0"/>
        <pt x="146" y="166" on="0"/>
        <pt x="146" y="153" on="1"/>
        <pt x="146" y="-142" on="1"/>
        <pt x="146" y="-155" on="0"/>
        <pt x="124" y="-170" on="0"/>
        <pt x="109" y="-170" on="1"/>
        <pt x="72" y="-170" on="0"/>
      </contour>
      <contour>
        <pt x="72" y="427" on="1"/>
        <pt x="72" y="722" on="1"/>
        <pt x="72" y="735" on="0"/>
        <pt x="94" y="750" on="0"/>
        <pt x="109" y="750" on="1"/>
        <pt x="146" y="750" on="0"/>
        <pt x="146" y="722" on="1"/>
        <pt x="146" y="427" on="1"/>
        <pt x="146" y="400" on="0"/>
        <pt x="108" y="400" on="1"/>
        <pt x="93" y="400" on="0"/>
        <pt x="72" y="414" on="0"/>
      </contour>
    </TTGlyph>
    <TTGlyph name="bullet" xMin="53" yMin="179" xMax="355" yMax="465">
      <contour>
        <pt x="53" y="321" on="1"/>
        <pt x="53" y="389" on="0"/>
        <pt x="149" y="465" on="0"/>
        <pt x="210" y="465" on="1"/>
        <pt x="264" y="465" on="0"/>
        <pt x="355" y="384" on="0"/>
        <pt x="355" y="321" on="1"/>
        <pt x="355" y="262" on="0"/>
        <pt x="274" y="179" on="0"/>
        <pt x="208" y="179" on="1"/>
        <pt x="144" y="179" on="0"/>
        <pt x="53" y="263" on="0"/>
      </contour>
    </TTGlyph>
    <TTGlyph name="c" xMin="38" yMin="-15" xMax="535" yMax="515">
      <contour>
        <pt x="38" y="248" on="1"/>
        <pt x="38" y="334" on="0"/>
        <pt x="130" y="459" on="0"/>
        <pt x="260" y="515" on="0"/>
        <pt x="331" y="515" on="1"/>
        <pt x="421" y="515" on="0"/>
        <pt x="498" y="453" on="1"/>
        <pt x="506" y="446" on="0"/>
        <pt x="506" y="435" on="1"/>
        <pt x="506" y="419" on="0"/>
        <pt x="480" y="392" on="0"/>
        <pt x="466" y="392" on="1"/>
        <pt x="456" y="392" on="0"/>
        <pt x="449" y="399" on="1"/>
        <pt x="401" y="441" on="0"/>
        <pt x="329" y="441" on="1"/>
        <pt x="227" y="441" on="0"/>
        <pt x="112" y="317" on="0"/>
        <pt x="112" y="247" on="1"/>
        <pt x="112" y="176" on="0"/>
        <pt x="244" y="59" on="0"/>
        <pt x="330" y="59" on="1"/>
        <pt x="418" y="59" on="0"/>
        <pt x="473" y="122" on="1"/>
        <pt x="484" y="133" on="0"/>
        <pt x="492" y="133" on="1"/>
        <pt x="507" y="133" on="0"/>
        <pt x="535" y="103" on="0"/>
        <pt x="535" y="89" on="1"/>
        <pt x="535" y="80" on="0"/>
        <pt x="528" y="73" on="1"/>
        <pt x="451" y="-15" on="0"/>
        <pt x="335" y="-15" on="1"/>
        <pt x="212" y="-15" on="0"/>
        <pt x="38" y="140" on="0"/>
      </contour>
    </TTGlyph>
    <TTGlyph name="ccedilla" xMin="38" yMin="-225" xMax="535" yMax="515">
      <contour>
        <pt x="38" y="248" on="1"/>
        <pt x="38" y="334" on="0"/>
        <pt x="130" y="459" on="0"/>
        <pt x="260" y="515" on="0"/>
        <pt x="331" y="515" on="1"/>
        <pt x="421" y="515" on="0"/>
        <pt x="498" y="453" on="1"/>
        <pt x="506" y="446" on="0"/>
        <pt x="506" y="435" on="1"/>
        <pt x="506" y="419" on="0"/>
        <pt x="480" y="392" on="0"/>
        <pt x="466" y="392" on="1"/>
        <pt x="456" y="392" on="0"/>
        <pt x="449" y="399" on="1"/>
        <pt x="401" y="441" on="0"/>
        <pt x="329" y="441" on="1"/>
        <pt x="227" y="441" on="0"/>
        <pt x="112" y="317" on="0"/>
        <pt x="112" y="247" on="1"/>
        <pt x="112" y="176" on="0"/>
        <pt x="244" y="59" on="0"/>
        <pt x="330" y="59" on="1"/>
        <pt x="418" y="59" on="0"/>
        <pt x="473" y="122" on="1"/>
        <pt x="484" y="133" on="0"/>
        <pt x="492" y="133" on="1"/>
        <pt x="507" y="133" on="0"/>
        <pt x="535" y="103" on="0"/>
        <pt x="535" y="89" on="1"/>
        <pt x="535" y="80" on="0"/>
        <pt x="528" y="73" on="1"/>
        <pt x="451" y="-15" on="0"/>
        <pt x="335" y="-15" on="1"/>
        <pt x="325" y="-15" on="0"/>
        <pt x="307" y="-13" on="1"/>
        <pt x="307" y="-36" on="1"/>
        <pt x="335" y="-36" on="0"/>
        <pt x="397" y="-85" on="0"/>
        <pt x="397" y="-133" on="1"/>
        <pt x="397" y="-177" on="0"/>
        <pt x="331" y="-225" on="0"/>
        <pt x="291" y="-225" on="1"/>
        <pt x="232" y="-225" on="0"/>
        <pt x="176" y="-178" on="0"/>
        <pt x="176" y="-149" on="1"/>
        <pt x="176" y="-135" on="0"/>
        <pt x="197" y="-119" on="0"/>
        <pt x="210" y="-119" on="1"/>
        <pt x="230" y="-119" on="0"/>
        <pt x="232" y="-134" on="1"/>
        <pt x="235" y="-171" on="0"/>
        <pt x="277" y="-171" on="1"/>
        <pt x="296" y="-171" on="0"/>
        <pt x="325" y="-153" on="0"/>
        <pt x="325" y="-137" on="1"/>
        <pt x="325" y="-118" on="0"/>
        <pt x="308" y="-93" on="0"/>
        <pt x="274" y="-82" on="0"/>
        <pt x="252" y="-79" on="0"/>
        <pt x="233" y="-78" on="1"/>
        <pt x="233" y="1" on="1"/>
        <pt x="147" y="29" on="0"/>
        <pt x="38" y="165" on="0"/>
      </contour>
    </TTGlyph>
    <TTGlyph name="cedilla" xMin="38" yMin="-225" xMax="259" yMax="0">
      <contour>
        <pt x="38" y="-149" on="1"/>
        <pt x="38" y="-135" on="0"/>
        <pt x="59" y="-119" on="0"/>
        <pt x="72" y="-119" on="1"/>
        <pt x="92" y="-119" on="0"/>
        <pt x="94" y="-134" on="1"/>
        <pt x="97" y="-171" on="0"/>
        <pt x="139" y="-171" on="1"/>
        <pt x="158" y="-171" on="0"/>
        <pt x="187" y="-153" on="0"/>
        <pt x="187" y="-137" on="1"/>
        <pt x="187" y="-118" on="0"/>
        <pt x="170" y="-93" on="0"/>
        <pt x="136" y="-82" on="0"/>
        <pt x="114" y="-79" on="0"/>
        <pt x="95" y="-78" on="1"/>
        <pt x="95" y="-11" on="1"/>
        <pt x="98" y="0" on="0"/>
        <pt x="133" y="0" on="1"/>
        <pt x="169" y="0" on="0"/>
        <pt x="169" y="-11" on="1"/>
        <pt x="169" y="-36" on="1"/>
        <pt x="197" y="-36" on="0"/>
        <pt x="259" y="-85" on="0"/>
        <pt x="259" y="-133" on="1"/>
        <pt x="259" y="-177" on="0"/>
        <pt x="193" y="-225" on="0"/>
        <pt x="153" y="-225" on="1"/>
        <pt x="94" y="-225" on="0"/>
        <pt x="38" y="-178" on="0"/>
      </contour>
    </TTGlyph>
    <TTGlyph name="cent" xMin="34" yMin="-186" xMax="531" yMax="734">
      <contour>
        <pt x="34" y="260" on="1"/>
        <pt x="34" y="362" on="0"/>
        <pt x="155" y="494" on="0"/>
        <pt x="245" y="516" on="1"/>
        <pt x="245" y="707" on="1"/>
        <pt x="245" y="734" on="0"/>
        <pt x="283" y="734" on="1"/>
        <pt x="298" y="734" on="0"/>
        <pt x="319" y="720" on="0"/>
        <pt x="319" y="707" on="1"/>
        <pt x="319" y="527" on="1"/>
        <pt x="327" y="527" on="1"/>
        <pt x="417" y="527" on="0"/>
        <pt x="494" y="465" on="1"/>
        <pt x="502" y="458" on="0"/>
        <pt x="502" y="447" on="1"/>
        <pt x="502" y="431" on="0"/>
        <pt x="476" y="404" on="0"/>
        <pt x="462" y="404" on="1"/>
        <pt x="452" y="404" on="0"/>
        <pt x="445" y="411" on="1"/>
        <pt x="397" y="453" on="0"/>
        <pt x="325" y="453" on="1"/>
        <pt x="319" y="453" on="1"/>
        <pt x="319" y="71" on="1"/>
        <pt x="326" y="71" on="1"/>
        <pt x="414" y="71" on="0"/>
        <pt x="469" y="134" on="1"/>
        <pt x="480" y="145" on="0"/>
        <pt x="488" y="145" on="1"/>
        <pt x="503" y="145" on="0"/>
        <pt x="531" y="115" on="0"/>
        <pt x="531" y="101" on="1"/>
        <pt x="531" y="92" on="0"/>
        <pt x="524" y="85" on="1"/>
        <pt x="447" y="-3" on="0"/>
        <pt x="331" y="-3" on="1"/>
        <pt x="319" y="-3" on="1"/>
        <pt x="319" y="-158" on="1"/>
        <pt x="319" y="-171" on="0"/>
        <pt x="297" y="-186" on="0"/>
        <pt x="282" y="-186" on="1"/>
        <pt x="245" y="-186" on="0"/>
        <pt x="245" y="-158" on="1"/>
        <pt x="245" y="8" on="1"/>
        <pt x="152" y="33" on="0"/>
        <pt x="34" y="173" on="0"/>
      </contour>
      <contour>
        <pt x="108" y="259" on="1"/>
        <pt x="108" y="207" on="0"/>
        <pt x="185" y="109" on="0"/>
        <pt x="245" y="86" on="1"/>
        <pt x="245" y="440" on="1"/>
        <pt x="179" y="418" on="0"/>
        <pt x="108" y="313" on="0"/>
      </contour>
    </TTGlyph>
    <TTGlyph name="circumflex" xMin="24" yMin="551" xMax="357" yMax="750">
      <contour>
        <pt x="24" y="586" on="1"/>
        <pt x="24" y="592" on="0"/>
        <pt x="28" y="597" on="1"/>
        <pt x="143" y="715" on="1"/>
        <pt x="146" y="718" on="0"/>
        <pt x="157" y="730" on="0"/>
        <pt x="163" y="735" on="0"/>
        <pt x="172" y="743" on="0"/>
        <pt x="178" y="747" on="0"/>
        <pt x="186" y="750" on="0"/>
        <pt x="194" y="750" on="0"/>
        <pt x="203" y="746" on="0"/>
        <pt x="214" y="738" on="0"/>
        <pt x="220" y="731" on="0"/>
        <pt x="226" y="724" on="1"/>
        <pt x="236" y="715" on="1"/>
        <pt x="353" y="597" on="1"/>
        <pt x="357" y="593" on="0"/>
        <pt x="357" y="586" on="1"/>
        <pt x="357" y="573" on="0"/>
        <pt x="328" y="551" on="0"/>
        <pt x="315" y="551" on="1"/>
        <pt x="300" y="551" on="0"/>
        <pt x="286" y="565" on="1"/>
        <pt x="190" y="650" on="1"/>
        <pt x="95" y="565" on="1"/>
        <pt x="82" y="552" on="0"/>
        <pt x="52" y="552" on="0"/>
        <pt x="24" y="573" on="0"/>
      </contour>
    </TTGlyph>
    <TTGlyph name="colon" xMin="60" yMin="0" xMax="193" yMax="426">
      <contour>
        <pt x="60" y="50" on="1"/>
        <pt x="60" y="78" on="1"/>
        <pt x="60" y="100" on="0"/>
        <pt x="97" y="126" on="0"/>
        <pt x="128" y="126" on="1"/>
        <pt x="155" y="126" on="0"/>
        <pt x="193" y="101" on="0"/>
        <pt x="193" y="78" on="1"/>
        <pt x="193" y="50" on="1"/>
        <pt x="193" y="27" on="0"/>
        <pt x="153" y="0" on="0"/>
        <pt x="127" y="0" on="1"/>
        <pt x="96" y="0" on="0"/>
        <pt x="60" y="27" on="0"/>
      </contour>
      <contour>
        <pt x="60" y="350" on="1"/>
        <pt x="60" y="378" on="1"/>
        <pt x="60" y="400" on="0"/>
        <pt x="97" y="426" on="0"/>
        <pt x="128" y="426" on="1"/>
        <pt x="155" y="426" on="0"/>
        <pt x="193" y="401" on="0"/>
        <pt x="193" y="378" on="1"/>
        <pt x="193" y="350" on="1"/>
        <pt x="193" y="327" on="0"/>
        <pt x="153" y="300" on="0"/>
        <pt x="127" y="300" on="1"/>
        <pt x="96" y="300" on="0"/>
        <pt x="60" y="327" on="0"/>
      </contour>
    </TTGlyph>
    <TTGlyph name="comma" xMin="58" yMin="-101" xMax="193" yMax="126">
      <contour>
        <pt x="58" y="68" on="1"/>
        <pt x="58" y="94" on="0"/>
        <pt x="97" y="126" on="0"/>
        <pt x="128" y="126" on="1"/>
        <pt x="193" y="126" on="0"/>
        <pt x="193" y="50" on="1"/>
        <pt x="193" y="7" on="0"/>
        <pt x="117" y="-101" on="0"/>
        <pt x="98" y="-101" on="1"/>
        <pt x="80" y="-101" on="0"/>
        <pt x="80" y="-89" on="1"/>
        <pt x="80" y="-84" on="0"/>
        <pt x="97" y="-27" on="0"/>
        <pt x="97" y="-1" on="0"/>
        <pt x="90" y="3" on="1"/>
        <pt x="58" y="25" on="0"/>
      </contour>
    </TTGlyph>
    <TTGlyph name="copyright" xMin="52" yMin="94" xMax="724" yMax="750">
      <contour>
        <pt x="52" y="420" on="1"/>
        <pt x="52" y="483" on="0"/>
        <pt x="94" y="591" on="0"/>
        <pt x="163" y="668" on="0"/>
        <pt x="254" y="723" on="0"/>
        <pt x="353" y="750" on="0"/>
        <pt x="402" y="750" on="1"/>
        <pt x="477" y="750" on="0"/>
        <pt x="624" y="669" on="0"/>
        <pt x="724" y="514" on="0"/>
        <pt x="724" y="420" on="1"/>
        <pt x="724" y="289" on="0"/>
        <pt x="543" y="94" on="0"/>
        <pt x="398" y="94" on="1"/>
        <pt x="257" y="94" on="0"/>
        <pt x="52" y="290" on="0"/>
      </contour>
      <contour>
        <pt x="125" y="416" on="1"/>
        <pt x="125" y="308" on="0"/>
        <pt x="285" y="167" on="0"/>
        <pt x="400" y="167" on="1"/>
        <pt x="504" y="167" on="0"/>
        <pt x="651" y="325" on="0"/>
        <pt x="651" y="419" on="1"/>
        <pt x="651" y="462" on="0"/>
        <pt x="617" y="551" on="0"/>
        <pt x="556" y="629" on="0"/>
        <pt x="458" y="678" on="0"/>
        <pt x="400" y="678" on="1"/>
        <pt x="332" y="678" on="0"/>
        <pt x="222" y="626" on="0"/>
        <pt x="158" y="546" on="0"/>
        <pt x="125" y="458" on="0"/>
      </contour>
      <contour>
        <pt x="198" y="413" on="1"/>
        <pt x="198" y="505" on="0"/>
        <pt x="331" y="627" on="0"/>
        <pt x="421" y="627" on="1"/>
        <pt x="475" y="627" on="0"/>
        <pt x="521" y="590" on="1"/>
        <pt x="526" y="585" on="0"/>
        <pt x="526" y="579" on="1"/>
        <pt x="526" y="567" on="0"/>
        <pt x="509" y="523" on="0"/>
        <pt x="495" y="523" on="0"/>
        <pt x="491" y="527" on="1"/>
        <pt x="463" y="553" on="0"/>
        <pt x="419" y="553" on="1"/>
        <pt x="346" y="553" on="0"/>
        <pt x="272" y="462" on="0"/>
        <pt x="272" y="414" on="1"/>
        <pt x="272" y="362" on="0"/>
        <pt x="342" y="289" on="0"/>
        <pt x="420" y="289" on="1"/>
        <pt x="472" y="289" on="0"/>
        <pt x="506" y="327" on="1"/>
        <pt x="513" y="334" on="0"/>
        <pt x="517" y="334" on="1"/>
        <pt x="526" y="334" on="0"/>
        <pt x="543" y="288" on="0"/>
        <pt x="543" y="277" on="1"/>
        <pt x="543" y="272" on="0"/>
        <pt x="539" y="268" on="1"/>
        <pt x="492" y="215" on="0"/>
        <pt x="423" y="215" on="1"/>
        <pt x="318" y="215" on="0"/>
        <pt x="198" y="326" on="0"/>
      </contour>
    </TTGlyph>
    <TTGlyph name="currency" xMin="53" yMin="3" xMax="618" yMax="506">
      <contour>
        <pt x="53" y="41" on="1"/>
        <pt x="53" y="48" on="0"/>
        <pt x="59" y="54" on="1"/>
        <pt x="128" y="116" on="1"/>
        <pt x="82" y="178" on="0"/>
        <pt x="82" y="250" on="1"/>
        <pt x="82" y="330" on="0"/>
        <pt x="128" y="391" on="1"/>
        <pt x="59" y="453" on="1"/>
        <pt x="55" y="456" on="0"/>
        <pt x="55" y="466" on="1"/>
        <pt x="55" y="480" on="0"/>
        <pt x="87" y="506" on="0"/>
        <pt x="102" y="506" on="1"/>
        <pt x="109" y="506" on="0"/>
        <pt x="123" y="494" on="1"/>
        <pt x="181" y="441" on="1"/>
        <pt x="253" y="490" on="0"/>
        <pt x="338" y="490" on="1"/>
        <pt x="414" y="490" on="0"/>
        <pt x="482" y="435" on="1"/>
        <pt x="548" y="494" on="1"/>
        <pt x="562" y="506" on="0"/>
        <pt x="569" y="506" on="1"/>
        <pt x="584" y="506" on="0"/>
        <pt x="616" y="482" on="0"/>
        <pt x="616" y="466" on="1"/>
        <pt x="616" y="456" on="0"/>
        <pt x="612" y="453" on="1"/>
        <pt x="531" y="381" on="1"/>
        <pt x="572" y="320" on="0"/>
        <pt x="572" y="250" on="1"/>
        <pt x="572" y="181" on="0"/>
        <pt x="536" y="122" on="1"/>
        <pt x="612" y="54" on="1"/>
        <pt x="618" y="48" on="0"/>
        <pt x="618" y="41" on="1"/>
        <pt x="618" y="28" on="0"/>
        <pt x="586" y="3" on="0"/>
        <pt x="573" y="3" on="1"/>
        <pt x="559" y="3" on="0"/>
        <pt x="548" y="14" on="1"/>
        <pt x="489" y="67" on="1"/>
        <pt x="424" y="13" on="0"/>
        <pt x="334" y="13" on="1"/>
        <pt x="247" y="13" on="0"/>
        <pt x="180" y="64" on="1"/>
        <pt x="123" y="14" on="1"/>
        <pt x="111" y="3" on="0"/>
        <pt x="85" y="3" on="0"/>
        <pt x="53" y="28" on="0"/>
      </contour>
      <contour>
        <pt x="155" y="247" on="1"/>
        <pt x="155" y="182" on="0"/>
        <pt x="256" y="86" on="0"/>
        <pt x="336" y="86" on="1"/>
        <pt x="409" y="86" on="0"/>
        <pt x="499" y="189" on="0"/>
        <pt x="499" y="249" on="1"/>
        <pt x="499" y="315" on="0"/>
        <pt x="410" y="418" on="0"/>
        <pt x="336" y="418" on="1"/>
        <pt x="274" y="418" on="0"/>
        <pt x="188" y="359" on="0"/>
        <pt x="155" y="285" on="0"/>
      </contour>
    </TTGlyph>
    <TTGlyph name="d" xMin="38" yMin="-8" xMax="600" yMax="750">
      <contour>
        <pt x="38" y="182" on="1"/>
        <pt x="38" y="316" on="0"/>
        <pt x="248" y="510" on="0"/>
        <pt x="381" y="510" on="1"/>
        <pt x="464" y="510" on="0"/>
        <pt x="526" y="451" on="1"/>
        <pt x="526" y="724" on="1"/>
        <pt x="526" y="750" on="0"/>
        <pt x="562" y="750" on="1"/>
        <pt x="600" y="750" on="0"/>
        <pt x="600" y="724" on="1"/>
        <pt x="600" y="28" on="1"/>
        <pt x="600" y="0" on="0"/>
        <pt x="563" y="0" on="1"/>
        <pt x="548" y="0" on="0"/>
        <pt x="526" y="15" on="0"/>
        <pt x="526" y="28" on="1"/>
        <pt x="526" y="191" on="1"/>
        <pt x="445" y="86" on="0"/>
        <pt x="298" y="-8" on="0"/>
        <pt x="220" y="-8" on="1"/>
        <pt x="148" y="-8" on="0"/>
        <pt x="38" y="109" on="0"/>
      </contour>
      <contour>
        <pt x="110" y="180" on="1"/>
        <pt x="110" y="123" on="0"/>
        <pt x="190" y="64" on="0"/>
        <pt x="235" y="64" on="1"/>
        <pt x="287" y="64" on="0"/>
        <pt x="421" y="167" on="0"/>
        <pt x="510" y="294" on="0"/>
        <pt x="510" y="330" on="1"/>
        <pt x="510" y="360" on="0"/>
        <pt x="475" y="407" on="0"/>
        <pt x="424" y="429" on="0"/>
        <pt x="382" y="440" on="0"/>
        <pt x="368" y="440" on="1"/>
        <pt x="270" y="440" on="0"/>
        <pt x="110" y="283" on="0"/>
      </contour>
    </TTGlyph>
    <TTGlyph name="dagger" xMin="35" yMin="-170" xMax="385" yMax="750">
      <contour>
        <pt x="35" y="266" on="1"/>
        <pt x="35" y="281" on="0"/>
        <pt x="49" y="302" on="0"/>
        <pt x="62" y="302" on="1"/>
        <pt x="173" y="302" on="1"/>
        <pt x="173" y="723" on="1"/>
        <pt x="173" y="750" on="0"/>
        <pt x="211" y="750" on="1"/>
        <pt x="226" y="750" on="0"/>
        <pt x="247" y="736" on="0"/>
        <pt x="247" y="723" on="1"/>
        <pt x="247" y="302" on="1"/>
        <pt x="357" y="302" on="1"/>
        <pt x="370" y="302" on="0"/>
        <pt x="385" y="280" on="0"/>
        <pt x="385" y="265" on="1"/>
        <pt x="385" y="228" on="0"/>
        <pt x="357" y="228" on="1"/>
        <pt x="247" y="228" on="1"/>
        <pt x="247" y="-142" on="1"/>
        <pt x="247" y="-155" on="0"/>
        <pt x="225" y="-170" on="0"/>
        <pt x="210" y="-170" on="1"/>
        <pt x="173" y="-170" on="0"/>
        <pt x="173" y="-142" on="1"/>
        <pt x="173" y="228" on="1"/>
        <pt x="62" y="228" on="1"/>
        <pt x="35" y="228" on="0"/>
      </contour>
    </TTGlyph>
    <TTGlyph name="daggerdbl" xMin="37" yMin="-170" xMax="547" yMax="750">
      <contour>
        <pt x="37" y="196" on="1"/>
        <pt x="37" y="211" on="0"/>
        <pt x="51" y="232" on="0"/>
        <pt x="64" y="232" on="1"/>
        <pt x="255" y="232" on="1"/>
        <pt x="255" y="356" on="1"/>
        <pt x="64" y="356" on="1"/>
        <pt x="37" y="356" on="0"/>
        <pt x="37" y="394" on="1"/>
        <pt x="37" y="409" on="0"/>
        <pt x="51" y="430" on="0"/>
        <pt x="64" y="430" on="1"/>
        <pt x="255" y="430" on="1"/>
        <pt x="255" y="723" on="1"/>
        <pt x="255" y="750" on="0"/>
        <pt x="293" y="750" on="1"/>
        <pt x="308" y="750" on="0"/>
        <pt x="329" y="736" on="0"/>
        <pt x="329" y="723" on="1"/>
        <pt x="329" y="430" on="1"/>
        <pt x="519" y="430" on="1"/>
        <pt x="532" y="430" on="0"/>
        <pt x="547" y="408" on="0"/>
        <pt x="547" y="393" on="1"/>
        <pt x="547" y="356" on="0"/>
        <pt x="519" y="356" on="1"/>
        <pt x="329" y="356" on="1"/>
        <pt x="329" y="232" on="1"/>
        <pt x="519" y="232" on="1"/>
        <pt x="532" y="232" on="0"/>
        <pt x="547" y="210" on="0"/>
        <pt x="547" y="195" on="1"/>
        <pt x="547" y="158" on="0"/>
        <pt x="519" y="158" on="1"/>
        <pt x="329" y="158" on="1"/>
        <pt x="329" y="-142" on="1"/>
        <pt x="329" y="-155" on="0"/>
        <pt x="307" y="-170" on="0"/>
        <pt x="292" y="-170" on="1"/>
        <pt x="255" y="-170" on="0"/>
        <pt x="255" y="-142" on="1"/>
        <pt x="255" y="158" on="1"/>
        <pt x="64" y="158" on="1"/>
        <pt x="37" y="158" on="0"/>
      </contour>
    </TTGlyph>
    <TTGlyph name="degree" xMin="43" yMin="383" xMax="379" yMax="701">
      <contour>
        <pt x="43" y="541" on="1"/>
        <pt x="43" y="616" on="0"/>
        <pt x="150" y="701" on="0"/>
        <pt x="218" y="701" on="1"/>
        <pt x="278" y="701" on="0"/>
        <pt x="379" y="611" on="0"/>
        <pt x="379" y="541" on="1"/>
        <pt x="379" y="476" on="0"/>
        <pt x="289" y="383" on="0"/>
        <pt x="216" y="383" on="1"/>
        <pt x="145" y="383" on="0"/>
        <pt x="43" y="476" on="0"/>
      </contour>
      <contour>
        <pt x="117" y="570" on="0"/>
        <pt x="117" y="510" on="0"/>
        <pt x="178" y="457" on="0"/>
        <pt x="215" y="457" on="1"/>
        <pt x="250" y="457" on="0"/>
        <pt x="305" y="510" on="0"/>
        <pt x="305" y="541" on="1"/>
        <pt x="305" y="571" on="0"/>
        <pt x="253" y="627" on="0"/>
        <pt x="215" y="627" on="1"/>
        <pt x="171" y="627" on="0"/>
      </contour>
    </TTGlyph>
    <TTGlyph name="dieresis" xMin="144" yMin="570" xMax="527" yMax="696">
      <contour>
        <pt x="144" y="620" on="1"/>
        <pt x="144" y="648" on="1"/>
        <pt x="144" y="670" on="0"/>
        <pt x="181" y="696" on="0"/>
        <pt x="212" y="696" on="1"/>
        <pt x="239" y="696" on="0"/>
        <pt x="277" y="671" on="0"/>
        <pt x="277" y="648" on="1"/>
        <pt x="277" y="620" on="1"/>
        <pt x="277" y="597" on="0"/>
        <pt x="237" y="570" on="0"/>
        <pt x="211" y="570" on="1"/>
        <pt x="180" y="570" on="0"/>
        <pt x="144" y="597" on="0"/>
      </contour>
      <contour>
        <pt x="394" y="620" on="1"/>
        <pt x="394" y="648" on="1"/>
        <pt x="394" y="670" on="0"/>
        <pt x="431" y="696" on="0"/>
        <pt x="462" y="696" on="1"/>
        <pt x="489" y="696" on="0"/>
        <pt x="527" y="671" on="0"/>
        <pt x="527" y="648" on="1"/>
        <pt x="527" y="620" on="1"/>
        <pt x="527" y="597" on="0"/>
        <pt x="487" y="570" on="0"/>
        <pt x="461" y="570" on="1"/>
        <pt x="430" y="570" on="0"/>
        <pt x="394" y="597" on="0"/>
      </contour>
    </TTGlyph>
    <TTGlyph name="divide" xMin="48" yMin="0" xMax="398" yMax="426">
      <contour>
        <pt x="48" y="214" on="1"/>
        <pt x="48" y="229" on="0"/>
        <pt x="62" y="250" on="0"/>
        <pt x="75" y="250" on="1"/>
        <pt x="370" y="250" on="1"/>
        <pt x="383" y="250" on="0"/>
        <pt x="398" y="228" on="0"/>
        <pt x="398" y="213" on="1"/>
        <pt x="398" y="176" on="0"/>
        <pt x="370" y="176" on="1"/>
        <pt x="75" y="176" on="1"/>
        <pt x="48" y="176" on="0"/>
      </contour>
      <contour>
        <pt x="154" y="50" on="1"/>
        <pt x="154" y="78" on="1"/>
        <pt x="154" y="100" on="0"/>
        <pt x="191" y="126" on="0"/>
        <pt x="222" y="126" on="1"/>
        <pt x="249" y="126" on="0"/>
        <pt x="287" y="101" on="0"/>
        <pt x="287" y="78" on="1"/>
        <pt x="287" y="50" on="1"/>
        <pt x="287" y="27" on="0"/>
        <pt x="247" y="0" on="0"/>
        <pt x="221" y="0" on="1"/>
        <pt x="190" y="0" on="0"/>
        <pt x="154" y="27" on="0"/>
      </contour>
      <contour>
        <pt x="154" y="350" on="1"/>
        <pt x="154" y="378" on="1"/>
        <pt x="154" y="400" on="0"/>
        <pt x="191" y="426" on="0"/>
        <pt x="222" y="426" on="1"/>
        <pt x="249" y="426" on="0"/>
        <pt x="287" y="401" on="0"/>
        <pt x="287" y="378" on="1"/>
        <pt x="287" y="350" on="1"/>
        <pt x="287" y="327" on="0"/>
        <pt x="247" y="300" on="0"/>
        <pt x="221" y="300" on="1"/>
        <pt x="190" y="300" on="0"/>
        <pt x="154" y="327" on="0"/>
      </contour>
    </TTGlyph>
    <TTGlyph name="dollar" xMin="39" yMin="-57" xMax="575" yMax="753">
      <contour>
        <pt x="39" y="167" on="1"/>
        <pt x="39" y="182" on="0"/>
        <pt x="62" y="214" on="0"/>
        <pt x="77" y="214" on="1"/>
        <pt x="82" y="214" on="0"/>
        <pt x="84" y="212" on="1"/>
        <pt x="113" y="182" on="0"/>
        <pt x="224" y="127" on="0"/>
        <pt x="280" y="118" on="1"/>
        <pt x="280" y="329" on="1"/>
        <pt x="240" y="330" on="0"/>
        <pt x="185" y="336" on="0"/>
        <pt x="120" y="354" on="0"/>
        <pt x="81" y="386" on="0"/>
        <pt x="54" y="445" on="0"/>
        <pt x="54" y="485" on="1"/>
        <pt x="54" y="563" on="0"/>
        <pt x="185" y="653" on="0"/>
        <pt x="280" y="659" on="1"/>
        <pt x="280" y="726" on="1"/>
        <pt x="280" y="753" on="0"/>
        <pt x="318" y="753" on="1"/>
        <pt x="333" y="753" on="0"/>
        <pt x="354" y="739" on="0"/>
        <pt x="354" y="726" on="1"/>
        <pt x="354" y="657" on="1"/>
        <pt x="421" y="650" on="0"/>
        <pt x="531" y="599" on="0"/>
        <pt x="559" y="559" on="1"/>
        <pt x="560" y="557" on="0"/>
        <pt x="560" y="554" on="1"/>
        <pt x="560" y="542" on="0"/>
        <pt x="527" y="517" on="0"/>
        <pt x="514" y="517" on="1"/>
        <pt x="512" y="517" on="0"/>
        <pt x="502" y="522" on="1"/>
        <pt x="437" y="575" on="0"/>
        <pt x="354" y="584" on="1"/>
        <pt x="354" y="393" on="1"/>
        <pt x="403" y="392" on="0"/>
        <pt x="470" y="380" on="0"/>
        <pt x="539" y="347" on="0"/>
        <pt x="575" y="279" on="0"/>
        <pt x="575" y="227" on="1"/>
        <pt x="575" y="52" on="0"/>
        <pt x="354" y="41" on="1"/>
        <pt x="354" y="-29" on="1"/>
        <pt x="354" y="-42" on="0"/>
        <pt x="332" y="-57" on="0"/>
        <pt x="317" y="-57" on="1"/>
        <pt x="280" y="-57" on="0"/>
        <pt x="280" y="-29" on="1"/>
        <pt x="280" y="43" on="1"/>
        <pt x="131" y="60" on="0"/>
        <pt x="46" y="148" on="1"/>
        <pt x="39" y="155" on="0"/>
      </contour>
      <contour>
        <pt x="127" y="480" on="1"/>
        <pt x="127" y="454" on="0"/>
        <pt x="150" y="419" on="0"/>
        <pt x="196" y="402" on="0"/>
        <pt x="244" y="395" on="0"/>
        <pt x="280" y="394" on="1"/>
        <pt x="280" y="586" on="1"/>
        <pt x="216" y="581" on="0"/>
        <pt x="127" y="529" on="0"/>
      </contour>
      <contour>
        <pt x="354" y="115" on="1"/>
        <pt x="501" y="124" on="0"/>
        <pt x="501" y="233" on="1"/>
        <pt x="501" y="260" on="0"/>
        <pt x="479" y="297" on="0"/>
        <pt x="435" y="316" on="0"/>
        <pt x="388" y="324" on="0"/>
        <pt x="354" y="326" on="1"/>
      </contour>
    </TTGlyph>
    <TTGlyph name="e" xMin="38" yMin="-11" xMax="557" yMax="515">
      <contour>
        <pt x="38" y="264" on="1"/>
        <pt x="38" y="328" on="0"/>
        <pt x="94" y="428" on="0"/>
        <pt x="186" y="486" on="0"/>
        <pt x="292" y="515" on="0"/>
        <pt x="347" y="515" on="1"/>
        <pt x="445" y="515" on="0"/>
        <pt x="553" y="430" on="0"/>
        <pt x="553" y="368" on="1"/>
        <pt x="553" y="301" on="0"/>
        <pt x="427" y="207" on="0"/>
        <pt x="311" y="207" on="1"/>
        <pt x="207" y="207" on="0"/>
        <pt x="113" y="237" on="1"/>
        <pt x="124" y="163" on="0"/>
        <pt x="240" y="63" on="0"/>
        <pt x="325" y="63" on="1"/>
        <pt x="370" y="63" on="0"/>
        <pt x="467" y="91" on="0"/>
        <pt x="495" y="117" on="1"/>
        <pt x="499" y="125" on="0"/>
        <pt x="511" y="125" on="1"/>
        <pt x="525" y="125" on="0"/>
        <pt x="557" y="100" on="0"/>
        <pt x="557" y="87" on="1"/>
        <pt x="532" y="36" on="0"/>
        <pt x="387" y="-11" on="0"/>
        <pt x="319" y="-11" on="1"/>
        <pt x="196" y="-11" on="0"/>
        <pt x="38" y="151" on="0"/>
      </contour>
      <contour>
        <pt x="117" y="314" on="1"/>
        <pt x="192" y="281" on="0"/>
        <pt x="303" y="281" on="1"/>
        <pt x="390" y="281" on="0"/>
        <pt x="480" y="336" on="0"/>
        <pt x="480" y="370" on="1"/>
        <pt x="480" y="400" on="0"/>
        <pt x="405" y="441" on="0"/>
        <pt x="331" y="441" on="1"/>
        <pt x="251" y="441" on="0"/>
        <pt x="144" y="370" on="0"/>
      </contour>
    </TTGlyph>
    <TTGlyph name="eacute" xMin="38" yMin="-11" xMax="557" yMax="750">
      <contour>
        <pt x="38" y="264" on="1"/>
        <pt x="38" y="328" on="0"/>
        <pt x="94" y="428" on="0"/>
        <pt x="186" y="486" on="0"/>
        <pt x="292" y="515" on="0"/>
        <pt x="347" y="515" on="1"/>
        <pt x="445" y="515" on="0"/>
        <pt x="553" y="430" on="0"/>
        <pt x="553" y="368" on="1"/>
        <pt x="553" y="301" on="0"/>
        <pt x="427" y="207" on="0"/>
        <pt x="311" y="207" on="1"/>
        <pt x="207" y="207" on="0"/>
        <pt x="113" y="237" on="1"/>
        <pt x="124" y="163" on="0"/>
        <pt x="240" y="63" on="0"/>
        <pt x="325" y="63" on="1"/>
        <pt x="370" y="63" on="0"/>
        <pt x="467" y="91" on="0"/>
        <pt x="495" y="117" on="1"/>
        <pt x="499" y="125" on="0"/>
        <pt x="511" y="125" on="1"/>
        <pt x="525" y="125" on="0"/>
        <pt x="557" y="100" on="0"/>
        <pt x="557" y="87" on="1"/>
        <pt x="532" y="36" on="0"/>
        <pt x="387" y="-11" on="0"/>
        <pt x="319" y="-11" on="1"/>
        <pt x="196" y="-11" on="0"/>
        <pt x="38" y="151" on="0"/>
      </contour>
      <contour>
        <pt x="117" y="314" on="1"/>
        <pt x="192" y="281" on="0"/>
        <pt x="303" y="281" on="1"/>
        <pt x="390" y="281" on="0"/>
        <pt x="480" y="336" on="0"/>
        <pt x="480" y="370" on="1"/>
        <pt x="480" y="400" on="0"/>
        <pt x="405" y="441" on="0"/>
        <pt x="331" y="441" on="1"/>
        <pt x="251" y="441" on="0"/>
        <pt x="144" y="370" on="0"/>
      </contour>
      <contour>
        <pt x="251" y="574" on="1"/>
        <pt x="251" y="620" on="0"/>
        <pt x="321" y="750" on="0"/>
        <pt x="364" y="750" on="1"/>
        <pt x="386" y="750" on="0"/>
        <pt x="422" y="711" on="0"/>
        <pt x="422" y="691" on="1"/>
        <pt x="422" y="679" on="0"/>
        <pt x="415" y="660" on="0"/>
        <pt x="407" y="649" on="0"/>
        <pt x="389" y="636" on="0"/>
        <pt x="379" y="631" on="0"/>
        <pt x="354" y="621" on="0"/>
        <pt x="350" y="619" on="1"/>
        <pt x="330" y="610" on="0"/>
        <pt x="279" y="547" on="0"/>
        <pt x="268" y="547" on="1"/>
        <pt x="251" y="547" on="0"/>
      </contour>
    </TTGlyph>
    <TTGlyph name="ecircumflex" xMin="38" yMin="-11" xMax="557" yMax="750">
      <contour>
        <pt x="38" y="264" on="1"/>
        <pt x="38" y="328" on="0"/>
        <pt x="94" y="428" on="0"/>
        <pt x="186" y="486" on="0"/>
        <pt x="292" y="515" on="0"/>
        <pt x="347" y="515" on="1"/>
        <pt x="445" y="515" on="0"/>
        <pt x="553" y="430" on="0"/>
        <pt x="553" y="368" on="1"/>
        <pt x="553" y="301" on="0"/>
        <pt x="427" y="207" on="0"/>
        <pt x="311" y="207" on="1"/>
        <pt x="207" y="207" on="0"/>
        <pt x="113" y="237" on="1"/>
        <pt x="124" y="163" on="0"/>
        <pt x="240" y="63" on="0"/>
        <pt x="325" y="63" on="1"/>
        <pt x="370" y="63" on="0"/>
        <pt x="467" y="91" on="0"/>
        <pt x="495" y="117" on="1"/>
        <pt x="499" y="125" on="0"/>
        <pt x="511" y="125" on="1"/>
        <pt x="525" y="125" on="0"/>
        <pt x="557" y="100" on="0"/>
        <pt x="557" y="87" on="1"/>
        <pt x="532" y="36" on="0"/>
        <pt x="387" y="-11" on="0"/>
        <pt x="319" y="-11" on="1"/>
        <pt x="196" y="-11" on="0"/>
        <pt x="38" y="151" on="0"/>
      </contour>
      <contour>
        <pt x="117" y="314" on="1"/>
        <pt x="192" y="281" on="0"/>
        <pt x="303" y="281" on="1"/>
        <pt x="390" y="281" on="0"/>
        <pt x="480" y="336" on="0"/>
        <pt x="480" y="370" on="1"/>
        <pt x="480" y="400" on="0"/>
        <pt x="405" y="441" on="0"/>
        <pt x="331" y="441" on="1"/>
        <pt x="251" y="441" on="0"/>
        <pt x="144" y="370" on="0"/>
      </contour>
      <contour>
        <pt x="131" y="586" on="1"/>
        <pt x="131" y="592" on="0"/>
        <pt x="135" y="597" on="1"/>
        <pt x="250" y="715" on="1"/>
        <pt x="253" y="718" on="0"/>
        <pt x="264" y="730" on="0"/>
        <pt x="270" y="735" on="0"/>
        <pt x="279" y="743" on="0"/>
        <pt x="285" y="747" on="0"/>
        <pt x="293" y="750" on="0"/>
        <pt x="301" y="750" on="0"/>
        <pt x="310" y="746" on="0"/>
        <pt x="321" y="738" on="0"/>
        <pt x="327" y="731" on="0"/>
        <pt x="334" y="724" on="1"/>
        <pt x="343" y="715" on="1"/>
        <pt x="460" y="597" on="1"/>
        <pt x="464" y="593" on="0"/>
        <pt x="464" y="586" on="1"/>
        <pt x="464" y="573" on="0"/>
        <pt x="435" y="551" on="0"/>
        <pt x="422" y="551" on="1"/>
        <pt x="407" y="551" on="0"/>
        <pt x="393" y="565" on="1"/>
        <pt x="297" y="650" on="1"/>
        <pt x="202" y="565" on="1"/>
        <pt x="189" y="552" on="0"/>
        <pt x="159" y="552" on="0"/>
        <pt x="131" y="573" on="0"/>
      </contour>
    </TTGlyph>
    <TTGlyph name="edieresis" xMin="38" yMin="-11" xMax="557" yMax="696">
      <contour>
        <pt x="38" y="264" on="1"/>
        <pt x="38" y="328" on="0"/>
        <pt x="94" y="428" on="0"/>
        <pt x="186" y="486" on="0"/>
        <pt x="292" y="515" on="0"/>
        <pt x="347" y="515" on="1"/>
        <pt x="445" y="515" on="0"/>
        <pt x="553" y="430" on="0"/>
        <pt x="553" y="368" on="1"/>
        <pt x="553" y="301" on="0"/>
        <pt x="427" y="207" on="0"/>
        <pt x="311" y="207" on="1"/>
        <pt x="207" y="207" on="0"/>
        <pt x="113" y="237" on="1"/>
        <pt x="124" y="163" on="0"/>
        <pt x="240" y="63" on="0"/>
        <pt x="325" y="63" on="1"/>
        <pt x="370" y="63" on="0"/>
        <pt x="467" y="91" on="0"/>
        <pt x="495" y="117" on="1"/>
        <pt x="499" y="125" on="0"/>
        <pt x="511" y="125" on="1"/>
        <pt x="525" y="125" on="0"/>
        <pt x="557" y="100" on="0"/>
        <pt x="557" y="87" on="1"/>
        <pt x="532" y="36" on="0"/>
        <pt x="387" y="-11" on="0"/>
        <pt x="319" y="-11" on="1"/>
        <pt x="196" y="-11" on="0"/>
        <pt x="38" y="151" on="0"/>
      </contour>
      <contour>
        <pt x="110" y="620" on="1"/>
        <pt x="110" y="648" on="1"/>
        <pt x="110" y="670" on="0"/>
        <pt x="147" y="696" on="0"/>
        <pt x="178" y="696" on="1"/>
        <pt x="205" y="696" on="0"/>
        <pt x="243" y="671" on="0"/>
        <pt x="243" y="648" on="1"/>
        <pt x="243" y="620" on="1"/>
        <pt x="243" y="597" on="0"/>
        <pt x="203" y="570" on="0"/>
        <pt x="177" y="570" on="1"/>
        <pt x="146" y="570" on="0"/>
        <pt x="110" y="597" on="0"/>
      </contour>
      <contour>
        <pt x="117" y="314" on="1"/>
        <pt x="192" y="281" on="0"/>
        <pt x="303" y="281" on="1"/>
        <pt x="390" y="281" on="0"/>
        <pt x="480" y="336" on="0"/>
        <pt x="480" y="370" on="1"/>
        <pt x="480" y="400" on="0"/>
        <pt x="405" y="441" on="0"/>
        <pt x="331" y="441" on="1"/>
        <pt x="251" y="441" on="0"/>
        <pt x="144" y="370" on="0"/>
      </contour>
      <contour>
        <pt x="360" y="620" on="1"/>
        <pt x="360" y="648" on="1"/>
        <pt x="360" y="670" on="0"/>
        <pt x="397" y="696" on="0"/>
        <pt x="428" y="696" on="1"/>
        <pt x="455" y="696" on="0"/>
        <pt x="493" y="671" on="0"/>
        <pt x="493" y="648" on="1"/>
        <pt x="493" y="620" on="1"/>
        <pt x="493" y="597" on="0"/>
        <pt x="453" y="570" on="0"/>
        <pt x="427" y="570" on="1"/>
        <pt x="396" y="570" on="0"/>
        <pt x="360" y="597" on="0"/>
      </contour>
    </TTGlyph>
    <TTGlyph name="egrave" xMin="38" yMin="-11" xMax="557" yMax="750">
      <contour>
        <pt x="38" y="264" on="1"/>
        <pt x="38" y="328" on="0"/>
        <pt x="94" y="428" on="0"/>
        <pt x="186" y="486" on="0"/>
        <pt x="292" y="515" on="0"/>
        <pt x="347" y="515" on="1"/>
        <pt x="445" y="515" on="0"/>
        <pt x="553" y="430" on="0"/>
        <pt x="553" y="368" on="1"/>
        <pt x="553" y="301" on="0"/>
        <pt x="427" y="207" on="0"/>
        <pt x="311" y="207" on="1"/>
        <pt x="207" y="207" on="0"/>
        <pt x="113" y="237" on="1"/>
        <pt x="124" y="163" on="0"/>
        <pt x="240" y="63" on="0"/>
        <pt x="325" y="63" on="1"/>
        <pt x="370" y="63" on="0"/>
        <pt x="467" y="91" on="0"/>
        <pt x="495" y="117" on="1"/>
        <pt x="499" y="125" on="0"/>
        <pt x="511" y="125" on="1"/>
        <pt x="525" y="125" on="0"/>
        <pt x="557" y="100" on="0"/>
        <pt x="557" y="87" on="1"/>
        <pt x="532" y="36" on="0"/>
        <pt x="387" y="-11" on="0"/>
        <pt x="319" y="-11" on="1"/>
        <pt x="196" y="-11" on="0"/>
        <pt x="38" y="151" on="0"/>
      </contour>
      <contour>
        <pt x="117" y="314" on="1"/>
        <pt x="192" y="281" on="0"/>
        <pt x="303" y="281" on="1"/>
        <pt x="390" y="281" on="0"/>
        <pt x="480" y="336" on="0"/>
        <pt x="480" y="370" on="1"/>
        <pt x="480" y="400" on="0"/>
        <pt x="405" y="441" on="0"/>
        <pt x="331" y="441" on="1"/>
        <pt x="251" y="441" on="0"/>
        <pt x="144" y="370" on="0"/>
      </contour>
      <contour>
        <pt x="203" y="691" on="1"/>
        <pt x="203" y="711" on="0"/>
        <pt x="239" y="750" on="0"/>
        <pt x="261" y="750" on="1"/>
        <pt x="304" y="750" on="0"/>
        <pt x="374" y="620" on="0"/>
        <pt x="374" y="574" on="1"/>
        <pt x="374" y="547" on="0"/>
        <pt x="357" y="547" on="1"/>
        <pt x="346" y="547" on="0"/>
        <pt x="295" y="610" on="0"/>
        <pt x="275" y="619" on="1"/>
        <pt x="271" y="621" on="0"/>
        <pt x="246" y="631" on="0"/>
        <pt x="236" y="636" on="0"/>
        <pt x="218" y="649" on="0"/>
        <pt x="210" y="660" on="0"/>
        <pt x="203" y="679" on="0"/>
      </contour>
    </TTGlyph>
    <TTGlyph name="eight" xMin="50" yMin="-1" xMax="529" yMax="701">
      <contour>
        <pt x="50" y="202" on="1"/>
        <pt x="50" y="309" on="0"/>
        <pt x="184" y="394" on="1"/>
        <pt x="137" y="434" on="0"/>
        <pt x="92" y="502" on="0"/>
        <pt x="92" y="540" on="1"/>
        <pt x="92" y="606" on="0"/>
        <pt x="198" y="701" on="0"/>
        <pt x="382" y="701" on="0"/>
        <pt x="487" y="606" on="0"/>
        <pt x="487" y="540" on="1"/>
        <pt x="487" y="470" on="0"/>
        <pt x="395" y="394" on="1"/>
        <pt x="529" y="309" on="0"/>
        <pt x="529" y="202" on="1"/>
        <pt x="529" y="121" on="0"/>
        <pt x="396" y="-1" on="0"/>
        <pt x="288" y="-1" on="1"/>
        <pt x="182" y="-1" on="0"/>
        <pt x="50" y="121" on="0"/>
      </contour>
      <contour>
        <pt x="124" y="193" on="1"/>
        <pt x="124" y="143" on="0"/>
        <pt x="227" y="73" on="0"/>
        <pt x="286" y="73" on="1"/>
        <pt x="350" y="73" on="0"/>
        <pt x="455" y="143" on="0"/>
        <pt x="455" y="193" on="1"/>
        <pt x="455" y="244" on="0"/>
        <pt x="336" y="344" on="0"/>
        <pt x="281" y="346" on="1"/>
        <pt x="236" y="344" on="0"/>
        <pt x="124" y="246" on="0"/>
      </contour>
      <contour>
        <pt x="166" y="550" on="1"/>
        <pt x="166" y="520" on="0"/>
        <pt x="230" y="449" on="0"/>
        <pt x="286" y="435" on="1"/>
        <pt x="341" y="450" on="0"/>
        <pt x="413" y="522" on="0"/>
        <pt x="413" y="550" on="1"/>
        <pt x="413" y="584" on="0"/>
        <pt x="337" y="626" on="0"/>
        <pt x="290" y="626" on="1"/>
        <pt x="238" y="626" on="0"/>
        <pt x="166" y="585" on="0"/>
      </contour>
    </TTGlyph>
    <TTGlyph name="ellipsis" xMin="60" yMin="0" xMax="643" yMax="126">
      <contour>
        <pt x="60" y="50" on="1"/>
        <pt x="60" y="78" on="1"/>
        <pt x="60" y="100" on="0"/>
        <pt x="97" y="126" on="0"/>
        <pt x="128" y="126" on="1"/>
        <pt x="155" y="126" on="0"/>
        <pt x="193" y="101" on="0"/>
        <pt x="193" y="78" on="1"/>
        <pt x="193" y="50" on="1"/>
        <pt x="193" y="27" on="0"/>
        <pt x="153" y="0" on="0"/>
        <pt x="127" y="0" on="1"/>
        <pt x="96" y="0" on="0"/>
        <pt x="60" y="27" on="0"/>
      </contour>
      <contour>
        <pt x="285" y="50" on="1"/>
        <pt x="285" y="78" on="1"/>
        <pt x="285" y="100" on="0"/>
        <pt x="322" y="126" on="0"/>
        <pt x="353" y="126" on="1"/>
        <pt x="380" y="126" on="0"/>
        <pt x="418" y="101" on="0"/>
        <pt x="418" y="78" on="1"/>
        <pt x="418" y="50" on="1"/>
        <pt x="418" y="27" on="0"/>
        <pt x="378" y="0" on="0"/>
        <pt x="352" y="0" on="1"/>
        <pt x="321" y="0" on="0"/>
        <pt x="285" y="27" on="0"/>
      </contour>
      <contour>
        <pt x="510" y="50" on="1"/>
        <pt x="510" y="78" on="1"/>
        <pt x="510" y="100" on="0"/>
        <pt x="547" y="126" on="0"/>
        <pt x="578" y="126" on="1"/>
        <pt x="605" y="126" on="0"/>
        <pt x="643" y="101" on="0"/>
        <pt x="643" y="78" on="1"/>
        <pt x="643" y="50" on="1"/>
        <pt x="643" y="27" on="0"/>
        <pt x="603" y="0" on="0"/>
        <pt x="577" y="0" on="1"/>
        <pt x="546" y="0" on="0"/>
        <pt x="510" y="27" on="0"/>
      </contour>
    </TTGlyph>
    <TTGlyph name="emdash" xMin="60" yMin="228" xMax="620" yMax="302">
      <contour>
        <pt x="60" y="266" on="1"/>
        <pt x="60" y="281" on="0"/>
        <pt x="74" y="302" on="0"/>
        <pt x="87" y="302" on="1"/>
        <pt x="592" y="302" on="1"/>
        <pt x="605" y="302" on="0"/>
        <pt x="620" y="280" on="0"/>
        <pt x="620" y="265" on="1"/>
        <pt x="620" y="228" on="0"/>
        <pt x="592" y="228" on="1"/>
        <pt x="87" y="228" on="1"/>
        <pt x="60" y="228" on="0"/>
      </contour>
    </TTGlyph>
    <TTGlyph name="endash" xMin="60" yMin="228" xMax="410" yMax="302">
      <contour>
        <pt x="60" y="266" on="1"/>
        <pt x="60" y="281" on="0"/>
        <pt x="74" y="302" on="0"/>
        <pt x="87" y="302" on="1"/>
        <pt x="382" y="302" on="1"/>
        <pt x="395" y="302" on="0"/>
        <pt x="410" y="280" on="0"/>
        <pt x="410" y="265" on="1"/>
        <pt x="410" y="228" on="0"/>
        <pt x="382" y="228" on="1"/>
        <pt x="87" y="228" on="1"/>
        <pt x="60" y="228" on="0"/>
      </contour>
    </TTGlyph>
    <TTGlyph name="equal" xMin="68" yMin="228" xMax="578" yMax="500">
      <contour>
        <pt x="68" y="266" on="1"/>
        <pt x="68" y="281" on="0"/>
        <pt x="82" y="302" on="0"/>
        <pt x="95" y="302" on="1"/>
        <pt x="550" y="302" on="1"/>
        <pt x="563" y="302" on="0"/>
        <pt x="578" y="280" on="0"/>
        <pt x="578" y="265" on="1"/>
        <pt x="578" y="228" on="0"/>
        <pt x="550" y="228" on="1"/>
        <pt x="95" y="228" on="1"/>
        <pt x="68" y="228" on="0"/>
      </contour>
      <contour>
        <pt x="68" y="464" on="1"/>
        <pt x="68" y="479" on="0"/>
        <pt x="82" y="500" on="0"/>
        <pt x="95" y="500" on="1"/>
        <pt x="550" y="500" on="1"/>
        <pt x="563" y="500" on="0"/>
        <pt x="578" y="478" on="0"/>
        <pt x="578" y="463" on="1"/>
        <pt x="578" y="426" on="0"/>
        <pt x="550" y="426" on="1"/>
        <pt x="95" y="426" on="1"/>
        <pt x="68" y="426" on="0"/>
      </contour>
    </TTGlyph>
    <TTGlyph name="eth" xMin="37" yMin="-5" xMax="458" yMax="681">
      <contour>
        <pt x="37" y="201" on="1"/>
        <pt x="37" y="286" on="0"/>
        <pt x="158" y="401" on="0"/>
        <pt x="238" y="401" on="1"/>
        <pt x="302" y="401" on="0"/>
        <pt x="357" y="355" on="1"/>
        <pt x="337" y="424" on="0"/>
        <pt x="257" y="507" on="1"/>
        <pt x="183" y="447" on="1"/>
        <pt x="176" y="440" on="0"/>
        <pt x="166" y="440" on="1"/>
        <pt x="153" y="440" on="0"/>
        <pt x="123" y="468" on="0"/>
        <pt x="123" y="483" on="1"/>
        <pt x="123" y="493" on="0"/>
        <pt x="130" y="500" on="1"/>
        <pt x="204" y="560" on="1"/>
        <pt x="165" y="593" on="1"/>
        <pt x="153" y="603" on="0"/>
        <pt x="133" y="632" on="0"/>
        <pt x="133" y="642" on="1"/>
        <pt x="133" y="656" on="0"/>
        <pt x="155" y="681" on="0"/>
        <pt x="177" y="681" on="1"/>
        <pt x="197" y="681" on="0"/>
        <pt x="241" y="643" on="1"/>
        <pt x="273" y="615" on="1"/>
        <pt x="346" y="674" on="1"/>
        <pt x="353" y="681" on="0"/>
        <pt x="363" y="681" on="1"/>
        <pt x="380" y="681" on="0"/>
        <pt x="406" y="653" on="0"/>
        <pt x="406" y="640" on="1"/>
        <pt x="406" y="630" on="0"/>
        <pt x="398" y="622" on="1"/>
        <pt x="327" y="564" on="1"/>
        <pt x="458" y="423" on="0"/>
        <pt x="458" y="246" on="1"/>
        <pt x="458" y="132" on="0"/>
        <pt x="350" y="-5" on="0"/>
        <pt x="246" y="-5" on="1"/>
        <pt x="149" y="-5" on="0"/>
        <pt x="37" y="118" on="0"/>
      </contour>
      <contour>
        <pt x="111" y="200" on="1"/>
        <pt x="111" y="140" on="0"/>
        <pt x="198" y="71" on="0"/>
        <pt x="249" y="71" on="1"/>
        <pt x="292" y="71" on="0"/>
        <pt x="364" y="135" on="0"/>
        <pt x="364" y="184" on="1"/>
        <pt x="364" y="241" on="0"/>
        <pt x="292" y="318" on="0"/>
        <pt x="244" y="318" on="1"/>
        <pt x="188" y="318" on="0"/>
        <pt x="111" y="249" on="0"/>
      </contour>
    </TTGlyph>
    <TTGlyph name="exclam" xMin="60" yMin="0" xMax="193" yMax="749">
      <contour>
        <pt x="60" y="50" on="1"/>
        <pt x="60" y="78" on="1"/>
        <pt x="60" y="100" on="0"/>
        <pt x="97" y="126" on="0"/>
        <pt x="128" y="126" on="1"/>
        <pt x="155" y="126" on="0"/>
        <pt x="193" y="101" on="0"/>
        <pt x="193" y="78" on="1"/>
        <pt x="193" y="50" on="1"/>
        <pt x="193" y="27" on="0"/>
        <pt x="153" y="0" on="0"/>
        <pt x="127" y="0" on="1"/>
        <pt x="96" y="0" on="0"/>
        <pt x="60" y="27" on="0"/>
      </contour>
      <contour>
        <pt x="89" y="267" on="1"/>
        <pt x="89" y="722" on="1"/>
        <pt x="89" y="749" on="0"/>
        <pt x="127" y="749" on="1"/>
        <pt x="142" y="749" on="0"/>
        <pt x="163" y="735" on="0"/>
        <pt x="163" y="722" on="1"/>
        <pt x="163" y="267" on="1"/>
        <pt x="163" y="254" on="0"/>
        <pt x="141" y="239" on="0"/>
        <pt x="126" y="239" on="1"/>
        <pt x="89" y="239" on="0"/>
      </contour>
    </TTGlyph>
    <TTGlyph name="exclamdown" xMin="58" yMin="0" xMax="191" yMax="749">
      <contour>
        <pt x="58" y="671" on="1"/>
        <pt x="58" y="699" on="1"/>
        <pt x="58" y="722" on="0"/>
        <pt x="94" y="749" on="0"/>
        <pt x="125" y="749" on="1"/>
        <pt x="151" y="749" on="0"/>
        <pt x="191" y="722" on="0"/>
        <pt x="191" y="699" on="1"/>
        <pt x="191" y="671" on="1"/>
        <pt x="191" y="648" on="0"/>
        <pt x="153" y="623" on="0"/>
        <pt x="126" y="623" on="1"/>
        <pt x="95" y="623" on="0"/>
        <pt x="58" y="649" on="0"/>
      </contour>
      <contour>
        <pt x="87" y="27" on="1"/>
        <pt x="87" y="482" on="1"/>
        <pt x="87" y="510" on="0"/>
        <pt x="124" y="510" on="1"/>
        <pt x="139" y="510" on="0"/>
        <pt x="161" y="495" on="0"/>
        <pt x="161" y="482" on="1"/>
        <pt x="161" y="27" on="1"/>
        <pt x="161" y="14" on="0"/>
        <pt x="140" y="0" on="0"/>
        <pt x="125" y="0" on="1"/>
        <pt x="87" y="0" on="0"/>
      </contour>
    </TTGlyph>
    <TTGlyph name="f" xMin="30" yMin="1" xMax="415" yMax="750">
      <contour>
        <pt x="30" y="438" on="1"/>
        <pt x="30" y="475" on="0"/>
        <pt x="58" y="475" on="1"/>
        <pt x="92" y="475" on="1"/>
        <pt x="92" y="537" on="1"/>
        <pt x="92" y="750" on="0"/>
        <pt x="251" y="750" on="1"/>
        <pt x="320" y="750" on="0"/>
        <pt x="414" y="666" on="0"/>
        <pt x="415" y="587" on="1"/>
        <pt x="415" y="571" on="0"/>
        <pt x="394" y="554" on="0"/>
        <pt x="379" y="554" on="1"/>
        <pt x="363" y="554" on="0"/>
        <pt x="341" y="572" on="0"/>
        <pt x="341" y="586" on="1"/>
        <pt x="341" y="636" on="0"/>
        <pt x="287" y="676" on="0"/>
        <pt x="251" y="676" on="1"/>
        <pt x="166" y="676" on="0"/>
        <pt x="166" y="564" on="1"/>
        <pt x="166" y="475" on="1"/>
        <pt x="326" y="475" on="1"/>
        <pt x="353" y="475" on="0"/>
        <pt x="353" y="437" on="1"/>
        <pt x="353" y="422" on="0"/>
        <pt x="339" y="401" on="0"/>
        <pt x="326" y="401" on="1"/>
        <pt x="166" y="401" on="1"/>
        <pt x="166" y="28" on="1"/>
        <pt x="166" y="1" on="0"/>
        <pt x="128" y="1" on="1"/>
        <pt x="113" y="1" on="0"/>
        <pt x="92" y="15" on="0"/>
        <pt x="92" y="28" on="1"/>
        <pt x="92" y="401" on="1"/>
        <pt x="58" y="401" on="1"/>
        <pt x="45" y="401" on="0"/>
        <pt x="30" y="423" on="0"/>
      </contour>
    </TTGlyph>
    <TTGlyph name="five" xMin="61" yMin="0" xMax="520" yMax="700">
      <contour>
        <pt x="61" y="437" on="1"/>
        <pt x="61" y="673" on="1"/>
        <pt x="61" y="700" on="0"/>
        <pt x="107" y="700" on="1"/>
        <pt x="436" y="700" on="1"/>
        <pt x="464" y="700" on="0"/>
        <pt x="464" y="663" on="1"/>
        <pt x="464" y="648" on="0"/>
        <pt x="449" y="626" on="0"/>
        <pt x="436" y="626" on="1"/>
        <pt x="135" y="626" on="1"/>
        <pt x="135" y="439" on="1"/>
        <pt x="198" y="474" on="0"/>
        <pt x="283" y="474" on="1"/>
        <pt x="383" y="474" on="0"/>
        <pt x="520" y="328" on="0"/>
        <pt x="520" y="235" on="1"/>
        <pt x="520" y="143" on="0"/>
        <pt x="383" y="0" on="0"/>
        <pt x="282" y="0" on="1"/>
        <pt x="242" y="0" on="0"/>
        <pt x="149" y="29" on="0"/>
        <pt x="72" y="96" on="0"/>
        <pt x="72" y="140" on="1"/>
        <pt x="72" y="156" on="0"/>
        <pt x="93" y="173" on="0"/>
        <pt x="108" y="173" on="1"/>
        <pt x="124" y="173" on="0"/>
        <pt x="148" y="155" on="0"/>
        <pt x="148" y="141" on="1"/>
        <pt x="148" y="109" on="0"/>
        <pt x="245" y="74" on="0"/>
        <pt x="287" y="74" on="1"/>
        <pt x="355" y="74" on="0"/>
        <pt x="454" y="173" on="0"/>
        <pt x="454" y="235" on="1"/>
        <pt x="454" y="298" on="0"/>
        <pt x="353" y="400" on="0"/>
        <pt x="286" y="400" on="1"/>
        <pt x="243" y="400" on="0"/>
        <pt x="174" y="373" on="0"/>
        <pt x="132" y="346" on="0"/>
        <pt x="121" y="346" on="1"/>
        <pt x="95" y="346" on="0"/>
        <pt x="61" y="391" on="0"/>
      </contour>
    </TTGlyph>
</ttFont>
